<?xml version="1.0" standalone="no"?>
<!DOCTYPE svg PUBLIC "-//W3C//DTD SVG 1.1//EN" "http://www.w3.org/Graphics/SVG/1.1/DTD/svg11.dtd" >
<svg>
<metadata>
Created by FontForge 20120731 at Wed May 17 11:50:28 2017
 By www-data
Charlie is a slab-serif type family with proportional weights that allow you to increase the size of the letters without increasing their weight.
</metadata>
<defs>
<font id="CharliePro-SmBld" horiz-adv-x="750" >
  <font-face 
    font-family="Charlie Pro SmBld"
    font-weight="600"
    font-stretch="normal"
    units-per-em="1000"
    panose-1="0 0 0 0 0 0 0 0 0 0"
    ascent="730"
    descent="-270"
    x-height="500"
    cap-height="660"
    bbox="-363 -259 1391 1060"
    underline-thickness="50"
    underline-position="-50"
    unicode-range="U+0020-FB04"
  />
<missing-glyph horiz-adv-x="712" 
d="M305 375v27h27v-27h-27zM380 525v27h27v-27h-27zM305 525v27h27v-27h-27zM230 525v27h27v-27h-27zM80 0v27h27v-27h-27zM155 0v27h27v-27h-27zM230 0v27h27v-27h-27zM305 0v27h27v-27h-27zM380 0v27h27v-27h-27zM80 75v27h27v-27h-27zM80 150v27h27v-27h-27zM80 225v27
h27v-27h-27zM80 300v27h27v-27h-27zM80 375v27h27v-27h-27zM80 450v27h27v-27h-27zM80 525v27h27v-27h-27zM80 600v27h27v-27h-27zM80 675v27h27v-27h-27zM155 675v27h27v-27h-27zM230 675v27h27v-27h-27zM305 675v27h27v-27h-27zM380 675v27h27v-27h-27zM455 675v27h27v-27
h-27zM530 675v27h27v-27h-27zM530 0v27h27v-27h-27zM455 0v27h27v-27h-27zM605 0v27h27v-27h-27zM605 675v27h27v-27h-27zM305 300v27h27v-27h-27zM305 150v27h27v-27h-27zM380 375v27h27v-27h-27zM455 375v27h27v-27h-27zM455 450v27h27v-27h-27zM455 525v27h27v-27h-27z
M605 600v27h27v-27h-27zM605 525v27h27v-27h-27zM605 375v27h27v-27h-27zM605 300v27h27v-27h-27zM605 150v27h27v-27h-27zM605 75v27h27v-27h-27zM605 225v27h27v-27h-27zM605 450v27h27v-27h-27z" />
    <glyph glyph-name="t_t" unicode="tt" horiz-adv-x="741" 
d="M732 17c-23 -15 -71 -28 -120 -28c-117 0 -169 56 -169 168v253h-70v32l17 58h59l21 135h111l-12 -135h165l-25 -90h-143v-233c0 -60 20 -85 81 -85c30 0 61 8 85 21v-96zM371 17c-24 -15 -72 -28 -121 -28c-117 0 -169 56 -169 168v253h-70v32l19 58h58l20 135h111
l-12 -135h141l-24 -90h-120v-233c0 -60 21 -85 81 -85c30 0 61 8 86 21v-96z" />
    <glyph glyph-name="aogonek_j" unicode="&#x105;j" horiz-adv-x="774" 
d="M228 80c34 0 63 11 82 33v108h-53c-78 0 -107 -29 -107 -73s30 -68 78 -68zM483 -209v88c5 -1 14 -1 20 -1c67 0 82 30 82 121v411h-67v32l19 58h189l-17 -82v-432c0 -146 -55 -203 -165 -203c-25 0 -50 3 -61 8zM647 556c-49 0 -81 29 -81 71c0 43 32 73 81 73
c50 0 81 -30 81 -73c0 -42 -31 -71 -81 -71zM433 127c0 -29 9 -42 33 -42c11 0 21 3 31 8v-76c-14 -7 -25 -13 -36 -20c-60 -32 -88 -65 -88 -95c0 -29 22 -41 54 -41c11 0 22 3 32 8v-77c-11 -7 -38 -12 -64 -12c-69 0 -113 34 -113 90c0 46 30 91 94 127
c-26 8 -46 23 -56 47c-26 -34 -71 -55 -129 -55c-94 0 -162 57 -162 151c0 99 62 156 205 156h76v24c0 68 -27 89 -95 89c-17 0 -37 -2 -56 -6l-2 -61h-97v142c42 17 114 27 175 27c135 0 198 -60 198 -180v-204z" />
    <glyph glyph-name="uni301A" unicode="[[" horiz-adv-x="373" 
d="M188 9v711h-53v-711h53zM59 -72v873h285v-81h-80v-711h80v-81h-285z" />
    <glyph glyph-name="uni301B" unicode="]]" horiz-adv-x="373" 
d="M238 720h-52v-711h52v711zM30 -72v81h79v711h-79v81h284v-873h-284z" />
    <glyph glyph-name="dblparenleft" unicode="&#x28;&#x28;" horiz-adv-x="418" 
d="M329 -70c-94 128 -145 282 -145 436c0 153 52 307 145 435h74v-20c-83 -120 -132 -266 -132 -416c0 -149 49 -295 132 -415v-20h-74zM181 -70c-94 128 -143 282 -143 436c0 153 50 307 144 435h75v-20c-83 -120 -132 -266 -132 -416c0 -149 49 -295 132 -415v-20h-76z
" />
    <glyph glyph-name="dblparenright" unicode="&#x29;&#x29;" horiz-adv-x="418" 
d="M234 366c0 -154 -51 -308 -145 -436h-74v20c83 120 133 266 133 415c0 150 -50 296 -133 416v20h74c93 -128 145 -282 145 -435zM380 366c0 -154 -49 -308 -143 -436h-76v20c83 120 132 266 132 415c0 150 -49 296 -132 416v20h75c94 -128 144 -282 144 -435z" />
    <glyph glyph-name="fi" unicode="fi" horiz-adv-x="630" 
d="M406 630c0 42 32 73 79 73c49 0 81 -31 81 -73c0 -43 -32 -72 -81 -72c-47 0 -79 29 -79 72zM298 87v-87h-266v87l61 3v320h-72v33l19 57h53v28c0 132 63 213 200 213c32 0 66 -5 88 -15v-94c-19 7 -45 11 -64 11c-74 0 -100 -38 -100 -128v-15h346l-18 -82v-328l70 -3
v-87h-262v87l69 3v320h-205v-320z" />
    <glyph glyph-name="fl" unicode="fl" horiz-adv-x="623" 
d="M535 -9c-75 0 -118 33 -118 118v518c-18 8 -50 15 -77 15c-86 0 -123 -43 -123 -134v-8h127l-27 -90h-100v-320l88 -3v-87h-273v87l61 3v320h-72v33l19 57h53v24c0 139 79 217 225 217c49 0 99 -13 126 -27l18 16h95l-17 -84v-515c0 -37 11 -47 42 -47c12 0 23 2 34 6
v-82c-15 -10 -53 -17 -81 -17z" />
    <glyph glyph-name="f_h" unicode="fh" horiz-adv-x="918" 
d="M302 0h-270v87l61 3v320h-72v33l19 57h53v24c0 139 79 217 225 217c49 0 98 -13 125 -27l18 16h96l-17 -84v-202c38 43 88 67 146 67c99 0 157 -65 157 -177v-244l62 -2v-88h-247v88l62 2v210c0 73 -27 103 -81 103c-33 0 -72 -19 -99 -49v-265l64 -1v-88h-248v87l61 3
v537c-18 8 -50 15 -77 15c-86 0 -123 -43 -123 -134v-8h127l-27 -90h-100v-320l85 -3v-87z" />
    <glyph glyph-name="f_b" unicode="fb" horiz-adv-x="900" 
d="M540 364v-258c20 -14 44 -21 75 -21c82 0 128 55 128 170c0 104 -38 152 -108 152c-35 0 -68 -17 -95 -43zM632 -11c-54 0 -105 13 -137 40l-23 -33h-83l28 132v499c-18 8 -50 15 -77 15c-86 0 -123 -43 -123 -134v-8h127l-27 -90h-100v-320l88 -3v-87h-273v87l61 3v320
h-72v33l19 57h53v24c0 139 79 217 225 217c49 0 98 -13 125 -27l18 16h96l-17 -84v-198c29 36 74 61 132 61c125 0 196 -85 196 -246c0 -170 -88 -274 -236 -274z" />
    <glyph glyph-name="f_j" unicode="fj" horiz-adv-x="610" 
d="M422 13v397h-205v-320l91 -3v-87h-276v87l61 3v320h-72v33l19 57h53v28c0 132 63 213 200 213c32 0 66 -5 88 -15v-94c-19 7 -45 11 -64 11c-74 0 -100 -38 -100 -128v-15h346l-18 -82v-418c0 -147 -63 -212 -197 -212c-27 0 -55 3 -72 9v94c13 -3 32 -4 45 -4
c78 0 101 31 101 126zM402 630c0 42 32 73 79 73c49 0 82 -31 82 -73c0 -43 -33 -72 -82 -72c-47 0 -79 29 -79 72z" />
    <glyph glyph-name="f_k" unicode="fk" horiz-adv-x="890" 
d="M304 0h-272v87l61 3v320h-72v33l19 57h53v24c0 139 79 217 225 217c49 0 99 -13 126 -27l17 16h96l-17 -84v-348h73l81 112h-54v90h233v-90h-50l-114 -156l112 -164l55 -3v-87h-143l-132 205h-61v-115l65 -3v-87h-247v87l59 3v537c-18 8 -50 15 -77 15
c-86 0 -123 -43 -123 -134v-8h127l-27 -90h-100v-320l87 -3v-87z" />
    <glyph glyph-name="f_f" unicode="ff" horiz-adv-x="690" 
d="M295 87v-87h-263v87l61 3v320h-72v33l19 57h53v28c0 130 64 213 201 213c31 0 66 -5 88 -15v-94c-20 7 -45 11 -65 11c-74 0 -100 -38 -100 -128v-15h203v24c0 133 69 217 222 217c35 0 73 -6 95 -17v-95c-23 7 -51 11 -76 11c-81 0 -118 -35 -118 -129v-11h145l-25 -90
h-120v-320l76 -3v-87h-265v87l66 3v320h-203v-320z" />
    <glyph glyph-name="f_f_i" unicode="ffi" horiz-adv-x="955" 
d="M730 630c0 42 33 73 80 73c49 0 81 -31 81 -73c0 -43 -32 -72 -81 -72c-47 0 -80 29 -80 72zM296 87v-87h-263v87l61 3v320h-73v33l19 57h54v28c0 130 64 213 201 213c31 0 66 -5 88 -15v-94c-20 7 -45 11 -65 11c-74 0 -100 -38 -100 -128v-15h203v28
c0 132 63 213 200 213c31 0 66 -5 87 -15v-94c-19 7 -44 11 -64 11c-73 0 -100 -38 -100 -128v-15h344l-18 -82v-328l71 -3v-87h-264v87l70 3v320h-203v-320l79 -3v-87h-272v87l70 3v320h-203v-320z" />
    <glyph glyph-name="f_f_l" unicode="ffl" horiz-adv-x="950" 
d="M862 -9c-75 0 -118 33 -118 118v518c-18 8 -50 15 -77 15c-85 0 -123 -43 -123 -134v-8h127l-26 -90h-101v-320l86 -3v-87h-279v87l70 3v320h-203v-320l78 -3v-87h-263v87l61 3v320h-73v33l19 57h54v28c0 130 64 213 201 213c31 0 66 -5 88 -15v-94c-20 7 -45 11 -65 11
c-74 0 -100 -38 -100 -128v-15h203v24c0 139 78 217 224 217c49 0 100 -13 127 -27l17 16h95l-16 -84v-515c0 -36 10 -47 41 -47c13 0 24 2 35 6v-82c-16 -10 -53 -17 -82 -17z" />
    <glyph glyph-name="f_f_j" unicode="ffj" horiz-adv-x="932" 
d="M744 13v397h-200v-320l84 -3v-87h-277v87l70 3v320h-203v-320l78 -3v-87h-263v87l61 3v320h-73v33l19 57h54v28c0 130 64 213 201 213c31 0 66 -5 88 -15v-94c-20 7 -45 11 -65 11c-74 0 -100 -38 -100 -128v-15h203v28c0 132 63 213 200 213c31 0 65 -5 87 -15v-94
c-19 7 -44 11 -64 11c-73 0 -100 -38 -100 -128v-15h341l-17 -82v-419c0 -147 -64 -211 -198 -211c-27 0 -55 3 -72 9v93c14 -2 32 -4 45 -4c78 0 101 32 101 127zM724 630c0 42 32 73 79 73c49 0 81 -31 81 -73c0 -43 -32 -72 -81 -72c-47 0 -79 29 -79 72z" />
    <glyph glyph-name="f_idieresis" unicode="f&#xef;" horiz-adv-x="635" 
d="M300 87v-87h-268v87l61 3v320h-72v33l19 57h53v41c0 127 52 200 173 200c25 0 47 -4 59 -8v-103c-7 2 -22 4 -30 4c-58 0 -78 -33 -78 -105v-29h351l-18 -82v-328l70 -3v-87h-265v87l72 3v320h-210v-320zM338 631c0 34 27 65 68 65c42 0 69 -31 69 -65
c0 -35 -27 -65 -69 -65c-41 0 -68 30 -68 65zM509 631c0 34 27 65 68 65c42 0 69 -31 69 -65c0 -35 -27 -65 -69 -65c-41 0 -68 30 -68 65z" />
    <glyph glyph-name="f_igrave" unicode="f&#xec;" horiz-adv-x="635" 
d="M356 730h114l64 -150v-16h-88l-90 144v22zM300 87v-87h-268v87l61 3v320h-72v33l19 57h53v41c0 124 62 200 180 200c27 0 56 -5 70 -11v-94c-13 3 -26 5 -42 5c-60 0 -84 -35 -84 -107v-34h351l-18 -82v-328l70 -3v-87h-265v87l72 3v320h-210v-320z" />
    <glyph glyph-name=".notdef" horiz-adv-x="712" 
d="M305 375v27h27v-27h-27zM380 525v27h27v-27h-27zM305 525v27h27v-27h-27zM230 525v27h27v-27h-27zM80 0v27h27v-27h-27zM155 0v27h27v-27h-27zM230 0v27h27v-27h-27zM305 0v27h27v-27h-27zM380 0v27h27v-27h-27zM80 75v27h27v-27h-27zM80 150v27h27v-27h-27zM80 225v27
h27v-27h-27zM80 300v27h27v-27h-27zM80 375v27h27v-27h-27zM80 450v27h27v-27h-27zM80 525v27h27v-27h-27zM80 600v27h27v-27h-27zM80 675v27h27v-27h-27zM155 675v27h27v-27h-27zM230 675v27h27v-27h-27zM305 675v27h27v-27h-27zM380 675v27h27v-27h-27zM455 675v27h27v-27
h-27zM530 675v27h27v-27h-27zM530 0v27h27v-27h-27zM455 0v27h27v-27h-27zM605 0v27h27v-27h-27zM605 675v27h27v-27h-27zM305 300v27h27v-27h-27zM305 150v27h27v-27h-27zM380 375v27h27v-27h-27zM455 375v27h27v-27h-27zM455 450v27h27v-27h-27zM455 525v27h27v-27h-27z
M605 600v27h27v-27h-27zM605 525v27h27v-27h-27zM605 375v27h27v-27h-27zM605 300v27h27v-27h-27zM605 150v27h27v-27h-27zM605 75v27h27v-27h-27zM605 225v27h27v-27h-27zM605 450v27h27v-27h-27z" />
    <glyph glyph-name="space" unicode=" " horiz-adv-x="200" 
 />
    <glyph glyph-name="A" unicode="A" horiz-adv-x="656" 
d="M402 275l-79 266l-82 -266h161zM10 0v93l53 3l185 564h161l185 -564l52 -3v-93h-265v93l74 3l-25 83h-217l-26 -83l73 -3v-93h-250z" />
    <glyph glyph-name="B" unicode="B" horiz-adv-x="625" 
d="M371 0h-335v94l75 3v466l-75 3v94h286c157 0 233 -65 233 -169c0 -51 -23 -100 -73 -133c76 -28 114 -89 114 -162c0 -119 -90 -196 -225 -196zM291 558h-50v-185h105c5 0 27 0 45 -1c21 29 34 63 34 96c0 61 -43 90 -134 90zM344 280h-103v-178h103c76 0 119 32 119 91
c0 56 -38 87 -119 87z" />
    <glyph glyph-name="C" unicode="C" horiz-adv-x="567" 
d="M536 30c-34 -25 -112 -41 -186 -41c-201 0 -315 111 -315 333c0 208 97 349 323 349c57 0 126 -10 178 -36v-173h-105l-3 91c-22 5 -44 9 -69 9c-127 0 -191 -86 -191 -234c0 -156 67 -230 203 -230c58 0 115 13 165 42v-110z" />
    <glyph glyph-name="D" unicode="D" horiz-adv-x="669" 
d="M308 0h-272v94l76 3v466l-76 3v94h272c221 0 325 -108 325 -324c0 -211 -103 -336 -325 -336zM297 556h-56v-452h56c153 0 203 77 203 227c0 154 -50 225 -203 225z" />
    <glyph glyph-name="E" unicode="E" horiz-adv-x="586" 
d="M546 195v-195h-510v94l76 3v466l-76 3v94h508v-198h-105l-3 94h-195v-170h187v-101h-187v-181h199l2 91h104z" />
    <glyph glyph-name="F" unicode="F" horiz-adv-x="567" 
d="M331 0h-295v94l76 3v466l-76 3v94h508v-198h-105l-3 94h-195v-181h187v-101h-187v-178l90 -2v-94z" />
    <glyph glyph-name="G" unicode="G" horiz-adv-x="611" 
d="M562 29c-49 -24 -125 -40 -199 -40c-212 0 -328 113 -328 329c0 208 98 353 328 353c69 0 141 -12 197 -36v-173h-105l-3 88c-28 8 -56 11 -90 11c-127 0 -195 -84 -195 -237c0 -159 76 -228 200 -228c24 0 51 4 72 12v127l-78 3v90h201v-299z" />
    <glyph glyph-name="H" unicode="H" horiz-adv-x="743" 
d="M318 94v-94h-282v94l76 3v466l-76 3v94h282v-94l-76 -2v-172h259v172l-77 2v94h282v-94l-76 -3v-466l76 -3v-94h-282v94l77 3v186h-259v-186z" />
    <glyph glyph-name="I" unicode="I" horiz-adv-x="354" 
d="M318 0h-282v94l76 3v466l-76 3v94h282v-94l-76 -3v-466l76 -3v-94z" />
    <glyph glyph-name="J" unicode="J" horiz-adv-x="335" 
d="M25 -180c-27 0 -54 4 -75 10v93c13 -3 30 -4 45 -4c80 0 108 29 108 126v518l-77 3v94h282v-94l-76 -3v-530c0 -144 -61 -213 -207 -213z" />
    <glyph glyph-name="K" unicode="K" horiz-adv-x="664" 
d="M301 93v-93h-266v93l77 3v468l-77 3v93h268v-93l-62 -3v-177h84l121 178l-59 2v93h254v-93l-57 -2l-157 -227l175 -243l52 -2v-93h-257v93l48 2l-129 182h-75v-181z" />
    <glyph glyph-name="L" unicode="L" horiz-adv-x="575" 
d="M553 0h-517v94l76 3v466l-76 3v94h291v-94l-85 -3v-459h205l2 115h104v-219z" />
    <glyph glyph-name="M" unicode="M" horiz-adv-x="841" 
d="M265 93v-93h-236v93l63 3l34 468l-73 3v93h255l116 -402l116 402h248v-93l-72 -3l34 -468l62 -3v-93h-239v93l60 3l-28 420l-119 -418h-134l-117 418l-29 -420z" />
    <glyph glyph-name="N" unicode="N" horiz-adv-x="731" 
d="M299 94v-94h-263v94l76 3v466l-76 3v94h224l255 -475v378l-65 3v94h252v-94l-71 -3v-563h-147l-256 479v-382z" />
    <glyph glyph-name="O" unicode="O" horiz-adv-x="653" 
d="M323 -11c-186 0 -287 123 -287 335c0 218 101 347 295 347c189 0 286 -128 286 -338c0 -216 -102 -344 -294 -344zM327 96c102 0 157 73 157 233c0 161 -55 234 -157 234c-100 0 -159 -73 -159 -234c0 -160 57 -233 159 -233z" />
    <glyph glyph-name="P" unicode="P" horiz-adv-x="598" 
d="M299 556h-57v-233h60c93 0 139 45 139 120c0 74 -50 113 -142 113zM339 94v-94h-303v94l76 3v466l-76 3v94h280c177 0 255 -81 255 -214c0 -135 -87 -225 -255 -225h-74v-124z" />
    <glyph glyph-name="Q" unicode="Q" horiz-adv-x="653" 
d="M488 -176c-112 0 -191 52 -210 169c-160 18 -243 138 -243 331c0 216 100 347 296 347c188 0 286 -128 286 -338c0 -188 -75 -303 -223 -331c13 -60 54 -81 111 -81c28 0 58 6 77 16v-95c-20 -11 -61 -18 -94 -18zM168 329c0 -161 58 -235 158 -235c102 0 158 74 158 235
c0 159 -54 234 -158 234c-100 0 -158 -75 -158 -234z" />
    <glyph glyph-name="R" unicode="R" horiz-adv-x="637" 
d="M241 556v-227h128c41 36 62 80 62 124c0 66 -39 103 -137 103h-53zM306 93v-93h-270v93l76 3v468l-76 3v93h284c164 0 244 -73 244 -188c0 -74 -37 -137 -111 -186l126 -190l46 -3v-93h-137l-143 230h-104v-134z" />
    <glyph glyph-name="S" unicode="S" horiz-adv-x="533" 
d="M500 191c0 -118 -91 -201 -259 -201c-74 0 -148 11 -201 36v170h105l3 -90c29 -9 60 -12 95 -12c91 0 125 34 125 88c0 56 -55 78 -121 102c-110 34 -203 79 -203 201c0 111 81 186 238 186c73 0 143 -14 195 -37v-167h-105l-3 86c-29 8 -56 12 -89 12
c-77 0 -106 -29 -106 -75c0 -55 55 -71 121 -94c110 -36 205 -74 205 -205z" />
    <glyph glyph-name="T" unicode="T" horiz-adv-x="614" 
d="M457 93v-93h-299v93l84 3v460h-113l-3 -94h-103v198h568v-198h-102l-3 94h-115v-460z" />
    <glyph glyph-name="U" unicode="U" horiz-adv-x="688" 
d="M340 -11c-167 0 -250 89 -250 244v331l-61 3v93h261v-93l-71 -3v-322c0 -100 46 -143 125 -143c80 0 127 43 127 143v322l-70 3v93h259v-93l-62 -3v-331c0 -155 -93 -244 -258 -244z" />
    <glyph glyph-name="V" unicode="V" horiz-adv-x="647" 
d="M403 0h-159l-181 564l-52 3v93h259v-93l-70 -3l129 -416l130 416l-65 3v93h242v-93l-52 -3z" />
    <glyph glyph-name="W" unicode="W" horiz-adv-x="911" 
d="M570 0l-115 469l-114 -469h-140l-132 564l-56 3v93h255v-93l-77 -3l89 -385l110 437h136l111 -438l89 387l-72 2v93h244v-93l-55 -3l-132 -564h-141z" />
    <glyph glyph-name="X" unicode="X" horiz-adv-x="628" 
d="M251 93v-93h-239v93l51 2l171 242l-158 228l-54 2v93h261v-93l-53 -2l93 -140l95 140l-51 2v93h238v-93l-50 -3l-159 -222l172 -247l47 -2v-93h-256v93l55 2l-107 161l-109 -161z" />
    <glyph glyph-name="Y" unicode="Y" horiz-adv-x="643" 
d="M465 0h-288v93l80 3v157l-193 311l-53 3v93h265v-93l-57 -2l113 -189l114 189l-53 2v93h239v-93l-54 -3l-192 -311v-157l79 -3v-93z" />
    <glyph glyph-name="Z" unicode="Z" horiz-adv-x="555" 
d="M518 0h-490v91l329 465h-206l-3 -94h-104v198h476v-91l-330 -465h223l2 91h103v-195z" />
    <glyph glyph-name="J.alt" horiz-adv-x="394" 
d="M92 -5c-30 0 -60 4 -76 10v94c9 -2 27 -3 47 -3c81 0 106 21 106 119v348l-82 3v94h282v-94l-71 -3v-363c0 -145 -58 -205 -206 -205z" />
    <glyph glyph-name="a" unicode="a" horiz-adv-x="502" 
d="M416 -11c-49 0 -82 21 -95 55c-25 -34 -70 -55 -128 -55c-95 0 -164 58 -164 153c0 98 62 154 205 154h76v24c0 68 -27 89 -95 89c-17 0 -37 -2 -56 -6l-2 -61h-97v141c42 16 114 28 175 28c135 0 199 -60 199 -180v-205c0 -29 8 -42 33 -42c11 0 20 2 29 7v-82
c-20 -13 -48 -20 -80 -20zM228 80c34 0 63 13 82 34v105h-53c-77 0 -107 -29 -107 -71c0 -44 31 -68 78 -68z" />
    <glyph glyph-name="b" unicode="b" horiz-adv-x="553" 
d="M268 85c81 0 128 55 128 170c0 104 -38 152 -108 152c-35 0 -68 -17 -95 -43v-258c20 -14 43 -21 75 -21zM285 -11c-54 0 -104 13 -137 40l-23 -33h-83l27 132v512h-63v32l23 58h181l-17 -84v-198c28 36 75 61 132 61c124 0 196 -85 196 -246c0 -170 -88 -274 -236 -274z
" />
    <glyph glyph-name="c" unicode="c" horiz-adv-x="457" 
d="M423 20c-21 -15 -78 -31 -141 -31c-159 0 -251 86 -251 255c0 158 78 267 250 267c54 0 109 -8 140 -25v-153h-96l-2 73c-12 1 -24 2 -34 2c-88 0 -133 -59 -133 -159c0 -110 55 -158 152 -158c41 0 80 9 115 28v-99z" />
    <glyph glyph-name="d" unicode="d" horiz-adv-x="563" 
d="M465 -10c-49 0 -80 19 -92 55c-30 -36 -80 -56 -136 -56c-119 0 -205 80 -205 255c0 169 77 265 227 265c39 0 74 -7 99 -22v153h-80v32l24 58h197l-18 -79v-526c0 -29 10 -41 33 -41c12 0 23 3 33 8v-82c-19 -13 -50 -20 -82 -20zM274 88c32 0 64 11 84 29v277
c-20 11 -45 16 -73 16c-87 0 -128 -58 -128 -162c0 -116 45 -160 117 -160z" />
    <glyph glyph-name="e" unicode="e" horiz-adv-x="488" 
d="M252 417c-53 0 -85 -42 -93 -121h178c1 4 1 9 1 14c0 69 -30 107 -86 107zM283 -11c-159 0 -251 79 -251 251c0 158 73 271 226 271c125 0 196 -78 196 -208c0 -26 -3 -57 -10 -87h-286c4 -92 57 -125 145 -125c51 0 106 12 141 31v-99c-29 -19 -98 -34 -161 -34z" />
    <glyph glyph-name="f" unicode="f" horiz-adv-x="365" 
d="M297 87v-87h-265v87l61 3v320h-72v33l19 57h53v24c0 134 71 217 219 217c35 0 77 -6 99 -17v-95c-23 7 -52 11 -76 11c-82 0 -118 -35 -118 -129v-11h144l-24 -90h-120v-320z" />
    <glyph glyph-name="g" unicode="g" horiz-adv-x="500" 
d="M290 -16l-125 14c-30 -18 -47 -49 -47 -78c0 -46 40 -72 120 -72c82 0 127 33 127 76c0 35 -21 53 -75 60zM156 328c0 -63 30 -94 84 -94c51 0 83 31 83 94c0 59 -28 95 -83 95s-84 -36 -84 -95zM484 -60c0 -95 -86 -178 -257 -178c-143 0 -220 54 -220 138
c-1 47 21 93 87 119c-30 13 -50 37 -50 70c0 36 14 70 64 96c-46 30 -69 81 -69 141c0 109 69 185 202 185c44 0 79 -8 108 -22c14 61 51 90 113 90c11 0 20 -1 32 -3v-92c-3 1 -12 1 -17 1c-33 0 -57 -15 -71 -42c23 -30 35 -68 35 -112c0 -107 -69 -181 -202 -181
c-28 0 -53 3 -75 9c-9 -8 -16 -19 -16 -29c0 -15 12 -22 43 -26l140 -16c107 -11 153 -66 153 -148z" />
    <glyph glyph-name="h" unicode="h" horiz-adv-x="583" 
d="M267 87v-87h-237v87l49 3v550h-68v32l25 58h183l-17 -84v-210c33 48 88 75 147 75c101 0 160 -67 160 -176v-245l60 -3v-87h-247v87l63 3v210c0 70 -24 102 -80 102c-34 0 -76 -18 -103 -49v-263z" />
    <glyph glyph-name="i" unicode="i" horiz-adv-x="299" 
d="M72 630c0 42 32 73 80 73c51 0 82 -31 82 -73c0 -43 -31 -72 -82 -72c-48 0 -80 29 -80 72zM284 0h-254v87l61 3v320h-67v32l19 58h189l-17 -82v-328l69 -3v-87z" />
    <glyph glyph-name="j" unicode="j" horiz-adv-x="270" 
d="M63 630c0 42 32 73 80 73c51 0 82 -31 82 -73c0 -43 -31 -72 -82 -72c-48 0 -80 29 -80 72zM18 -235c-25 0 -54 3 -72 9v93c13 -2 29 -4 42 -4c73 0 94 30 94 122v425h-67v32l19 58h189l-17 -82v-447c0 -138 -54 -206 -188 -206z" />
    <glyph glyph-name="k" unicode="k" horiz-adv-x="552" 
d="M267 87v-87h-237v87l49 3v550h-68v32l25 58h183l-17 -84v-348h73l81 112h-54v90h233v-90h-50l-114 -156l112 -164l55 -3v-87h-143l-132 205h-61v-115z" />
    <glyph glyph-name="l" unicode="l" horiz-adv-x="270" 
d="M263 8c-15 -10 -53 -17 -81 -17c-75 0 -118 33 -118 118v531h-66v32l24 58h182l-17 -84v-515c0 -37 11 -47 42 -47c11 0 24 2 34 6v-82z" />
    <glyph glyph-name="m" unicode="m" horiz-adv-x="871" 
d="M271 87v-87h-241v87l61 3v320h-67v32l19 58h162l3 -69c33 51 84 80 145 80c66 0 113 -30 137 -84c31 51 85 84 150 84c101 0 156 -66 156 -175v-246l61 -3v-87h-239v87l54 3v214c0 68 -23 98 -77 98c-34 0 -66 -18 -90 -49c1 -9 1 -22 1 -25v-238l57 -3v-87h-237v87l56 3
v214c0 68 -25 98 -76 98c-34 0 -66 -17 -91 -46v-266z" />
    <glyph glyph-name="n" unicode="n" horiz-adv-x="596" 
d="M280 87v-87h-250v87l61 3v320h-67v32l19 58h162l3 -69c34 50 90 80 154 80c102 0 160 -68 160 -177v-244l60 -3v-87h-248v87l64 3v210c0 70 -24 102 -81 102c-38 0 -74 -18 -102 -48v-264z" />
    <glyph glyph-name="o" unicode="o" horiz-adv-x="533" 
d="M263 -11c-149 0 -231 90 -231 258c0 162 79 264 239 264c151 0 230 -94 230 -257c0 -161 -79 -265 -238 -265zM266 83c71 0 108 52 108 166c0 115 -35 166 -108 166c-72 0 -107 -55 -107 -166c0 -116 34 -166 107 -166z" />
    <glyph glyph-name="p" unicode="p" horiz-adv-x="566" 
d="M271 83c91 0 137 53 137 169c0 105 -36 152 -107 152c-34 0 -70 -18 -96 -46v-262c19 -10 42 -13 66 -13zM300 -143v-87h-279v87l61 3v550h-67v32l19 58h162l2 -63c31 46 81 74 142 74c122 0 193 -81 193 -247c0 -177 -88 -274 -241 -274c-31 0 -61 5 -87 13v-143z" />
    <glyph glyph-name="q" unicode="q" horiz-adv-x="550" 
d="M265 -230v87l94 3v169c-25 -23 -69 -39 -118 -39c-127 0 -209 85 -209 254c0 166 77 267 234 267c56 0 102 -16 135 -41l20 35h87l-25 -124v-522l55 -2v-87h-273zM276 88c30 0 63 10 83 28v276c-19 12 -45 18 -71 18c-89 0 -132 -60 -132 -163c0 -115 48 -159 120 -159z
" />
    <glyph glyph-name="r" unicode="r" horiz-adv-x="394" 
d="M30 0v87l61 3v320h-67v32l19 58h160l4 -78c23 58 55 88 117 88c19 0 39 -3 54 -9v-115h-33c-57 -1 -91 -9 -130 -45v-251l86 -3v-87h-271z" />
    <glyph glyph-name="s" unicode="s" horiz-adv-x="467" 
d="M209 -11c-65 0 -137 12 -171 29v147h95l2 -74c20 -5 48 -7 74 -7c73 0 103 22 103 58c0 47 -64 54 -129 71c-79 23 -145 55 -145 147c0 83 61 151 214 151c61 0 128 -10 163 -28v-141h-92l-1 69c-17 4 -45 7 -71 7c-69 0 -92 -22 -92 -50c0 -42 63 -47 127 -63
c80 -21 150 -52 150 -150c0 -100 -76 -166 -227 -166z" />
    <glyph glyph-name="t" unicode="t" horiz-adv-x="379" 
d="M371 17c-24 -15 -72 -28 -121 -28c-117 0 -169 56 -169 168v253h-70v32l19 58h58l20 135h111l-12 -135h165l-24 -90h-144v-233c0 -60 21 -85 81 -85c30 0 61 8 86 21v-96z" />
    <glyph glyph-name="u" unicode="u" horiz-adv-x="567" 
d="M469 -10c-49 0 -82 19 -96 59c-30 -37 -76 -60 -138 -60c-106 0 -163 62 -163 171v250h-54v32l20 58h175l-17 -83v-237c0 -62 26 -86 81 -86c32 0 64 12 85 34v282h-60v32l20 58h181l-18 -82v-292c0 -31 10 -42 33 -42c12 0 22 2 32 8v-83c-22 -13 -49 -19 -81 -19z" />
    <glyph glyph-name="v" unicode="v" horiz-adv-x="560" 
d="M361 0h-162l-144 410h-42v90h238v-90h-59l98 -290l97 290h-54v90h213v-90h-41z" />
    <glyph glyph-name="w" unicode="w" horiz-adv-x="757" 
d="M459 0l-80 315l-80 -315h-129l-111 410h-45v90h219v-90h-57l67 -258l80 304h119l81 -307l67 261h-58v90h210v-90h-44l-110 -410h-129z" />
    <glyph glyph-name="x" unicode="x" horiz-adv-x="552" 
d="M226 0h-201v87l32 1l136 169l-120 153h-36v90h231v-90h-45l69 -91l71 91h-45v90l207 1v-91h-45l-124 -152l136 -169l46 -2v-87h-247v87l51 2l-85 108l-82 -107l51 -3v-87z" />
    <glyph glyph-name="y" unicode="y" horiz-adv-x="559" 
d="M116 -242c-29 0 -61 5 -80 13v99c19 -6 40 -8 63 -8c79 0 116 22 149 120l6 18h-51l-147 410h-43v90h237v-90h-60l102 -298l95 298h-55v90h214v-90h-41l-151 -455c-48 -143 -116 -197 -238 -197z" />
    <glyph glyph-name="z" unicode="z" horiz-adv-x="490" 
d="M455 0h-425v93l260 312h-148l-2 -69h-97v164h408v-92l-260 -312h165l2 71h97v-167z" />
    <glyph glyph-name="zero.zero" horiz-adv-x="603" 
d="M298 -11c-176 0 -256 118 -256 335c0 219 78 347 263 347c184 0 256 -122 256 -338c0 -217 -79 -344 -263 -344zM175 329c0 -57 4 -102 13 -138l199 341c-19 22 -47 32 -84 32c-88 0 -128 -72 -128 -235zM301 93c91 0 127 70 127 236c0 58 -4 104 -12 139l-199 -342
c19 -22 47 -33 84 -33z" />
    <glyph glyph-name="zero" unicode="0" horiz-adv-x="603" 
d="M298 -11c-176 0 -256 118 -256 335c0 219 78 347 263 347c184 0 256 -122 256 -338c0 -217 -79 -344 -263 -344zM301 93c91 0 127 70 127 236c0 163 -33 236 -125 236c-88 0 -128 -73 -128 -236c0 -166 35 -236 126 -236z" />
    <glyph glyph-name="one" unicode="1" horiz-adv-x="412" 
d="M397 0h-357v91l113 4v443l-115 -17v93l180 46h65v-565l114 -4v-91z" />
    <glyph glyph-name="two" unicode="2" horiz-adv-x="541" 
d="M498 0h-459v84c43 39 132 110 204 182c84 85 114 138 114 194c0 63 -42 106 -125 106c-27 0 -51 -4 -74 -12l-4 -91h-104v166c52 27 124 42 197 42c152 0 242 -80 242 -198c0 -100 -65 -200 -270 -369h174l1 76h104v-180z" />
    <glyph glyph-name="three" unicode="3" horiz-adv-x="541" 
d="M230 -11c-67 0 -145 13 -184 36v110c49 -26 114 -40 178 -40c101 0 145 44 145 106c0 59 -43 95 -135 95h-53v94h55c31 0 67 -2 90 -7c21 27 32 57 32 88c0 56 -44 95 -123 95c-27 0 -53 -3 -79 -11l-3 -85h-104v158c54 30 132 43 200 43c153 0 234 -75 234 -179
c0 -55 -26 -102 -74 -136c59 -33 92 -88 92 -156c0 -123 -89 -211 -271 -211z" />
    <glyph glyph-name="four" unicode="4" horiz-adv-x="577" 
d="M326 254v296l-181 -296h181zM550 153h-96v-56l76 -3v-94h-282v94l77 3v56h-305v84l253 423h182v-406h95v-101z" />
    <glyph glyph-name="five" unicode="5" horiz-adv-x="516" 
d="M203 -11c-65 0 -132 13 -166 33v109c42 -23 102 -36 161 -36c94 0 148 42 148 113s-49 118 -172 118h-113l24 334h389l-10 -110h-267l-9 -132h15c180 0 274 -73 274 -208c0 -134 -104 -221 -274 -221z" />
    <glyph glyph-name="six" unicode="6" horiz-adv-x="572" 
d="M538 211c0 -138 -100 -222 -239 -222c-166 0 -257 94 -257 310c0 222 86 372 317 372c55 0 121 -10 150 -26v-111c-37 17 -91 26 -135 26c-135 0 -189 -70 -199 -204c39 36 97 61 161 61c128 0 202 -76 202 -206zM300 86c70 0 111 45 111 119s-42 114 -115 114
c-40 0 -85 -15 -122 -40c4 -150 52 -193 126 -193z" />
    <glyph glyph-name="seven" unicode="7" horiz-adv-x="517" 
d="M266 0h-136v26l235 529h-230l-3 -97h-104v202h473v-92z" />
    <glyph glyph-name="eight" unicode="8" horiz-adv-x="591" 
d="M292 -11c-161 0 -254 64 -254 173c0 74 41 138 136 168c-66 34 -110 80 -110 160c0 97 75 181 232 181c148 0 234 -68 234 -171c0 -65 -38 -116 -113 -146c79 -35 136 -82 136 -175c0 -112 -94 -190 -261 -190zM294 86c75 0 124 33 124 87c0 64 -65 90 -148 118l-21 7
c-54 -32 -80 -73 -80 -117c0 -61 47 -95 125 -95zM316 392l21 -7c41 28 63 63 63 103c0 52 -38 86 -105 86c-69 0 -104 -34 -104 -80c0 -52 58 -80 125 -102z" />
    <glyph glyph-name="nine" unicode="9" horiz-adv-x="571" 
d="M278 340c42 0 84 12 117 34c-4 147 -44 200 -122 200c-74 0 -113 -52 -113 -119c0 -78 47 -115 118 -115zM218 -11c-54 0 -120 10 -153 27v107c38 -17 95 -27 143 -27c121 0 177 55 186 200c-38 -33 -95 -53 -151 -53c-129 0 -210 75 -210 211c0 119 79 217 238 217
c175 0 258 -104 258 -327c0 -240 -102 -355 -311 -355z" />
    <glyph glyph-name="Aacute" unicode="&#xc1;" horiz-adv-x="656" 
d="M402 275l-79 266l-82 -266h161zM10 0v93l53 3l185 564h161l185 -564l52 -3v-93h-265v93l74 3l-25 83h-217l-26 -83l73 -3v-93h-250zM368 858h108v-21l-103 -123h-88v17z" />
    <glyph glyph-name="Acircumflex" unicode="&#xc2;" horiz-adv-x="656" 
d="M402 275l-79 266l-82 -266h161zM10 0v93l53 3l185 564h161l185 -564l52 -3v-93h-265v93l74 3l-25 83h-217l-26 -83l73 -3v-93h-250zM262 714h-87v21l96 123h101l96 -123v-21h-85l-62 74z" />
    <glyph glyph-name="Adieresis" unicode="&#xc4;" horiz-adv-x="656" 
d="M402 275l-79 266l-82 -266h161zM10 0v93l53 3l185 564h161l185 -564l52 -3v-93h-265v93l74 3l-25 83h-217l-26 -83l73 -3v-93h-250zM167 788c0 36 27 65 68 65c43 0 70 -29 70 -65c0 -34 -27 -65 -70 -65c-41 0 -68 31 -68 65zM356 788c0 36 26 65 67 65
c43 0 70 -29 70 -65c0 -34 -27 -65 -70 -65c-41 0 -67 31 -67 65z" />
    <glyph glyph-name="Aring" unicode="&#xc5;" horiz-adv-x="656" 
d="M402 275l-79 266l-82 -266h161zM10 0v93l53 3l185 564h161l185 -564l52 -3v-93h-265v93l74 3l-25 83h-217l-26 -83l73 -3v-93h-250zM228 799c0 54 43 97 96 97c54 0 96 -43 96 -97c0 -53 -42 -95 -96 -95c-53 0 -96 41 -96 95zM283 799c0 -25 16 -44 41 -44s41 19 41 44
s-16 44 -41 44s-41 -19 -41 -44z" />
    <glyph glyph-name="Agrave" unicode="&#xc0;" horiz-adv-x="656" 
d="M402 275l-79 266l-82 -266h161zM10 0v93l53 3l185 564h161l185 -564l52 -3v-93h-265v93l74 3l-25 83h-217l-26 -83l73 -3v-93h-250zM175 858h107l82 -127v-17h-87l-102 123v21z" />
    <glyph glyph-name="Atilde" unicode="&#xc3;" horiz-adv-x="656" 
d="M10 0v93l53 3l185 564h161l185 -564l52 -3v-93h-265v93l74 3l-25 83h-217l-26 -83l73 -3v-93h-250zM276 755c-15 0 -24 -14 -24 -37v-6h-77v18c0 70 28 112 84 112c23 0 46 -11 66 -21c19 -10 32 -17 46 -17s23 13 23 37v6h77v-20c0 -70 -31 -107 -85 -107
c-24 0 -42 6 -63 17c-20 11 -33 18 -47 18zM402 275l-79 266l-82 -266h161z" />
    <glyph glyph-name="Abreve" unicode="&#x102;" horiz-adv-x="656" 
d="M402 275l-79 266l-82 -266h161zM10 0v93l53 3l185 564h161l185 -564l52 -3v-93h-265v93l74 3l-25 83h-217l-26 -83l73 -3v-93h-250zM322 718c-90 0 -146 46 -146 123v5h85c3 -38 24 -55 61 -55c38 0 59 17 61 55h85v-5c0 -76 -55 -123 -146 -123z" />
    <glyph glyph-name="Amacron" unicode="&#x100;" horiz-adv-x="656" 
d="M402 275l-79 266l-82 -266h161zM10 0v93l53 3l185 564h161l185 -564l52 -3v-93h-265v93l74 3l-25 83h-217l-26 -83l73 -3v-93h-250zM192 738v84h269v-84h-269z" />
    <glyph glyph-name="Aogonek" unicode="&#x104;" horiz-adv-x="656" 
d="M10 0v93l53 3l185 564h161l185 -564l52 -3v-93h-80c-52 -42 -75 -83 -75 -113c0 -31 19 -46 51 -46c20 0 38 4 54 12v-77c-16 -11 -49 -17 -78 -17c-71 0 -121 33 -121 100c0 50 32 98 85 141h-101v93l74 3l-25 83h-217l-26 -83l73 -3v-93h-250zM402 275l-79 266
l-82 -266h161z" />
    <glyph glyph-name="uni01FA" unicode="&#x1fa;" horiz-adv-x="656" 
d="M402 275l-79 266l-82 -266h161zM10 0v93l53 3l185 564h161l185 -564l52 -3v-93h-265v93l74 3l-25 83h-217l-26 -83l73 -3v-93h-250zM231 786c0 54 43 97 96 97c54 0 96 -43 96 -97c0 -53 -42 -95 -96 -95c-53 0 -96 41 -96 95zM286 786c0 -25 16 -44 41 -44s41 19 41 44
s-16 44 -41 44s-41 -19 -41 -44zM366 1060h108v-21l-103 -123h-88v17z" />
    <glyph glyph-name="uni01CD" unicode="&#x1cd;" horiz-adv-x="656" 
d="M402 275l-79 266l-82 -266h161zM10 0v93l53 3l185 564h161l185 -564l52 -3v-93h-265v93l74 3l-25 83h-217l-26 -83l73 -3v-93h-250zM374 714h-101l-96 123v21h87l59 -73l62 73h85v-21z" />
    <glyph glyph-name="uni0226" unicode="&#x226;" horiz-adv-x="656" 
d="M402 275l-79 266l-82 -266h161zM10 0v93l53 3l185 564h161l185 -564l52 -3v-93h-265v93l74 3l-25 83h-217l-26 -83l73 -3v-93h-250zM250 792c0 38 27 72 74 72s75 -34 75 -72c0 -37 -29 -70 -75 -70c-47 0 -74 35 -74 70z" />
    <glyph glyph-name="uni1EA6" unicode="&#x1ea6;" horiz-adv-x="656" 
d="M402 275l-79 266l-82 -266h161zM10 0v93l53 3l185 564h161l185 -564l52 -3v-93h-265v93l74 3l-25 83h-217l-26 -83l73 -3v-93h-250zM361 929h98l72 -112v-17h-80l-90 108v21zM263 714h-88v21l100 111h95l100 -111v-21h-88l-61 64z" />
    <glyph glyph-name="uni1EA4" unicode="&#x1ea4;" horiz-adv-x="656" 
d="M402 275l-79 266l-82 -266h161zM10 0v93l53 3l185 564h161l185 -564l52 -3v-93h-265v93l74 3l-25 83h-217l-26 -83l73 -3v-93h-250zM502 929h98v-21l-90 -108h-80v17zM263 714h-88v21l100 111h95l100 -111v-21h-88l-61 64z" />
    <glyph glyph-name="uni1EAA" unicode="&#x1eaa;" horiz-adv-x="656" 
d="M402 275l-79 266l-82 -266h161zM10 0v93l53 3l185 564h161l185 -564l52 -3v-93h-265v93l74 3l-25 83h-217l-26 -83l73 -3v-93h-250zM284 897c-14 0 -19 -8 -19 -26v-2h-74v10c0 59 23 95 74 95c18 0 35 -5 50 -11c17 -6 32 -13 45 -13s19 5 19 27v1h73v-9
c0 -65 -25 -95 -73 -95c-19 0 -41 6 -58 13c-15 5 -27 10 -37 10zM263 714h-88v21l100 111h95l100 -111v-21h-88l-61 64z" />
    <glyph glyph-name="uni1EA8" unicode="&#x1ea8;" horiz-adv-x="656" 
d="M402 275l-79 266l-82 -266h161zM10 0v93l53 3l185 564h161l185 -564l52 -3v-93h-265v93l74 3l-25 83h-217l-26 -83l73 -3v-93h-250zM417 829c38 21 53 40 53 60c0 19 -12 30 -34 30c-13 0 -26 -3 -38 -8v62c17 9 33 14 60 14c52 0 91 -35 91 -86c0 -44 -30 -86 -92 -120z
M263 714h-88v21l100 111h95l100 -111v-21h-88l-61 64z" />
    <glyph glyph-name="uni1EAC" unicode="&#x1eac;" horiz-adv-x="656" 
d="M246 -134c0 38 27 72 74 72s75 -34 75 -72c0 -37 -29 -70 -75 -70c-47 0 -74 35 -74 70zM402 275l-79 266l-82 -266h161zM10 0v93l53 3l185 564h161l185 -564l52 -3v-93h-265v93l74 3l-25 83h-217l-26 -83l73 -3v-93h-250zM262 714h-87v21l96 123h101l96 -123v-21h-85
l-62 74z" />
    <glyph glyph-name="uni1EB0" unicode="&#x1eb0;" horiz-adv-x="656" 
d="M402 275l-79 266l-82 -266h161zM10 0v93l53 3l185 564h161l185 -564l52 -3v-93h-265v93l74 3l-25 83h-217l-26 -83l73 -3v-93h-250zM200 957v21h99l63 -112v-16h-80zM320 717c-95 0 -149 50 -152 124v3h87c6 -38 31 -54 65 -54c35 0 59 16 65 54h88v-3
c-4 -73 -61 -124 -153 -124z" />
    <glyph glyph-name="uni1EAE" unicode="&#x1eae;" horiz-adv-x="656" 
d="M402 275l-79 266l-82 -266h161zM10 0v93l53 3l185 564h161l185 -564l52 -3v-93h-265v93l74 3l-25 83h-217l-26 -83l73 -3v-93h-250zM342 978h98v-21l-82 -107h-80v16zM320 717c-95 0 -149 50 -152 124v3h87c6 -38 31 -54 65 -54c35 0 59 16 65 54h88v-3
c-4 -73 -61 -124 -153 -124z" />
    <glyph glyph-name="uni1EB4" unicode="&#x1eb4;" horiz-adv-x="656" 
d="M402 275l-79 266l-82 -266h161zM10 0v93l53 3l185 564h161l185 -564l52 -3v-93h-265v93l74 3l-25 83h-217l-26 -83l73 -3v-93h-250zM286 901c-14 0 -19 -9 -19 -27v-2h-73v10c0 59 23 95 74 95c19 0 35 -5 51 -11c17 -6 32 -13 44 -13c13 0 19 5 19 27v2h73v-10
c0 -65 -25 -94 -73 -94c-20 0 -40 6 -58 12c-15 6 -28 11 -38 11zM320 717c-95 0 -147 50 -150 121v4h88c6 -37 28 -52 62 -52s57 15 63 52h87v-4c-4 -69 -58 -121 -150 -121z" />
    <glyph glyph-name="uni1EB2" unicode="&#x1eb2;" horiz-adv-x="656" 
d="M402 275l-79 266l-82 -266h161zM10 0v93l53 3l185 564h161l185 -564l52 -3v-93h-265v93l74 3l-25 83h-217l-26 -83l73 -3v-93h-250zM320 718c-90 0 -146 46 -146 123v5h85c3 -38 24 -55 61 -55c38 0 59 17 61 55h85v-5c0 -76 -55 -123 -146 -123z" />
    <glyph glyph-name="uni1EB6" unicode="&#x1eb6;" horiz-adv-x="656" 
d="M246 -134c0 38 27 72 74 72s75 -34 75 -72c0 -37 -29 -70 -75 -70c-47 0 -74 35 -74 70zM402 275l-79 266l-82 -266h161zM10 0v93l53 3l185 564h161l185 -564l52 -3v-93h-265v93l74 3l-25 83h-217l-26 -83l73 -3v-93h-250zM320 718c-90 0 -146 46 -146 123v5h85
c3 -38 24 -55 61 -55c38 0 59 17 61 55h85v-5c0 -76 -55 -123 -146 -123z" />
    <glyph glyph-name="uni1EA2" unicode="&#x1ea2;" horiz-adv-x="656" 
d="M402 275l-79 266l-82 -266h161zM10 0v93l53 3l185 564h161l185 -564l52 -3v-93h-265v93l74 3l-25 83h-217l-26 -83l73 -3v-93h-250zM261 744c42 24 68 48 68 72c0 23 -16 38 -41 38c-15 0 -31 -5 -46 -11v68c20 10 39 16 69 16c61 0 105 -40 105 -97
c0 -54 -35 -98 -107 -137z" />
    <glyph glyph-name="uni1EA0" unicode="&#x1ea0;" horiz-adv-x="656" 
d="M246 -134c0 38 27 72 74 72s75 -34 75 -72c0 -37 -29 -70 -75 -70c-47 0 -74 35 -74 70zM402 275l-79 266l-82 -266h161zM10 0v93l53 3l185 564h161l185 -564l52 -3v-93h-265v93l74 3l-25 83h-217l-26 -83l73 -3v-93h-250z" />
    <glyph glyph-name="uni1E02" unicode="&#x1e02;" horiz-adv-x="625" 
d="M371 0h-335v94l75 3v466l-75 3v94h286c157 0 233 -65 233 -169c0 -51 -23 -100 -73 -133c76 -28 114 -89 114 -162c0 -119 -90 -196 -225 -196zM291 558h-50v-185h105c5 0 27 0 45 -1c21 29 34 63 34 96c0 61 -43 90 -134 90zM344 280h-103v-178h103c76 0 119 32 119 91
c0 56 -38 87 -119 87zM233 792c0 38 27 72 74 72s75 -34 75 -72c0 -37 -29 -70 -75 -70c-47 0 -74 35 -74 70z" />
    <glyph glyph-name="uni1E04" unicode="&#x1e04;" horiz-adv-x="625" 
d="M371 0h-335v94l75 3v466l-75 3v94h286c157 0 233 -65 233 -169c0 -51 -23 -100 -73 -133c76 -28 114 -89 114 -162c0 -119 -90 -196 -225 -196zM291 558h-50v-185h105c5 0 27 0 45 -1c21 29 34 63 34 96c0 61 -43 90 -134 90zM344 280h-103v-178h103c76 0 119 32 119 91
c0 56 -38 87 -119 87zM236 -134c0 38 27 72 74 72s75 -34 75 -72c0 -37 -29 -70 -75 -70c-47 0 -74 35 -74 70z" />
    <glyph glyph-name="uni1E06" unicode="&#x1e06;" horiz-adv-x="625" 
d="M371 0h-335v94l75 3v466l-75 3v94h286c157 0 233 -65 233 -169c0 -51 -23 -100 -73 -133c76 -28 114 -89 114 -162c0 -119 -90 -196 -225 -196zM291 558h-50v-185h105c5 0 27 0 45 -1c21 29 34 63 34 96c0 61 -43 90 -134 90zM344 280h-103v-178h103c76 0 119 32 119 91
c0 56 -38 87 -119 87zM180 -170v83h259v-83h-259z" />
    <glyph glyph-name="Ccedilla" unicode="&#xc7;" horiz-adv-x="567" 
d="M311 -45c73 -2 112 -39 112 -92c0 -57 -47 -104 -126 -104c-34 0 -66 5 -89 15v66c23 -9 49 -15 76 -15c35 0 53 13 53 37c0 22 -19 36 -50 36c-13 0 -25 -2 -40 -5l-22 41l23 66c-137 33 -213 140 -213 322c0 208 97 349 323 349c57 0 126 -10 178 -36v-173h-105l-3 91
c-22 5 -44 9 -69 9c-127 0 -191 -86 -191 -234c0 -156 67 -230 203 -230c58 0 115 13 165 42v-110c-34 -25 -112 -41 -186 -41c-9 0 -18 1 -27 1l-13 -35h1z" />
    <glyph glyph-name="Cacute" unicode="&#x106;" horiz-adv-x="567" 
d="M536 30c-34 -25 -112 -41 -186 -41c-201 0 -315 111 -315 333c0 208 97 349 323 349c57 0 126 -10 178 -36v-173h-105l-3 91c-22 5 -44 9 -69 9c-127 0 -191 -86 -191 -234c0 -156 67 -230 203 -230c58 0 115 13 165 42v-110zM365 858h108v-21l-103 -123h-88v17z" />
    <glyph glyph-name="Ccaron" unicode="&#x10c;" horiz-adv-x="567" 
d="M536 30c-34 -25 -112 -41 -186 -41c-201 0 -315 111 -315 333c0 208 97 349 323 349c57 0 126 -10 178 -36v-173h-105l-3 91c-22 5 -44 9 -69 9c-127 0 -191 -86 -191 -234c0 -156 67 -230 203 -230c58 0 115 13 165 42v-110zM379 714h-101l-96 123v21h87l59 -73l62 73
h85v-21z" />
    <glyph glyph-name="Ccircumflex" unicode="&#x108;" horiz-adv-x="567" 
d="M536 30c-34 -25 -112 -41 -186 -41c-201 0 -315 111 -315 333c0 208 97 349 323 349c57 0 126 -10 178 -36v-173h-105l-3 91c-22 5 -44 9 -69 9c-127 0 -191 -86 -191 -234c0 -156 67 -230 203 -230c58 0 115 13 165 42v-110zM264 714h-87v21l96 123h101l96 -123v-21h-85
l-62 74z" />
    <glyph glyph-name="Cdotaccent" unicode="&#x10a;" horiz-adv-x="567" 
d="M252 792c0 38 27 72 74 72s75 -34 75 -72c0 -37 -29 -70 -75 -70c-47 0 -74 35 -74 70zM536 30c-34 -25 -112 -41 -186 -41c-201 0 -315 111 -315 333c0 208 97 349 323 349c57 0 126 -10 178 -36v-173h-105l-3 91c-22 5 -44 9 -69 9c-127 0 -191 -86 -191 -234
c0 -156 67 -230 203 -230c58 0 115 13 165 42v-110z" />
    <glyph glyph-name="Dcaron" unicode="&#x10e;" horiz-adv-x="669" 
d="M381 714h-101l-96 123v21h87l59 -73l62 73h85v-21zM308 0h-272v94l76 3v466l-76 3v94h272c221 0 325 -108 325 -324c0 -211 -103 -336 -325 -336zM297 556h-56v-452h56c153 0 203 77 203 227c0 154 -50 225 -203 225z" />
    <glyph glyph-name="Dcroat" unicode="&#x110;" horiz-adv-x="671" 
d="M38 292v83h75v188l-76 3v94h272c221 0 325 -108 325 -324c0 -211 -103 -336 -325 -336h-272v94l76 3v195h-75zM298 556h-56v-181h122v-83h-122v-188h56c153 0 203 77 203 227c0 154 -50 225 -203 225z" />
    <glyph glyph-name="uni1E0E" unicode="&#x1e0e;" horiz-adv-x="669" 
d="M308 0h-272v94l76 3v466l-76 3v94h272c221 0 325 -108 325 -324c0 -211 -103 -336 -325 -336zM297 556h-56v-452h56c153 0 203 77 203 227c0 154 -50 225 -203 225zM188 -170v83h259v-83h-259z" />
    <glyph glyph-name="uni1E0C" unicode="&#x1e0c;" horiz-adv-x="669" 
d="M308 0h-272v94l76 3v466l-76 3v94h272c221 0 325 -108 325 -324c0 -211 -103 -336 -325 -336zM297 556h-56v-452h56c153 0 203 77 203 227c0 154 -50 225 -203 225zM241 -134c0 38 27 72 74 72s75 -34 75 -72c0 -37 -29 -70 -75 -70c-47 0 -74 35 -74 70z" />
    <glyph glyph-name="uni1E0A" unicode="&#x1e0a;" horiz-adv-x="669" 
d="M308 0h-272v94l76 3v466l-76 3v94h272c221 0 325 -108 325 -324c0 -211 -103 -336 -325 -336zM297 556h-56v-452h56c153 0 203 77 203 227c0 154 -50 225 -203 225zM241 792c0 38 27 72 74 72s75 -34 75 -72c0 -37 -29 -70 -75 -70c-47 0 -74 35 -74 70z" />
    <glyph glyph-name="Eacute" unicode="&#xc9;" horiz-adv-x="586" 
d="M332 858h108v-21l-103 -123h-88v17zM546 195v-195h-510v94l76 3v466l-76 3v94h508v-198h-105l-3 94h-195v-170h187v-101h-187v-181h199l2 91h104z" />
    <glyph glyph-name="Ecircumflex" unicode="&#xca;" horiz-adv-x="586" 
d="M243 714h-87v21l96 123h101l96 -123v-21h-85l-62 74zM546 195v-195h-510v94l76 3v466l-76 3v94h508v-198h-105l-3 94h-195v-170h187v-101h-187v-181h199l2 91h104z" />
    <glyph glyph-name="Edieresis" unicode="&#xcb;" horiz-adv-x="586" 
d="M137 788c0 36 27 65 68 65c43 0 70 -29 70 -65c0 -34 -27 -65 -70 -65c-41 0 -68 31 -68 65zM326 788c0 36 26 65 67 65c43 0 70 -29 70 -65c0 -34 -27 -65 -70 -65c-41 0 -67 31 -67 65zM546 195v-195h-510v94l76 3v466l-76 3v94h508v-198h-105l-3 94h-195v-170h187
v-101h-187v-181h199l2 91h104z" />
    <glyph glyph-name="Egrave" unicode="&#xc8;" horiz-adv-x="586" 
d="M161 858h107l82 -127v-17h-87l-102 123v21zM546 195v-195h-510v94l76 3v466l-76 3v94h508v-198h-105l-3 94h-195v-170h187v-101h-187v-181h199l2 91h104z" />
    <glyph glyph-name="Ebreve" unicode="&#x114;" horiz-adv-x="586" 
d="M304 718c-90 0 -146 46 -146 123v5h85c3 -38 24 -55 61 -55c38 0 59 17 61 55h85v-5c0 -76 -55 -123 -146 -123zM546 195v-195h-510v94l76 3v466l-76 3v94h508v-198h-105l-3 94h-195v-170h187v-101h-187v-181h199l2 91h104z" />
    <glyph glyph-name="Ecaron" unicode="&#x11a;" horiz-adv-x="586" 
d="M354 714h-101l-96 123v21h87l59 -73l62 73h85v-21zM546 195v-195h-510v94l76 3v466l-76 3v94h508v-198h-105l-3 94h-195v-170h187v-101h-187v-181h199l2 91h104z" />
    <glyph glyph-name="Edotaccent" unicode="&#x116;" horiz-adv-x="586" 
d="M228 792c0 38 27 72 74 72s75 -34 75 -72c0 -37 -29 -70 -75 -70c-47 0 -74 35 -74 70zM546 195v-195h-510v94l76 3v466l-76 3v94h508v-198h-105l-3 94h-195v-170h187v-101h-187v-181h199l2 91h104z" />
    <glyph glyph-name="Emacron" unicode="&#x112;" horiz-adv-x="586" 
d="M165 738v84h269v-84h-269zM546 195v-195h-510v94l76 3v466l-76 3v94h508v-198h-105l-3 94h-195v-170h187v-101h-187v-181h199l2 91h104z" />
    <glyph glyph-name="Eogonek" unicode="&#x118;" horiz-adv-x="586" 
d="M546 195v-195h-95c-53 -42 -76 -83 -76 -113c0 -31 20 -46 51 -46c21 0 38 4 55 12v-77c-17 -11 -49 -17 -78 -17c-72 0 -122 33 -122 100c0 50 32 98 85 141h-330v94l76 3v466l-76 3v94h508v-198h-105l-3 94h-195v-170h187v-101h-187v-181h199l2 91h104z" />
    <glyph glyph-name="uni0228" unicode="&#x228;" horiz-adv-x="586" 
d="M202 -226v67c24 -10 48 -16 77 -16c34 0 52 13 52 37c0 22 -19 36 -50 36c-13 0 -25 -2 -40 -5l-22 41l23 66h-206v94l76 3v466l-76 3v94h508v-198h-105l-3 94h-195v-170h187v-101h-187v-181h199l2 91h104v-195h-225l-17 -45h1c73 -2 112 -37 112 -93
c0 -58 -49 -103 -129 -103c-32 0 -63 5 -86 15z" />
    <glyph glyph-name="uni1EC0" unicode="&#x1ec0;" horiz-adv-x="586" 
d="M546 195v-195h-510v94l76 3v466l-76 3v94h508v-198h-105l-3 94h-195v-170h187v-101h-187v-181h199l2 91h104zM343 929h98l72 -112v-17h-80l-90 108v21zM245 714h-88v21l100 111h95l100 -111v-21h-88l-61 64z" />
    <glyph glyph-name="uni1EBE" unicode="&#x1ebe;" horiz-adv-x="586" 
d="M546 195v-195h-510v94l76 3v466l-76 3v94h508v-198h-105l-3 94h-195v-170h187v-101h-187v-181h199l2 91h104zM484 929h98v-21l-90 -108h-80v17zM245 714h-88v21l100 111h95l100 -111v-21h-88l-61 64z" />
    <glyph glyph-name="uni1EC4" unicode="&#x1ec4;" horiz-adv-x="586" 
d="M546 195v-195h-510v94l76 3v466l-76 3v94h508v-198h-105l-3 94h-195v-170h187v-101h-187v-181h199l2 91h104zM266 897c-14 0 -19 -8 -19 -26v-2h-74v10c0 59 23 95 74 95c18 0 35 -5 50 -11c17 -6 32 -13 45 -13s19 5 19 27v1h73v-9c0 -65 -25 -95 -73 -95
c-19 0 -41 6 -58 13c-15 5 -27 10 -37 10zM245 714h-88v21l100 111h95l100 -111v-21h-88l-61 64z" />
    <glyph glyph-name="uni1EC2" unicode="&#x1ec2;" horiz-adv-x="586" 
d="M546 195v-195h-510v94l76 3v466l-76 3v94h508v-198h-105l-3 94h-195v-170h187v-101h-187v-181h199l2 91h104zM399 829c38 21 53 40 53 60c0 19 -12 30 -34 30c-13 0 -26 -3 -38 -8v62c17 9 33 14 60 14c52 0 91 -35 91 -86c0 -44 -30 -86 -92 -120zM245 714h-88v21
l100 111h95l100 -111v-21h-88l-61 64z" />
    <glyph glyph-name="uni1EC6" unicode="&#x1ec6;" horiz-adv-x="586" 
d="M223 -134c0 38 27 72 74 72s75 -34 75 -72c0 -37 -29 -70 -75 -70c-47 0 -74 35 -74 70zM241 714h-87v21l96 123h101l96 -123v-21h-85l-62 74zM546 195v-195h-510v94l76 3v466l-76 3v94h508v-198h-105l-3 94h-195v-170h187v-101h-187v-181h199l2 91h104z" />
    <glyph glyph-name="uni1EBA" unicode="&#x1eba;" horiz-adv-x="586" 
d="M546 195v-195h-510v94l76 3v466l-76 3v94h508v-198h-105l-3 94h-195v-170h187v-101h-187v-181h199l2 91h104zM238 744c42 24 68 48 68 72c0 23 -16 38 -41 38c-15 0 -31 -5 -46 -11v68c20 10 39 16 69 16c61 0 105 -40 105 -97c0 -54 -35 -98 -107 -137z" />
    <glyph glyph-name="uni1EB8" unicode="&#x1eb8;" horiz-adv-x="586" 
d="M223 -134c0 38 27 72 74 72s75 -34 75 -72c0 -37 -29 -70 -75 -70c-47 0 -74 35 -74 70zM546 195v-195h-510v94l76 3v466l-76 3v94h508v-198h-105l-3 94h-195v-170h187v-101h-187v-181h199l2 91h104z" />
    <glyph glyph-name="uni1EBC" unicode="&#x1ebc;" horiz-adv-x="586" 
d="M546 195v-195h-510v94l76 3v466l-76 3v94h508v-198h-105l-3 94h-195v-170h187v-101h-187v-181h199l2 91h104zM257 755c-15 0 -24 -14 -24 -37v-6h-77v18c0 70 28 112 84 112c23 0 46 -11 66 -21c19 -10 32 -17 46 -17s23 13 23 37v6h77v-20c0 -70 -31 -107 -85 -107
c-24 0 -42 6 -63 17c-20 11 -33 18 -47 18z" />
    <glyph glyph-name="uni0045030A" horiz-adv-x="586" 
d="M204 799c0 54 43 97 96 97c54 0 96 -43 96 -97c0 -53 -42 -95 -96 -95c-53 0 -96 41 -96 95zM259 799c0 -25 16 -44 41 -44s41 19 41 44s-16 44 -41 44s-41 -19 -41 -44zM546 195v-195h-510v94l76 3v466l-76 3v94h508v-198h-105l-3 94h-195v-170h187v-101h-187v-181h199
l2 91h104z" />
    <glyph glyph-name="uni1E1E" unicode="&#x1e1e;" horiz-adv-x="567" 
d="M331 0h-295v94l76 3v466l-76 3v94h508v-198h-105l-3 94h-195v-181h187v-101h-187v-178l90 -2v-94zM231 792c0 38 27 72 74 72s75 -34 75 -72c0 -37 -29 -70 -75 -70c-47 0 -74 35 -74 70z" />
    <glyph glyph-name="uni00460304" horiz-adv-x="567" 
d="M331 0h-295v94l76 3v466l-76 3v94h508v-198h-105l-3 94h-195v-181h187v-101h-187v-178l90 -2v-94zM167 738v84h269v-84h-269z" />
    <glyph glyph-name="Gbreve" unicode="&#x11e;" horiz-adv-x="611" 
d="M329 718c-90 0 -146 46 -146 123v5h85c3 -38 24 -55 61 -55c38 0 59 17 61 55h85v-5c0 -76 -55 -123 -146 -123zM562 29c-49 -24 -125 -40 -199 -40c-212 0 -328 113 -328 329c0 208 98 353 328 353c69 0 141 -12 197 -36v-173h-105l-3 88c-28 8 -56 11 -90 11
c-127 0 -195 -84 -195 -237c0 -159 76 -228 200 -228c24 0 51 4 72 12v127l-78 3v90h201v-299z" />
    <glyph glyph-name="Gcommaaccent" unicode="&#x122;" horiz-adv-x="611" 
d="M278 -52h90c6 -18 8 -37 8 -59c0 -50 -14 -98 -57 -148l-78 33c29 40 43 83 43 118c0 20 -3 38 -6 56zM562 29c-49 -24 -125 -40 -199 -40c-212 0 -328 113 -328 329c0 208 98 353 328 353c69 0 141 -12 197 -36v-173h-105l-3 88c-28 8 -56 11 -90 11
c-127 0 -195 -84 -195 -237c0 -159 76 -228 200 -228c24 0 51 4 72 12v127l-78 3v90h201v-299z" />
    <glyph glyph-name="Gcircumflex" unicode="&#x11c;" horiz-adv-x="611" 
d="M562 29c-49 -24 -125 -40 -199 -40c-212 0 -328 113 -328 329c0 208 98 353 328 353c69 0 141 -12 197 -36v-173h-105l-3 88c-28 8 -56 11 -90 11c-127 0 -195 -84 -195 -237c0 -159 76 -228 200 -228c24 0 51 4 72 12v127l-78 3v90h201v-299zM268 714h-87v21l96 123h101
l96 -123v-21h-85l-62 74z" />
    <glyph glyph-name="Gdotaccent" unicode="&#x120;" horiz-adv-x="611" 
d="M255 792c0 38 27 72 74 72s75 -34 75 -72c0 -37 -29 -70 -75 -70c-47 0 -74 35 -74 70zM562 29c-49 -24 -125 -40 -199 -40c-212 0 -328 113 -328 329c0 208 98 353 328 353c69 0 141 -12 197 -36v-173h-105l-3 88c-28 8 -56 11 -90 11c-127 0 -195 -84 -195 -237
c0 -159 76 -228 200 -228c24 0 51 4 72 12v127l-78 3v90h201v-299z" />
    <glyph glyph-name="uni01E6" unicode="&#x1e6;" horiz-adv-x="611" 
d="M562 29c-49 -24 -125 -40 -199 -40c-212 0 -328 113 -328 329c0 208 98 353 328 353c69 0 141 -12 197 -36v-173h-105l-3 88c-28 8 -56 11 -90 11c-127 0 -195 -84 -195 -237c0 -159 76 -228 200 -228c24 0 51 4 72 12v127l-78 3v90h201v-299zM378 714h-101l-96 123v21
h87l59 -73l62 73h85v-21z" />
    <glyph glyph-name="uni01F4" unicode="&#x1f4;" horiz-adv-x="611" 
d="M562 29c-49 -24 -125 -40 -199 -40c-212 0 -328 113 -328 329c0 208 98 353 328 353c69 0 141 -12 197 -36v-173h-105l-3 88c-28 8 -56 11 -90 11c-127 0 -195 -84 -195 -237c0 -159 76 -228 200 -228c24 0 51 4 72 12v127l-78 3v90h201v-299zM378 858h108v-21l-103 -123
h-88v17z" />
    <glyph glyph-name="uni1E20" unicode="&#x1e20;" horiz-adv-x="611" 
d="M562 29c-49 -24 -125 -40 -199 -40c-212 0 -328 113 -328 329c0 208 98 353 328 353c69 0 141 -12 197 -36v-173h-105l-3 88c-28 8 -56 11 -90 11c-127 0 -195 -84 -195 -237c0 -159 76 -228 200 -228c24 0 51 4 72 12v127l-78 3v90h201v-299zM196 738v84h269v-84h-269z
" />
    <glyph glyph-name="Hbar" unicode="&#x126;" horiz-adv-x="743" 
d="M317 94v-94h-282v94l77 3v370h-77v93h77v100h129v-100h259v100h129v-100h77v-93h-77v-370l77 -3v-94h-283v94l77 3v186h-259v-186zM241 392h259v75h-259v-75z" />
    <glyph glyph-name="Hcircumflex" unicode="&#x124;" horiz-adv-x="743" 
d="M318 94v-94h-282v94l76 3v466l-76 3v94h282v-94l-76 -2v-172h259v172l-77 2v94h282v-94l-76 -3v-466l76 -3v-94h-282v94l77 3v186h-259v-186zM311 714h-87v21l96 123h101l96 -123v-21h-85l-62 74z" />
    <glyph glyph-name="uni021E" unicode="&#x21e;" horiz-adv-x="743" 
d="M318 94v-94h-282v94l76 3v466l-76 3v94h282v-94l-76 -2v-172h259v172l-77 2v94h282v-94l-76 -3v-466l76 -3v-94h-282v94l77 3v186h-259v-186zM420 714h-101l-96 123v21h87l59 -73l62 73h85v-21z" />
    <glyph glyph-name="uni1E24" unicode="&#x1e24;" horiz-adv-x="743" 
d="M318 94v-94h-282v94l76 3v466l-76 3v94h282v-94l-76 -2v-172h259v172l-77 2v94h282v-94l-76 -3v-466l76 -3v-94h-282v94l77 3v186h-259v-186zM296 -134c0 38 27 72 74 72s75 -34 75 -72c0 -37 -29 -70 -75 -70c-47 0 -74 35 -74 70z" />
    <glyph glyph-name="uni00480331" horiz-adv-x="743" 
d="M318 94v-94h-282v94l76 3v466l-76 3v94h282v-94l-76 -2v-172h259v172l-77 2v94h282v-94l-76 -3v-466l76 -3v-94h-282v94l77 3v186h-259v-186zM241 -170v83h259v-83h-259z" />
    <glyph glyph-name="uni1E2A" unicode="&#x1e2a;" horiz-adv-x="743" 
d="M318 94v-94h-282v94l76 3v466l-76 3v94h282v-94l-76 -2v-172h259v172l-77 2v94h282v-94l-76 -3v-466l76 -3v-94h-282v94l77 3v186h-259v-186zM371 -193c-94 0 -147 54 -147 135v5h86c2 -45 26 -66 61 -66s59 21 61 66h86v-5c-1 -80 -54 -135 -147 -135z" />
    <glyph glyph-name="uni1E22" unicode="&#x1e22;" horiz-adv-x="743" 
d="M318 94v-94h-282v94l76 3v466l-76 3v94h282v-94l-76 -2v-172h259v172l-77 2v94h282v-94l-76 -3v-466l76 -3v-94h-282v94l77 3v186h-259v-186zM296 792c0 38 27 72 74 72s75 -34 75 -72c0 -37 -29 -70 -75 -70c-47 0 -74 35 -74 70z" />
    <glyph glyph-name="Iacute" unicode="&#xcd;" horiz-adv-x="354" 
d="M318 0h-282v94l76 3v466l-76 3v94h282v-94l-76 -3v-466l76 -3v-94zM219 858h108v-21l-103 -123h-88v17z" />
    <glyph glyph-name="Icircumflex" unicode="&#xce;" horiz-adv-x="354" 
d="M318 0h-282v94l76 3v466l-76 3v94h282v-94l-76 -3v-466l76 -3v-94zM116 714h-87v21l96 123h101l96 -123v-21h-85l-62 74z" />
    <glyph glyph-name="Idieresis" unicode="&#xcf;" horiz-adv-x="354" 
d="M318 0h-282v94l76 3v466l-76 3v94h282v-94l-76 -3v-466l76 -3v-94zM14 788c0 36 27 65 68 65c43 0 70 -29 70 -65c0 -34 -27 -65 -70 -65c-41 0 -68 31 -68 65zM203 788c0 36 26 65 67 65c43 0 70 -29 70 -65c0 -34 -27 -65 -70 -65c-41 0 -67 31 -67 65z" />
    <glyph glyph-name="Igrave" unicode="&#xcc;" horiz-adv-x="354" 
d="M318 0h-282v94l76 3v466l-76 3v94h282v-94l-76 -3v-466l76 -3v-94zM30 858h107l82 -127v-17h-87l-102 123v21z" />
    <glyph glyph-name="Ibreve" unicode="&#x12c;" horiz-adv-x="354" 
d="M318 0h-282v94l76 3v466l-76 3v94h282v-94l-76 -3v-466l76 -3v-94zM177 718c-90 0 -146 46 -146 123v5h85c3 -38 24 -55 61 -55c38 0 59 17 61 55h85v-5c0 -76 -55 -123 -146 -123z" />
    <glyph glyph-name="Idotaccent" unicode="&#x130;" horiz-adv-x="354" 
d="M318 0h-282v94l76 3v466l-76 3v94h282v-94l-76 -3v-466l76 -3v-94zM103 792c0 38 27 72 74 72s75 -34 75 -72c0 -37 -29 -70 -75 -70c-47 0 -74 35 -74 70z" />
    <glyph glyph-name="Imacron" unicode="&#x12a;" horiz-adv-x="354" 
d="M318 0h-282v94l76 3v466l-76 3v94h282v-94l-76 -3v-466l76 -3v-94zM43 738v84h269v-84h-269z" />
    <glyph glyph-name="Iogonek" unicode="&#x12e;" horiz-adv-x="354" 
d="M318 0h-97c-52 -42 -74 -82 -74 -113s19 -46 51 -46c20 0 38 4 54 12v-77c-16 -11 -49 -17 -78 -17c-71 0 -121 33 -121 100c0 50 32 98 85 141h-102v94l76 3v466l-76 3v94h282v-94l-76 -3v-466l76 -3v-94z" />
    <glyph glyph-name="uni01CF" unicode="&#x1cf;" horiz-adv-x="354" 
d="M318 0h-282v94l76 3v466l-76 3v94h282v-94l-76 -3v-466l76 -3v-94zM228 714h-101l-96 123v21h87l59 -73l62 73h85v-21z" />
    <glyph glyph-name="uni1EC8" unicode="&#x1ec8;" horiz-adv-x="354" 
d="M318 0h-282v94l76 3v466l-76 3v94h282v-94l-76 -3v-466l76 -3v-94zM114 744c42 24 68 48 68 72c0 23 -16 38 -41 38c-15 0 -31 -5 -46 -11v68c20 10 39 16 69 16c61 0 105 -40 105 -97c0 -54 -35 -98 -107 -137z" />
    <glyph glyph-name="uni1ECA" unicode="&#x1eca;" horiz-adv-x="354" 
d="M318 0h-282v94l76 3v466l-76 3v94h282v-94l-76 -3v-466l76 -3v-94zM103 -134c0 38 27 72 74 72s75 -34 75 -72c0 -37 -29 -70 -75 -70c-47 0 -74 35 -74 70z" />
    <glyph glyph-name="Itilde" unicode="&#x128;" horiz-adv-x="354" 
d="M318 0h-282v94l76 3v466l-76 3v94h282v-94l-76 -3v-466l76 -3v-94zM130 755c-15 0 -24 -14 -24 -37v-6h-77v18c0 70 28 112 84 112c23 0 46 -11 66 -21c19 -10 32 -17 46 -17s23 13 23 37v6h77v-20c0 -70 -31 -107 -85 -107c-24 0 -42 6 -63 17c-20 11 -33 18 -47 18z
" />
    <glyph glyph-name="uni004A0301" horiz-adv-x="335" 
d="M25 -180c-27 0 -54 4 -75 10v93c13 -3 30 -4 45 -4c80 0 108 29 108 126v518l-77 3v94h282v-94l-76 -3v-530c0 -144 -61 -213 -207 -213zM202 858h108v-21l-103 -123h-88v17z" />
    <glyph glyph-name="uni004A0301.alt" horiz-adv-x="394" 
d="M274 858h108v-21l-103 -123h-88v17zM92 -5c-30 0 -60 4 -76 10v94c9 -2 27 -3 47 -3c81 0 106 21 106 119v348l-82 3v94h282v-94l-71 -3v-363c0 -145 -58 -205 -206 -205z" />
    <glyph glyph-name="Jcircumflex" unicode="&#x134;" horiz-adv-x="335" 
d="M25 -180c-27 0 -54 4 -75 10v93c13 -3 30 -4 45 -4c80 0 108 29 108 126v518l-77 3v94h282v-94l-76 -3v-530c0 -144 -61 -213 -207 -213zM107 714h-87v21l96 123h101l96 -123v-21h-85l-62 74z" />
    <glyph glyph-name="Jcircumflex.alt" horiz-adv-x="394" 
d="M173 714h-87v21l96 123h101l96 -123v-21h-85l-62 74zM92 -5c-30 0 -60 4 -76 10v94c9 -2 27 -3 47 -3c81 0 106 21 106 119v348l-82 3v94h282v-94l-71 -3v-363c0 -145 -58 -205 -206 -205z" />
    <glyph glyph-name="Kcommaaccent" unicode="&#x136;" horiz-adv-x="664" 
d="M299 -52h90c6 -18 8 -37 8 -59c0 -50 -14 -98 -57 -148l-78 33c29 40 43 83 43 118c0 20 -3 38 -6 56zM301 93v-93h-266v93l77 3v468l-77 3v93h268v-93l-62 -3v-177h84l121 178l-59 2v93h254v-93l-57 -2l-157 -227l175 -243l52 -2v-93h-257v93l48 2l-129 182h-75v-181z
" />
    <glyph glyph-name="uni01E8" unicode="&#x1e8;" horiz-adv-x="664" 
d="M383 714h-101l-96 123v21h87l59 -73l62 73h85v-21zM301 93v-93h-266v93l77 3v468l-77 3v93h268v-93l-62 -3v-177h84l121 178l-59 2v93h254v-93l-57 -2l-157 -227l175 -243l52 -2v-93h-257v93l48 2l-129 182h-75v-181z" />
    <glyph glyph-name="uni1E34" unicode="&#x1e34;" horiz-adv-x="664" 
d="M301 93v-93h-266v93l77 3v468l-77 3v93h268v-93l-62 -3v-177h84l121 178l-59 2v93h254v-93l-57 -2l-157 -227l175 -243l52 -2v-93h-257v93l48 2l-129 182h-75v-181zM204 -170v83h259v-83h-259z" />
    <glyph glyph-name="uni1E32" unicode="&#x1e32;" horiz-adv-x="664" 
d="M301 93v-93h-266v93l77 3v468l-77 3v93h268v-93l-62 -3v-177h84l121 178l-59 2v93h254v-93l-57 -2l-157 -227l175 -243l52 -2v-93h-257v93l48 2l-129 182h-75v-181zM259 -134c0 38 27 72 74 72s75 -34 75 -72c0 -37 -29 -70 -75 -70c-47 0 -74 35 -74 70z" />
    <glyph glyph-name="Lacute" unicode="&#x139;" horiz-adv-x="575" 
d="M215 858h108v-21l-103 -123h-88v17zM553 0h-517v94l76 3v466l-76 3v94h291v-94l-85 -3v-459h205l2 115h104v-219z" />
    <glyph glyph-name="Lcaron" unicode="&#x13d;" horiz-adv-x="575" 
d="M388 695h104v-21l-38 -163h-79v17zM553 0h-517v94l76 3v466l-76 3v94h291v-94l-85 -3v-459h205l2 115h104v-219z" />
    <glyph glyph-name="Lcommaaccent" unicode="&#x13b;" horiz-adv-x="575" 
d="M253 -52h90c6 -18 8 -37 8 -59c0 -50 -14 -98 -57 -148l-78 33c29 40 43 83 43 118c0 20 -3 38 -6 56zM553 0h-517v94l76 3v466l-76 3v94h291v-94l-85 -3v-459h205l2 115h104v-219z" />
    <glyph glyph-name="Ldot" unicode="&#x13f;" horiz-adv-x="579" 
d="M318 365c0 38 27 71 74 71s75 -33 75 -71c0 -37 -29 -70 -75 -70c-47 0 -74 34 -74 70zM553 0h-517v94l76 3v466l-76 3v94h291v-94l-85 -3v-459h205l2 115h104v-219z" />
    <glyph glyph-name="Lslash" unicode="&#x141;" horiz-adv-x="576" 
d="M554 0h-517v94l76 3v174l-76 -29v88l76 29v204l-76 3v94h291v-94l-85 -3v-155l156 60v-89l-156 -59v-216h205l2 115h104v-219z" />
    <glyph glyph-name="uni1E3A" unicode="&#x1e3a;" horiz-adv-x="575" 
d="M553 0h-517v94l76 3v466l-76 3v94h291v-94l-85 -3v-459h205l2 115h104v-219zM178 -170v83h259v-83h-259z" />
    <glyph glyph-name="uni1E36" unicode="&#x1e36;" horiz-adv-x="575" 
d="M553 0h-517v94l76 3v466l-76 3v94h291v-94l-85 -3v-459h205l2 115h104v-219zM227 -129c0 38 27 72 74 72s75 -34 75 -72c0 -37 -29 -70 -75 -70c-47 0 -74 35 -74 70z" />
    <glyph glyph-name="uni1E38" unicode="&#x1e38;" horiz-adv-x="575" 
d="M227 -134c0 38 27 72 74 72s75 -34 75 -72c0 -37 -29 -70 -75 -70c-47 0 -74 35 -74 70zM553 0h-517v94l76 3v466l-76 3v94h291v-94l-85 -3v-459h205l2 115h104v-219zM46 738v84h269v-84h-269z" />
    <glyph glyph-name="uni1E42" unicode="&#x1e42;" horiz-adv-x="841" 
d="M265 93v-93h-236v93l63 3l34 468l-73 3v93h255l116 -402l116 402h248v-93l-72 -3l34 -468l62 -3v-93h-239v93l60 3l-28 420l-119 -418h-134l-117 418l-29 -420zM347 -134c0 38 27 72 74 72s75 -34 75 -72c0 -37 -29 -70 -75 -70c-47 0 -74 35 -74 70z" />
    <glyph glyph-name="uni004D0310" horiz-adv-x="841" 
d="M265 93v-93h-236v93l63 3l34 468l-73 3v93h255l116 -402l116 402h248v-93l-72 -3l34 -468l62 -3v-93h-239v93l60 3l-28 420l-119 -418h-134l-117 418l-29 -420zM359 912c0 32 24 60 62 60c39 0 64 -28 64 -60s-25 -60 -64 -60c-38 0 -62 29 -62 60zM421 717
c-95 0 -149 50 -152 126v5h87c7 -40 31 -58 65 -58s59 18 65 58h88v-5c-4 -74 -61 -126 -153 -126z" />
    <glyph glyph-name="uni1E40" unicode="&#x1e40;" horiz-adv-x="841" 
d="M265 93v-93h-236v93l63 3l34 468l-73 3v93h255l116 -402l116 402h248v-93l-72 -3l34 -468l62 -3v-93h-239v93l60 3l-28 420l-119 -418h-134l-117 418l-29 -420zM348 792c0 38 27 72 74 72s75 -34 75 -72c0 -37 -29 -70 -75 -70c-47 0 -74 35 -74 70z" />
    <glyph glyph-name="uni1E3E" unicode="&#x1e3e;" horiz-adv-x="841" 
d="M265 93v-93h-236v93l63 3l34 468l-73 3v93h255l116 -402l116 402h248v-93l-72 -3l34 -468l62 -3v-93h-239v93l60 3l-28 420l-119 -418h-134l-117 418l-29 -420zM465 858h108v-21l-103 -123h-88v17z" />
    <glyph glyph-name="Ntilde" unicode="&#xd1;" horiz-adv-x="731" 
d="M299 94v-94h-263v94l76 3v466l-76 3v94h224l255 -475v378l-65 3v94h252v-94l-71 -3v-563h-147l-256 479v-382zM333 755c-15 0 -24 -14 -24 -37v-6h-77v18c0 70 28 112 84 112c23 0 46 -11 66 -21c19 -10 32 -17 46 -17s23 13 23 37v6h77v-20c0 -70 -31 -107 -85 -107
c-24 0 -42 6 -63 17c-20 11 -33 18 -47 18z" />
    <glyph glyph-name="Nacute" unicode="&#x143;" horiz-adv-x="731" 
d="M399 858h108v-21l-103 -123h-88v17zM299 94v-94h-263v94l76 3v466l-76 3v94h224l255 -475v378l-65 3v94h252v-94l-71 -3v-563h-147l-256 479v-382z" />
    <glyph glyph-name="Ncaron" unicode="&#x147;" horiz-adv-x="731" 
d="M415 714h-101l-96 123v21h87l59 -73l62 73h85v-21zM299 94v-94h-263v94l76 3v466l-76 3v94h224l255 -475v378l-65 3v94h252v-94l-71 -3v-563h-147l-256 479v-382z" />
    <glyph glyph-name="Ncommaaccent" unicode="&#x145;" horiz-adv-x="731" 
d="M304 -52h90c6 -18 8 -37 8 -59c0 -50 -14 -98 -57 -148l-78 33c29 40 43 83 43 118c0 20 -3 38 -6 56zM299 94v-94h-263v94l76 3v466l-76 3v94h224l255 -475v378l-65 3v94h252v-94l-71 -3v-563h-147l-256 479v-382z" />
    <glyph glyph-name="uni01F8" unicode="&#x1f8;" horiz-adv-x="731" 
d="M299 94v-94h-263v94l76 3v466l-76 3v94h224l255 -475v378l-65 3v94h252v-94l-71 -3v-563h-147l-256 479v-382zM216 858h107l82 -127v-17h-87l-102 123v21z" />
    <glyph glyph-name="uni1E48" unicode="&#x1e48;" horiz-adv-x="731" 
d="M299 94v-94h-263v94l76 3v466l-76 3v94h224l255 -475v378l-65 3v94h252v-94l-71 -3v-563h-147l-256 479v-382zM226 -170v83h259v-83h-259z" />
    <glyph glyph-name="uni1E44" unicode="&#x1e44;" horiz-adv-x="731" 
d="M299 94v-94h-263v94l76 3v466l-76 3v94h224l255 -475v378l-65 3v94h252v-94l-71 -3v-563h-147l-256 479v-382zM291 792c0 38 27 72 74 72s75 -34 75 -72c0 -37 -29 -70 -75 -70c-47 0 -74 35 -74 70z" />
    <glyph glyph-name="uni004E0304" horiz-adv-x="731" 
d="M299 94v-94h-263v94l76 3v466l-76 3v94h224l255 -475v378l-65 3v94h252v-94l-71 -3v-563h-147l-256 479v-382zM233 738v84h269v-84h-269z" />
    <glyph glyph-name="Eng" unicode="&#x14a;" horiz-adv-x="731" 
d="M480 0l-252 479v-382l72 -3v-94h-264v94l76 3v466l-76 3v94h224l255 -481v384l-65 3v94h252v-94l-71 -3v-530c0 -144 -65 -213 -214 -213c-30 0 -57 4 -78 10v93c14 -3 40 -5 60 -5c69 0 104 18 109 82h-28z" />
    <glyph glyph-name="uni1E46" unicode="&#x1e46;" horiz-adv-x="731" 
d="M278 -134c0 38 27 72 74 72s75 -34 75 -72c0 -37 -29 -70 -75 -70c-47 0 -74 35 -74 70zM299 94v-94h-263v94l76 3v466l-76 3v94h224l255 -475v378l-65 3v94h252v-94l-71 -3v-563h-147l-256 479v-382z" />
    <glyph glyph-name="Ograve" unicode="&#xd2;" horiz-adv-x="653" 
d="M179 858h107l82 -127v-17h-87l-102 123v21zM323 -11c-186 0 -287 123 -287 335c0 218 101 347 295 347c189 0 286 -128 286 -338c0 -216 -102 -344 -294 -344zM327 96c102 0 157 73 157 233c0 161 -55 234 -157 234c-100 0 -159 -73 -159 -234c0 -160 57 -233 159 -233z
" />
    <glyph glyph-name="Odieresis" unicode="&#xd6;" horiz-adv-x="653" 
d="M164 788c0 36 27 65 68 65c43 0 70 -29 70 -65c0 -34 -27 -65 -70 -65c-41 0 -68 31 -68 65zM353 788c0 36 26 65 67 65c43 0 70 -29 70 -65c0 -34 -27 -65 -70 -65c-41 0 -67 31 -67 65zM323 -11c-186 0 -287 123 -287 335c0 218 101 347 295 347
c189 0 286 -128 286 -338c0 -216 -102 -344 -294 -344zM327 96c102 0 157 73 157 233c0 161 -55 234 -157 234c-100 0 -159 -73 -159 -234c0 -160 57 -233 159 -233z" />
    <glyph glyph-name="Otilde" unicode="&#xd5;" horiz-adv-x="653" 
d="M323 -11c-186 0 -287 123 -287 335c0 218 101 347 295 347c189 0 286 -128 286 -338c0 -216 -102 -344 -294 -344zM327 96c102 0 157 73 157 233c0 161 -55 234 -157 234c-100 0 -159 -73 -159 -234c0 -160 57 -233 159 -233zM283 755c-15 0 -24 -14 -24 -37v-6h-77v18
c0 70 28 112 84 112c23 0 46 -11 66 -21c19 -10 32 -17 46 -17s23 13 23 37v6h77v-20c0 -70 -31 -107 -85 -107c-24 0 -42 6 -63 17c-20 11 -33 18 -47 18z" />
    <glyph glyph-name="Obreve" unicode="&#x14e;" horiz-adv-x="653" 
d="M328 718c-90 0 -146 46 -146 123v5h85c3 -38 24 -55 61 -55c38 0 59 17 61 55h85v-5c0 -76 -55 -123 -146 -123zM323 -11c-186 0 -287 123 -287 335c0 218 101 347 295 347c189 0 286 -128 286 -338c0 -216 -102 -344 -294 -344zM327 96c102 0 157 73 157 233
c0 161 -55 234 -157 234c-100 0 -159 -73 -159 -234c0 -160 57 -233 159 -233z" />
    <glyph glyph-name="Oacute" unicode="&#xd3;" horiz-adv-x="653" 
d="M367 858h108v-21l-103 -123h-88v17zM323 -11c-186 0 -287 123 -287 335c0 218 101 347 295 347c189 0 286 -128 286 -338c0 -216 -102 -344 -294 -344zM327 96c102 0 157 73 157 233c0 161 -55 234 -157 234c-100 0 -159 -73 -159 -234c0 -160 57 -233 159 -233z" />
    <glyph glyph-name="Ocircumflex" unicode="&#xd4;" horiz-adv-x="653" 
d="M323 -11c-186 0 -287 123 -287 335c0 218 101 347 295 347c189 0 286 -128 286 -338c0 -216 -102 -344 -294 -344zM327 96c102 0 157 73 157 233c0 161 -55 234 -157 234c-100 0 -159 -73 -159 -234c0 -160 57 -233 159 -233zM268 714h-87v21l96 123h101l96 -123v-21h-85
l-62 74z" />
    <glyph glyph-name="Ohungarumlaut" unicode="&#x150;" horiz-adv-x="653" 
d="M323 -11c-186 0 -287 123 -287 335c0 218 101 347 295 347c189 0 286 -128 286 -338c0 -216 -102 -344 -294 -344zM327 96c102 0 157 73 157 233c0 161 -55 234 -157 234c-100 0 -159 -73 -159 -234c0 -160 57 -233 159 -233zM252 858h93v-21l-57 -123h-75v17zM406 858
h92v-21l-81 -123h-75v17z" />
    <glyph glyph-name="Omacron" unicode="&#x14c;" horiz-adv-x="653" 
d="M193 738v84h269v-84h-269zM323 -11c-186 0 -287 123 -287 335c0 218 101 347 295 347c189 0 286 -128 286 -338c0 -216 -102 -344 -294 -344zM327 96c102 0 157 73 157 233c0 161 -55 234 -157 234c-100 0 -159 -73 -159 -234c0 -160 57 -233 159 -233z" />
    <glyph glyph-name="Oslash" unicode="&#xd8;" horiz-adv-x="655" 
d="M170 329c0 -56 9 -102 23 -137l232 341c-25 21 -57 30 -97 30c-99 0 -158 -73 -158 -234zM328 96c103 0 158 73 158 233c0 58 -8 105 -24 140l-231 -342c24 -21 56 -31 97 -31zM325 -11c-64 0 -118 14 -162 42l-52 -76h-71v16l72 105c-49 57 -75 141 -75 248
c0 218 102 347 296 347c63 0 117 -14 159 -41l52 75h71v-16l-72 -105c50 -58 76 -144 76 -251c0 -216 -102 -344 -294 -344z" />
    <glyph glyph-name="Oslashacute" unicode="&#x1fe;" horiz-adv-x="655" 
d="M363 858h108v-21l-103 -123h-88v17zM170 329c0 -56 9 -102 23 -137l232 341c-25 21 -57 30 -97 30c-99 0 -158 -73 -158 -234zM328 96c103 0 158 73 158 233c0 58 -8 105 -24 140l-231 -342c24 -21 56 -31 97 -31zM325 -11c-64 0 -118 14 -162 42l-52 -76h-71v16l72 105
c-49 57 -75 141 -75 248c0 218 102 347 296 347c63 0 117 -14 159 -41l52 75h71v-16l-72 -105c50 -58 76 -144 76 -251c0 -216 -102 -344 -294 -344z" />
    <glyph glyph-name="uni01D1" unicode="&#x1d1;" horiz-adv-x="653" 
d="M323 -11c-186 0 -287 123 -287 335c0 218 101 347 295 347c189 0 286 -128 286 -338c0 -216 -102 -344 -294 -344zM327 96c102 0 157 73 157 233c0 161 -55 234 -157 234c-100 0 -159 -73 -159 -234c0 -160 57 -233 159 -233zM371 714h-101l-96 123v21h87l59 -73l62 73
h85v-21z" />
    <glyph glyph-name="uni01EA" unicode="&#x1ea;" horiz-adv-x="653" 
d="M346 -241c-70 0 -120 40 -120 101c0 49 24 93 83 129c-177 7 -273 128 -273 335c0 218 102 347 295 347c190 0 286 -130 286 -337c0 -174 -58 -263 -173 -323c-91 -50 -123 -87 -123 -126c0 -31 19 -46 50 -46c20 0 38 4 56 13v-76c-18 -11 -52 -17 -81 -17zM168 329
c0 -160 58 -233 159 -233c102 0 157 73 157 233c0 161 -55 234 -157 234c-99 0 -159 -73 -159 -234z" />
    <glyph glyph-name="uni01EC" unicode="&#x1ec;" horiz-adv-x="653" 
d="M193 738v84h269v-84h-269zM346 -241c-70 0 -120 40 -120 101c0 49 24 93 83 129c-177 7 -273 128 -273 335c0 218 102 347 295 347c190 0 286 -130 286 -337c0 -174 -58 -263 -173 -323c-91 -50 -123 -87 -123 -126c0 -31 19 -46 50 -46c20 0 38 4 56 13v-76
c-18 -11 -52 -17 -81 -17zM168 329c0 -160 58 -233 159 -233c102 0 157 73 157 233c0 161 -55 234 -157 234c-99 0 -159 -73 -159 -234z" />
    <glyph glyph-name="uni022E" unicode="&#x22e;" horiz-adv-x="653" 
d="M323 -11c-186 0 -287 123 -287 335c0 218 101 347 295 347c189 0 286 -128 286 -338c0 -216 -102 -344 -294 -344zM327 96c102 0 157 73 157 233c0 161 -55 234 -157 234c-100 0 -159 -73 -159 -234c0 -160 57 -233 159 -233zM252 792c0 38 27 72 74 72s75 -34 75 -72
c0 -37 -29 -70 -75 -70c-47 0 -74 35 -74 70z" />
    <glyph glyph-name="Ohorn" unicode="&#x1a0;" horiz-adv-x="692" 
d="M323 -11c-186 0 -287 123 -287 335c0 218 101 347 295 347c80 0 144 -23 191 -66c39 3 55 27 55 69c0 17 -3 40 -7 56h92c8 -18 13 -51 13 -76c0 -70 -34 -115 -95 -131c25 -50 37 -114 37 -190c0 -216 -102 -344 -294 -344zM327 96c102 0 157 73 157 233
c0 161 -55 234 -157 234c-100 0 -159 -73 -159 -234c0 -160 57 -233 159 -233z" />
    <glyph glyph-name="uni1ED2" unicode="&#x1ed2;" horiz-adv-x="653" 
d="M323 -11c-186 0 -287 123 -287 335c0 218 101 347 295 347c189 0 286 -128 286 -338c0 -216 -102 -344 -294 -344zM327 96c102 0 157 73 157 233c0 161 -55 234 -157 234c-100 0 -159 -73 -159 -234c0 -160 57 -233 159 -233zM367 929h98l72 -112v-17h-80l-90 108v21z
M269 714h-88v21l100 111h95l100 -111v-21h-88l-61 64z" />
    <glyph glyph-name="uni1ED0" unicode="&#x1ed0;" horiz-adv-x="653" 
d="M323 -11c-186 0 -287 123 -287 335c0 218 101 347 295 347c189 0 286 -128 286 -338c0 -216 -102 -344 -294 -344zM327 96c102 0 157 73 157 233c0 161 -55 234 -157 234c-100 0 -159 -73 -159 -234c0 -160 57 -233 159 -233zM508 929h98v-21l-90 -108h-80v17zM269 714
h-88v21l100 111h95l100 -111v-21h-88l-61 64z" />
    <glyph glyph-name="uni1ED6" unicode="&#x1ed6;" horiz-adv-x="653" 
d="M323 -11c-186 0 -287 123 -287 335c0 218 101 347 295 347c189 0 286 -128 286 -338c0 -216 -102 -344 -294 -344zM327 96c102 0 157 73 157 233c0 161 -55 234 -157 234c-100 0 -159 -73 -159 -234c0 -160 57 -233 159 -233zM290 897c-14 0 -19 -8 -19 -26v-2h-74v10
c0 59 23 95 74 95c18 0 35 -5 50 -11c17 -6 32 -13 45 -13s19 5 19 27v1h73v-9c0 -65 -25 -95 -73 -95c-19 0 -41 6 -58 13c-15 5 -27 10 -37 10zM269 714h-88v21l100 111h95l100 -111v-21h-88l-61 64z" />
    <glyph glyph-name="uni1ED4" unicode="&#x1ed4;" horiz-adv-x="653" 
d="M323 -11c-186 0 -287 123 -287 335c0 218 101 347 295 347c189 0 286 -128 286 -338c0 -216 -102 -344 -294 -344zM327 96c102 0 157 73 157 233c0 161 -55 234 -157 234c-100 0 -159 -73 -159 -234c0 -160 57 -233 159 -233zM423 829c38 21 53 40 53 60
c0 19 -12 30 -34 30c-13 0 -26 -3 -38 -8v62c17 9 33 14 60 14c52 0 91 -35 91 -86c0 -44 -30 -86 -92 -120zM269 714h-88v21l100 111h95l100 -111v-21h-88l-61 64z" />
    <glyph glyph-name="uni1ED8" unicode="&#x1ed8;" horiz-adv-x="653" 
d="M323 -11c-186 0 -287 123 -287 335c0 218 101 347 295 347c189 0 286 -128 286 -338c0 -216 -102 -344 -294 -344zM327 96c102 0 157 73 157 233c0 161 -55 234 -157 234c-100 0 -159 -73 -159 -234c0 -160 57 -233 159 -233zM268 714h-87v21l96 123h101l96 -123v-21h-85
l-62 74zM253 -134c0 38 27 72 74 72s75 -34 75 -72c0 -37 -29 -70 -75 -70c-47 0 -74 35 -74 70z" />
    <glyph glyph-name="uni1ECE" unicode="&#x1ece;" horiz-adv-x="653" 
d="M323 -11c-186 0 -287 123 -287 335c0 218 101 347 295 347c189 0 286 -128 286 -338c0 -216 -102 -344 -294 -344zM327 96c102 0 157 73 157 233c0 161 -55 234 -157 234c-100 0 -159 -73 -159 -234c0 -160 57 -233 159 -233zM257 744c42 24 68 48 68 72
c0 23 -16 38 -41 38c-15 0 -31 -5 -46 -11v68c20 10 39 16 69 16c61 0 105 -40 105 -97c0 -54 -35 -98 -107 -137z" />
    <glyph glyph-name="uni1ECC" unicode="&#x1ecc;" horiz-adv-x="653" 
d="M323 -11c-186 0 -287 123 -287 335c0 218 101 347 295 347c189 0 286 -128 286 -338c0 -216 -102 -344 -294 -344zM327 96c102 0 157 73 157 233c0 161 -55 234 -157 234c-100 0 -159 -73 -159 -234c0 -160 57 -233 159 -233zM253 -134c0 38 27 72 74 72s75 -34 75 -72
c0 -37 -29 -70 -75 -70c-47 0 -74 35 -74 70z" />
    <glyph glyph-name="uni1EDC" unicode="&#x1edc;" horiz-adv-x="692" 
d="M178 858h107l82 -127v-17h-87l-102 123v21zM323 -11c-186 0 -287 123 -287 335c0 218 101 347 295 347c80 0 144 -23 191 -66c39 3 55 27 55 69c0 17 -3 40 -7 56h92c8 -18 13 -51 13 -76c0 -70 -34 -115 -95 -131c25 -50 37 -114 37 -190c0 -216 -102 -344 -294 -344z
M327 96c102 0 157 73 157 233c0 161 -55 234 -157 234c-100 0 -159 -73 -159 -234c0 -160 57 -233 159 -233z" />
    <glyph glyph-name="uni1EDA" unicode="&#x1eda;" horiz-adv-x="692" 
d="M323 -11c-186 0 -287 123 -287 335c0 218 101 347 295 347c80 0 144 -23 191 -66c39 3 55 27 55 69c0 17 -3 40 -7 56h92c8 -18 13 -51 13 -76c0 -70 -34 -115 -95 -131c25 -50 37 -114 37 -190c0 -216 -102 -344 -294 -344zM327 96c102 0 157 73 157 233
c0 161 -55 234 -157 234c-100 0 -159 -73 -159 -234c0 -160 57 -233 159 -233zM367 858h108v-21l-103 -123h-88v17z" />
    <glyph glyph-name="uni1EE0" unicode="&#x1ee0;" horiz-adv-x="692" 
d="M323 -11c-186 0 -287 123 -287 335c0 218 101 347 295 347c80 0 144 -23 191 -66c39 3 55 27 55 69c0 17 -3 40 -7 56h92c8 -18 13 -51 13 -76c0 -70 -34 -115 -95 -131c25 -50 37 -114 37 -190c0 -216 -102 -344 -294 -344zM327 96c102 0 157 73 157 233
c0 161 -55 234 -157 234c-100 0 -159 -73 -159 -234c0 -160 57 -233 159 -233zM283 755c-15 0 -24 -14 -24 -37v-6h-77v18c0 70 28 112 84 112c23 0 46 -11 66 -21c19 -10 32 -17 46 -17s23 13 23 37v6h77v-20c0 -70 -31 -107 -85 -107c-24 0 -42 6 -63 17
c-20 11 -33 18 -47 18z" />
    <glyph glyph-name="uni1EDE" unicode="&#x1ede;" horiz-adv-x="692" 
d="M323 -11c-186 0 -287 123 -287 335c0 218 101 347 295 347c80 0 144 -23 191 -66c39 3 55 27 55 69c0 17 -3 40 -7 56h92c8 -18 13 -51 13 -76c0 -70 -34 -115 -95 -131c25 -50 37 -114 37 -190c0 -216 -102 -344 -294 -344zM327 96c102 0 157 73 157 233
c0 161 -55 234 -157 234c-100 0 -159 -73 -159 -234c0 -160 57 -233 159 -233zM265 744c42 24 68 48 68 72c0 23 -16 38 -41 38c-15 0 -31 -5 -46 -11v68c20 10 39 16 69 16c61 0 105 -40 105 -97c0 -54 -35 -98 -107 -137z" />
    <glyph glyph-name="uni1EE2" unicode="&#x1ee2;" horiz-adv-x="692" 
d="M323 -11c-186 0 -287 123 -287 335c0 218 101 347 295 347c80 0 144 -23 191 -66c39 3 55 27 55 69c0 17 -3 40 -7 56h92c8 -18 13 -51 13 -76c0 -70 -34 -115 -95 -131c25 -50 37 -114 37 -190c0 -216 -102 -344 -294 -344zM327 96c102 0 157 73 157 233
c0 161 -55 234 -157 234c-100 0 -159 -73 -159 -234c0 -160 57 -233 159 -233zM253 -134c0 38 27 72 74 72s75 -34 75 -72c0 -37 -29 -70 -75 -70c-47 0 -74 35 -74 70z" />
    <glyph glyph-name="uni1E56" unicode="&#x1e56;" horiz-adv-x="598" 
d="M299 556h-57v-233h60c93 0 139 45 139 120c0 74 -50 113 -142 113zM339 94v-94h-303v94l76 3v466l-76 3v94h280c177 0 255 -81 255 -214c0 -135 -87 -225 -255 -225h-74v-124zM231 792c0 38 27 72 74 72s75 -34 75 -72c0 -37 -29 -70 -75 -70c-47 0 -74 35 -74 70z" />
    <glyph glyph-name="uni00500304" horiz-adv-x="598" 
d="M299 556h-57v-233h60c93 0 139 45 139 120c0 74 -50 113 -142 113zM339 94v-94h-303v94l76 3v466l-76 3v94h280c177 0 255 -81 255 -214c0 -135 -87 -225 -255 -225h-74v-124zM174 738v84h269v-84h-269z" />
    <glyph glyph-name="Racute" unicode="&#x154;" horiz-adv-x="637" 
d="M241 556v-227h128c41 36 62 80 62 124c0 66 -39 103 -137 103h-53zM306 93v-93h-270v93l76 3v468l-76 3v93h284c164 0 244 -73 244 -188c0 -74 -37 -137 -111 -186l126 -190l46 -3v-93h-137l-143 230h-104v-134zM339 858h108v-21l-103 -123h-88v17z" />
    <glyph glyph-name="Rcaron" unicode="&#x158;" horiz-adv-x="637" 
d="M355 714h-101l-96 123v21h87l59 -73l62 73h85v-21zM241 556v-227h128c41 36 62 80 62 124c0 66 -39 103 -137 103h-53zM306 93v-93h-270v93l76 3v468l-76 3v93h284c164 0 244 -73 244 -188c0 -74 -37 -137 -111 -186l126 -190l46 -3v-93h-137l-143 230h-104v-134z" />
    <glyph glyph-name="uni00520300" horiz-adv-x="637" 
d="M241 556v-227h128c41 36 62 80 62 124c0 66 -39 103 -137 103h-53zM306 93v-93h-270v93l76 3v468l-76 3v93h284c164 0 244 -73 244 -188c0 -74 -37 -137 -111 -186l126 -190l46 -3v-93h-137l-143 230h-104v-134zM144 858h107l82 -127v-17h-87l-102 123v21z" />
    <glyph glyph-name="Rcommaaccent" unicode="&#x156;" horiz-adv-x="637" 
d="M270 -52h90c6 -18 8 -37 8 -59c0 -50 -14 -98 -57 -148l-78 33c29 40 43 83 43 118c0 20 -3 38 -6 56zM241 556v-227h128c41 36 62 80 62 124c0 66 -39 103 -137 103h-53zM306 93v-93h-270v93l76 3v468l-76 3v93h284c164 0 244 -73 244 -188c0 -74 -37 -137 -111 -186
l126 -190l46 -3v-93h-137l-143 230h-104v-134z" />
    <glyph glyph-name="uni1E5E" unicode="&#x1e5e;" horiz-adv-x="637" 
d="M241 556v-227h128c41 36 62 80 62 124c0 66 -39 103 -137 103h-53zM306 93v-93h-270v93l76 3v468l-76 3v93h284c164 0 244 -73 244 -188c0 -74 -37 -137 -111 -186l126 -190l46 -3v-93h-137l-143 230h-104v-134zM186 -170v83h259v-83h-259z" />
    <glyph glyph-name="uni1E5A" unicode="&#x1e5a;" horiz-adv-x="637" 
d="M241 556v-227h128c41 36 62 80 62 124c0 66 -39 103 -137 103h-53zM306 93v-93h-270v93l76 3v468l-76 3v93h284c164 0 244 -73 244 -188c0 -74 -37 -137 -111 -186l126 -190l46 -3v-93h-137l-143 230h-104v-134zM237 -134c0 38 27 72 74 72s75 -34 75 -72
c0 -37 -29 -70 -75 -70c-47 0 -74 35 -74 70z" />
    <glyph glyph-name="uni1E5C" unicode="&#x1e5c;" horiz-adv-x="637" 
d="M241 556v-227h128c41 36 62 80 62 124c0 66 -39 103 -137 103h-53zM306 93v-93h-270v93l76 3v468l-76 3v93h284c164 0 244 -73 244 -188c0 -74 -37 -137 -111 -186l126 -190l46 -3v-93h-137l-143 230h-104v-134zM237 -134c0 38 27 72 74 72s75 -34 75 -72
c0 -37 -29 -70 -75 -70c-47 0 -74 35 -74 70zM179 738v84h269v-84h-269z" />
    <glyph glyph-name="uni00520325" horiz-adv-x="637" 
d="M241 556v-227h128c41 36 62 80 62 124c0 66 -39 103 -137 103h-53zM306 93v-93h-270v93l76 3v468l-76 3v93h284c164 0 244 -73 244 -188c0 -74 -37 -137 -111 -186l126 -190l46 -3v-93h-137l-143 230h-104v-134zM225 -137c0 50 41 91 91 91s91 -41 91 -91
c0 -51 -41 -91 -91 -91s-91 40 -91 91zM275 -137c0 -23 18 -43 41 -43s41 18 41 43c0 24 -17 42 -41 42c-25 0 -41 -19 -41 -42z" />
    <glyph glyph-name="uni005203250304" horiz-adv-x="637" 
d="M225 -137c0 50 41 91 91 91s91 -41 91 -91c0 -51 -41 -91 -91 -91s-91 40 -91 91zM275 -137c0 -23 18 -43 41 -43s41 18 41 43c0 24 -17 42 -41 42c-25 0 -41 -19 -41 -42zM241 556v-227h128c41 36 62 80 62 124c0 66 -39 103 -137 103h-53zM306 93v-93h-270v93l76 3v468
l-76 3v93h284c164 0 244 -73 244 -188c0 -74 -37 -137 -111 -186l126 -190l46 -3v-93h-137l-143 230h-104v-134zM179 738v84h269v-84h-269z" />
    <glyph glyph-name="uni1E58" unicode="&#x1e58;" horiz-adv-x="637" 
d="M241 556v-227h128c41 36 62 80 62 124c0 66 -39 103 -137 103h-53zM306 93v-93h-270v93l76 3v468l-76 3v93h284c164 0 244 -73 244 -188c0 -74 -37 -137 -111 -186l126 -190l46 -3v-93h-137l-143 230h-104v-134zM241 792c0 38 27 72 74 72s75 -34 75 -72
c0 -37 -29 -70 -75 -70c-47 0 -74 35 -74 70z" />
    <glyph glyph-name="Sacute" unicode="&#x15a;" horiz-adv-x="533" 
d="M500 191c0 -118 -91 -201 -259 -201c-74 0 -148 11 -201 36v170h105l3 -90c29 -9 60 -12 95 -12c91 0 125 34 125 88c0 56 -55 78 -121 102c-110 34 -203 79 -203 201c0 111 81 186 238 186c73 0 143 -14 195 -37v-167h-105l-3 86c-29 8 -56 12 -89 12
c-77 0 -106 -29 -106 -75c0 -55 55 -71 121 -94c110 -36 205 -74 205 -205zM299 858h108v-21l-103 -123h-88v17z" />
    <glyph glyph-name="Scedilla" unicode="&#x15e;" horiz-adv-x="533" 
d="M254 -45c73 -2 112 -39 112 -92c0 -57 -47 -104 -126 -104c-34 0 -66 5 -89 15v66c23 -9 49 -15 76 -15c35 0 53 13 53 37c0 22 -19 36 -50 36c-13 0 -25 -2 -40 -5l-22 41l20 58c-55 4 -108 15 -148 34v170h105l3 -90c29 -9 60 -12 95 -12c91 0 125 34 125 88
c0 56 -55 78 -121 102c-110 34 -203 79 -203 201c0 111 81 186 238 186c73 0 143 -14 195 -37v-167h-105l-3 86c-29 8 -56 12 -89 12c-77 0 -106 -29 -106 -75c0 -55 55 -71 121 -94c110 -36 205 -74 205 -205c0 -112 -82 -192 -234 -200l-13 -36h1z" />
    <glyph glyph-name="Scaron" unicode="&#x160;" horiz-adv-x="533" 
d="M500 191c0 -118 -91 -201 -259 -201c-74 0 -148 11 -201 36v170h105l3 -90c29 -9 60 -12 95 -12c91 0 125 34 125 88c0 56 -55 78 -121 102c-110 34 -203 79 -203 201c0 111 81 186 238 186c73 0 143 -14 195 -37v-167h-105l-3 86c-29 8 -56 12 -89 12
c-77 0 -106 -29 -106 -75c0 -55 55 -71 121 -94c110 -36 205 -74 205 -205zM316 714h-101l-96 123v21h87l59 -73l62 73h85v-21z" />
    <glyph glyph-name="Scircumflex" unicode="&#x15c;" horiz-adv-x="533" 
d="M500 191c0 -118 -91 -201 -259 -201c-74 0 -148 11 -201 36v170h105l3 -90c29 -9 60 -12 95 -12c91 0 125 34 125 88c0 56 -55 78 -121 102c-110 34 -203 79 -203 201c0 111 81 186 238 186c73 0 143 -14 195 -37v-167h-105l-3 86c-29 8 -56 12 -89 12
c-77 0 -106 -29 -106 -75c0 -55 55 -71 121 -94c110 -36 205 -74 205 -205zM205 714h-87v21l96 123h101l96 -123v-21h-85l-62 74z" />
    <glyph glyph-name="Scommaaccent" unicode="&#x218;" horiz-adv-x="533" 
d="M200 -52h90c6 -18 8 -37 8 -59c0 -50 -14 -98 -57 -148l-78 33c29 40 43 83 43 118c0 20 -3 38 -6 56zM500 191c0 -118 -91 -201 -259 -201c-74 0 -148 11 -201 36v170h105l3 -90c29 -9 60 -12 95 -12c91 0 125 34 125 88c0 56 -55 78 -121 102c-110 34 -203 79 -203 201
c0 111 81 186 238 186c73 0 143 -14 195 -37v-167h-105l-3 86c-29 8 -56 12 -89 12c-77 0 -106 -29 -106 -75c0 -55 55 -71 121 -94c110 -36 205 -74 205 -205z" />
    <glyph glyph-name="uni00530331" horiz-adv-x="533" 
d="M500 191c0 -118 -91 -201 -259 -201c-74 0 -148 11 -201 36v170h105l3 -90c29 -9 60 -12 95 -12c91 0 125 34 125 88c0 56 -55 78 -121 102c-110 34 -203 79 -203 201c0 111 81 186 238 186c73 0 143 -14 195 -37v-167h-105l-3 86c-29 8 -56 12 -89 12
c-77 0 -106 -29 -106 -75c0 -55 55 -71 121 -94c110 -36 205 -74 205 -205zM126 -170v83h259v-83h-259z" />
    <glyph glyph-name="uni00530300" horiz-adv-x="533" 
d="M500 191c0 -118 -91 -201 -259 -201c-74 0 -148 11 -201 36v170h105l3 -90c29 -9 60 -12 95 -12c91 0 125 34 125 88c0 56 -55 78 -121 102c-110 34 -203 79 -203 201c0 111 81 186 238 186c73 0 143 -14 195 -37v-167h-105l-3 86c-29 8 -56 12 -89 12
c-77 0 -106 -29 -106 -75c0 -55 55 -71 121 -94c110 -36 205 -74 205 -205zM123 858h107l82 -127v-17h-87l-102 123v21z" />
    <glyph glyph-name="uni1E60" unicode="&#x1e60;" horiz-adv-x="533" 
d="M500 191c0 -118 -91 -201 -259 -201c-74 0 -148 11 -201 36v170h105l3 -90c29 -9 60 -12 95 -12c91 0 125 34 125 88c0 56 -55 78 -121 102c-110 34 -203 79 -203 201c0 111 81 186 238 186c73 0 143 -14 195 -37v-167h-105l-3 86c-29 8 -56 12 -89 12
c-77 0 -106 -29 -106 -75c0 -55 55 -71 121 -94c110 -36 205 -74 205 -205zM188 792c0 38 27 72 74 72s75 -34 75 -72c0 -37 -29 -70 -75 -70c-47 0 -74 35 -74 70z" />
    <glyph glyph-name="uni00530306" horiz-adv-x="533" 
d="M500 191c0 -118 -91 -201 -259 -201c-74 0 -148 11 -201 36v170h105l3 -90c29 -9 60 -12 95 -12c91 0 125 34 125 88c0 56 -55 78 -121 102c-110 34 -203 79 -203 201c0 111 81 186 238 186c73 0 143 -14 195 -37v-167h-105l-3 86c-29 8 -56 12 -89 12
c-77 0 -106 -29 -106 -75c0 -55 55 -71 121 -94c110 -36 205 -74 205 -205zM261 718c-90 0 -146 46 -146 123v5h85c3 -38 24 -55 61 -55c38 0 59 17 61 55h85v-5c0 -76 -55 -123 -146 -123z" />
    <glyph glyph-name="uni1E62" unicode="&#x1e62;" horiz-adv-x="533" 
d="M177 -134c0 38 27 72 74 72s75 -34 75 -72c0 -37 -29 -70 -75 -70c-47 0 -74 35 -74 70zM500 191c0 -118 -91 -201 -259 -201c-74 0 -148 11 -201 36v170h105l3 -90c29 -9 60 -12 95 -12c91 0 125 34 125 88c0 56 -55 78 -121 102c-110 34 -203 79 -203 201
c0 111 81 186 238 186c73 0 143 -14 195 -37v-167h-105l-3 86c-29 8 -56 12 -89 12c-77 0 -106 -29 -106 -75c0 -55 55 -71 121 -94c110 -36 205 -74 205 -205z" />
    <glyph glyph-name="Tbar" unicode="&#x166;" horiz-adv-x="617" 
d="M122 278v83h121v195h-113l-3 -94h-103v198h568v-198h-102l-3 94h-115v-195h124v-83h-124v-182l86 -3v-93h-299v93l84 3v182h-121z" />
    <glyph glyph-name="Tcaron" unicode="&#x164;" horiz-adv-x="614" 
d="M356 714h-101l-96 123v21h87l59 -73l62 73h85v-21zM457 93v-93h-299v93l84 3v460h-113l-3 -94h-103v198h568v-198h-102l-3 94h-115v-460z" />
    <glyph glyph-name="Tcommaaccent" unicode="&#x162;" horiz-adv-x="614" 
d="M257 -52h90c6 -18 8 -37 8 -59c0 -50 -14 -98 -57 -148l-78 33c29 40 43 83 43 118c0 20 -3 38 -6 56zM457 93v-93h-299v93l84 3v460h-113l-3 -94h-103v198h568v-198h-102l-3 94h-115v-460z" />
    <glyph glyph-name="uni021A" unicode="&#x21a;" horiz-adv-x="614" 
d="M257 -52h90c6 -18 8 -37 8 -59c0 -50 -14 -98 -57 -148l-78 33c29 40 43 83 43 118c0 20 -3 38 -6 56zM457 93v-93h-299v93l84 3v460h-113l-3 -94h-103v198h568v-198h-102l-3 94h-115v-460z" />
    <glyph glyph-name="uni1E6E" unicode="&#x1e6e;" horiz-adv-x="614" 
d="M457 93v-93h-299v93l84 3v460h-113l-3 -94h-103v198h568v-198h-102l-3 94h-115v-460zM178 -170v83h259v-83h-259z" />
    <glyph glyph-name="uni1E6C" unicode="&#x1e6c;" horiz-adv-x="614" 
d="M457 93v-93h-299v93l84 3v460h-113l-3 -94h-103v198h568v-198h-102l-3 94h-115v-460zM232 -134c0 38 27 72 74 72s75 -34 75 -72c0 -37 -29 -70 -75 -70c-47 0 -74 35 -74 70z" />
    <glyph glyph-name="uni00540308" horiz-adv-x="614" 
d="M457 93v-93h-299v93l84 3v460h-113l-3 -94h-103v198h568v-198h-102l-3 94h-115v-460zM143 788c0 36 27 65 68 65c43 0 70 -29 70 -65c0 -34 -27 -65 -70 -65c-41 0 -68 31 -68 65zM332 788c0 36 26 65 67 65c43 0 70 -29 70 -65c0 -34 -27 -65 -70 -65
c-41 0 -67 31 -67 65z" />
    <glyph glyph-name="uni1E6A" unicode="&#x1e6a;" horiz-adv-x="614" 
d="M457 93v-93h-299v93l84 3v460h-113l-3 -94h-103v198h568v-198h-102l-3 94h-115v-460zM232 792c0 38 27 72 74 72s75 -34 75 -72c0 -37 -29 -70 -75 -70c-47 0 -74 35 -74 70z" />
    <glyph glyph-name="Uacute" unicode="&#xda;" horiz-adv-x="688" 
d="M380 858h108v-21l-103 -123h-88v17zM340 -11c-167 0 -250 89 -250 244v331l-61 3v93h261v-93l-71 -3v-322c0 -100 46 -143 125 -143c80 0 127 43 127 143v322l-70 3v93h259v-93l-62 -3v-331c0 -155 -93 -244 -258 -244z" />
    <glyph glyph-name="Ucircumflex" unicode="&#xdb;" horiz-adv-x="688" 
d="M340 -11c-167 0 -250 89 -250 244v331l-61 3v93h261v-93l-71 -3v-322c0 -100 46 -143 125 -143c80 0 127 43 127 143v322l-70 3v93h259v-93l-62 -3v-331c0 -155 -93 -244 -258 -244zM285 714h-87v21l96 123h101l96 -123v-21h-85l-62 74z" />
    <glyph glyph-name="Ugrave" unicode="&#xd9;" horiz-adv-x="688" 
d="M195 858h107l82 -127v-17h-87l-102 123v21zM340 -11c-167 0 -250 89 -250 244v331l-61 3v93h261v-93l-71 -3v-322c0 -100 46 -143 125 -143c80 0 127 43 127 143v322l-70 3v93h259v-93l-62 -3v-331c0 -155 -93 -244 -258 -244z" />
    <glyph glyph-name="Udieresis" unicode="&#xdc;" horiz-adv-x="688" 
d="M183 788c0 36 27 65 68 65c43 0 70 -29 70 -65c0 -34 -27 -65 -70 -65c-41 0 -68 31 -68 65zM372 788c0 36 26 65 67 65c43 0 70 -29 70 -65c0 -34 -27 -65 -70 -65c-41 0 -67 31 -67 65zM340 -11c-167 0 -250 89 -250 244v331l-61 3v93h261v-93l-71 -3v-322
c0 -100 46 -143 125 -143c80 0 127 43 127 143v322l-70 3v93h259v-93l-62 -3v-331c0 -155 -93 -244 -258 -244z" />
    <glyph glyph-name="Ubreve" unicode="&#x16c;" horiz-adv-x="688" 
d="M346 718c-90 0 -146 46 -146 123v5h85c3 -38 24 -55 61 -55c38 0 59 17 61 55h85v-5c0 -76 -55 -123 -146 -123zM340 -11c-167 0 -250 89 -250 244v331l-61 3v93h261v-93l-71 -3v-322c0 -100 46 -143 125 -143c80 0 127 43 127 143v322l-70 3v93h259v-93l-62 -3v-331
c0 -155 -93 -244 -258 -244z" />
    <glyph glyph-name="Uhungarumlaut" unicode="&#x170;" horiz-adv-x="688" 
d="M340 -11c-167 0 -250 89 -250 244v331l-61 3v93h261v-93l-71 -3v-322c0 -100 46 -143 125 -143c80 0 127 43 127 143v322l-70 3v93h259v-93l-62 -3v-331c0 -155 -93 -244 -258 -244zM284 858h93v-21l-57 -123h-75v17zM438 858h92v-21l-81 -123h-75v17z" />
    <glyph glyph-name="Umacron" unicode="&#x16a;" horiz-adv-x="688" 
d="M211 738v84h269v-84h-269zM340 -11c-167 0 -250 89 -250 244v331l-61 3v93h261v-93l-71 -3v-322c0 -100 46 -143 125 -143c80 0 127 43 127 143v322l-70 3v93h259v-93l-62 -3v-331c0 -155 -93 -244 -258 -244z" />
    <glyph glyph-name="Uogonek" unicode="&#x172;" horiz-adv-x="690" 
d="M387 -241c-70 0 -117 34 -117 99c0 48 29 91 90 134c-6 -2 -18 -3 -24 -3c-161 0 -245 88 -245 243v332l-62 3v93h261v-93l-70 -3v-322c0 -100 45 -143 125 -143c79 0 126 43 126 143v322l-70 3v93h259v-93l-61 -3v-334c0 -108 -43 -160 -118 -213
c-82 -59 -118 -93 -118 -132c0 -30 22 -46 53 -46c22 0 41 6 53 13v-76c-18 -11 -53 -17 -82 -17z" />
    <glyph glyph-name="Uring" unicode="&#x16e;" horiz-adv-x="688" 
d="M340 -11c-167 0 -250 89 -250 244v331l-61 3v93h261v-93l-71 -3v-322c0 -100 46 -143 125 -143c80 0 127 43 127 143v322l-70 3v93h259v-93l-62 -3v-331c0 -155 -93 -244 -258 -244zM250 799c0 54 43 97 96 97c54 0 96 -43 96 -97c0 -53 -42 -95 -96 -95
c-53 0 -96 41 -96 95zM305 799c0 -25 16 -44 41 -44s41 19 41 44s-16 44 -41 44s-41 -19 -41 -44z" />
    <glyph glyph-name="Utilde" unicode="&#x168;" horiz-adv-x="688" 
d="M340 -11c-167 0 -250 89 -250 244v331l-61 3v93h261v-93l-71 -3v-322c0 -100 46 -143 125 -143c80 0 127 43 127 143v322l-70 3v93h259v-93l-62 -3v-331c0 -155 -93 -244 -258 -244zM304 755c-15 0 -24 -14 -24 -37v-6h-77v18c0 70 28 112 84 112c23 0 46 -11 66 -21
c19 -10 32 -17 46 -17s23 13 23 37v6h77v-20c0 -70 -31 -107 -85 -107c-24 0 -42 6 -63 17c-20 11 -33 18 -47 18z" />
    <glyph glyph-name="Uhorn" unicode="&#x1af;" horiz-adv-x="701" 
d="M340 -11c-167 0 -250 89 -250 244v331l-61 3v93h261v-93l-71 -3v-322c0 -100 46 -143 125 -143c80 0 127 43 127 143v322l-70 3v93h155c58 0 78 21 78 71c0 18 -3 40 -7 56h91c8 -17 13 -51 13 -76c0 -83 -48 -132 -133 -140v-338c0 -155 -93 -244 -258 -244z" />
    <glyph glyph-name="uni1EE6" unicode="&#x1ee6;" horiz-adv-x="688" 
d="M340 -11c-167 0 -250 89 -250 244v331l-61 3v93h261v-93l-71 -3v-322c0 -100 46 -143 125 -143c80 0 127 43 127 143v322l-70 3v93h259v-93l-62 -3v-331c0 -155 -93 -244 -258 -244zM277 744c42 24 68 48 68 72c0 23 -16 38 -41 38c-15 0 -31 -5 -46 -11v68
c20 10 39 16 69 16c61 0 105 -40 105 -97c0 -54 -35 -98 -107 -137z" />
    <glyph glyph-name="uni1EE4" unicode="&#x1ee4;" horiz-adv-x="688" 
d="M340 -11c-167 0 -250 89 -250 244v331l-61 3v93h261v-93l-71 -3v-322c0 -100 46 -143 125 -143c80 0 127 43 127 143v322l-70 3v93h259v-93l-62 -3v-331c0 -155 -93 -244 -258 -244zM269 -134c0 38 27 71 74 71c48 0 75 -33 75 -71c0 -37 -28 -70 -75 -70s-74 34 -74 70z
" />
    <glyph glyph-name="uni1EEA" unicode="&#x1eea;" horiz-adv-x="701" 
d="M195 858h107l82 -127v-17h-87l-102 123v21zM340 -11c-167 0 -250 89 -250 244v331l-61 3v93h261v-93l-71 -3v-322c0 -100 46 -143 125 -143c80 0 127 43 127 143v322l-70 3v93h155c58 0 78 21 78 71c0 18 -3 40 -7 56h91c8 -17 13 -51 13 -76c0 -83 -48 -132 -133 -140
v-338c0 -155 -93 -244 -258 -244z" />
    <glyph glyph-name="uni1EE8" unicode="&#x1ee8;" horiz-adv-x="701" 
d="M380 858h108v-21l-103 -123h-88v17zM340 -11c-167 0 -250 89 -250 244v331l-61 3v93h261v-93l-71 -3v-322c0 -100 46 -143 125 -143c80 0 127 43 127 143v322l-70 3v93h155c58 0 78 21 78 71c0 18 -3 40 -7 56h91c8 -17 13 -51 13 -76c0 -83 -48 -132 -133 -140v-338
c0 -155 -93 -244 -258 -244z" />
    <glyph glyph-name="uni1EEE" unicode="&#x1eee;" horiz-adv-x="701" 
d="M340 -11c-167 0 -250 89 -250 244v331l-61 3v93h261v-93l-71 -3v-322c0 -100 46 -143 125 -143c80 0 127 43 127 143v322l-70 3v93h155c58 0 78 21 78 71c0 18 -3 40 -7 56h91c8 -17 13 -51 13 -76c0 -83 -48 -132 -133 -140v-338c0 -155 -93 -244 -258 -244zM302 755
c-15 0 -24 -14 -24 -37v-6h-77v18c0 70 28 112 84 112c23 0 46 -11 66 -21c19 -10 32 -17 46 -17s23 13 23 37v6h77v-20c0 -70 -31 -107 -85 -107c-24 0 -42 6 -63 17c-20 11 -33 18 -47 18z" />
    <glyph glyph-name="uni1EEC" unicode="&#x1eec;" horiz-adv-x="701" 
d="M277 744c42 24 68 48 68 72c0 23 -16 38 -41 38c-15 0 -31 -5 -46 -11v68c20 10 39 16 69 16c61 0 105 -40 105 -97c0 -54 -35 -98 -107 -137zM340 -11c-167 0 -250 89 -250 244v331l-61 3v93h261v-93l-71 -3v-322c0 -100 46 -143 125 -143c80 0 127 43 127 143v322
l-70 3v93h155c58 0 78 21 78 71c0 18 -3 40 -7 56h91c8 -17 13 -51 13 -76c0 -83 -48 -132 -133 -140v-338c0 -155 -93 -244 -258 -244z" />
    <glyph glyph-name="uni1EF0" unicode="&#x1ef0;" horiz-adv-x="701" 
d="M269 -134c0 38 27 71 74 71c48 0 75 -33 75 -71c0 -37 -28 -70 -75 -70s-74 34 -74 70zM340 -11c-167 0 -250 89 -250 244v331l-61 3v93h261v-93l-71 -3v-322c0 -100 46 -143 125 -143c80 0 127 43 127 143v322l-70 3v93h155c58 0 78 21 78 71c0 18 -3 40 -7 56h91
c8 -17 13 -51 13 -76c0 -83 -48 -132 -133 -140v-338c0 -155 -93 -244 -258 -244z" />
    <glyph glyph-name="uni01D3" unicode="&#x1d3;" horiz-adv-x="688" 
d="M394 714h-101l-96 123v21h87l59 -73l62 73h85v-21zM340 -11c-167 0 -250 89 -250 244v331l-61 3v93h261v-93l-71 -3v-322c0 -100 46 -143 125 -143c80 0 127 43 127 143v322l-70 3v93h259v-93l-62 -3v-331c0 -155 -93 -244 -258 -244z" />
    <glyph glyph-name="uni01D5" unicode="&#x1d5;" horiz-adv-x="688" 
d="M209 907v84h269v-84h-269zM181 788c0 36 27 65 68 65c43 0 70 -29 70 -65c0 -34 -27 -65 -70 -65c-41 0 -68 31 -68 65zM370 788c0 36 26 65 67 65c43 0 70 -29 70 -65c0 -34 -27 -65 -70 -65c-41 0 -67 31 -67 65zM340 -11c-167 0 -250 89 -250 244v331l-61 3v93h261
v-93l-71 -3v-322c0 -100 46 -143 125 -143c80 0 127 43 127 143v322l-70 3v93h259v-93l-62 -3v-331c0 -155 -93 -244 -258 -244z" />
    <glyph glyph-name="uni01D7" unicode="&#x1d7;" horiz-adv-x="688" 
d="M383 1036h108v-21l-103 -123h-88v17zM181 788c0 36 27 65 68 65c43 0 70 -29 70 -65c0 -34 -27 -65 -70 -65c-41 0 -68 31 -68 65zM370 788c0 36 26 65 67 65c43 0 70 -29 70 -65c0 -34 -27 -65 -70 -65c-41 0 -67 31 -67 65zM340 -11c-167 0 -250 89 -250 244v331l-61 3
v93h261v-93l-71 -3v-322c0 -100 46 -143 125 -143c80 0 127 43 127 143v322l-70 3v93h259v-93l-62 -3v-331c0 -155 -93 -244 -258 -244z" />
    <glyph glyph-name="uni01D9" unicode="&#x1d9;" horiz-adv-x="688" 
d="M394 891h-101l-96 123v21h87l59 -73l62 73h85v-21zM181 788c0 36 27 65 68 65c43 0 70 -29 70 -65c0 -34 -27 -65 -70 -65c-41 0 -68 31 -68 65zM370 788c0 36 26 65 67 65c43 0 70 -29 70 -65c0 -34 -27 -65 -70 -65c-41 0 -67 31 -67 65zM340 -11
c-167 0 -250 89 -250 244v331l-61 3v93h261v-93l-71 -3v-322c0 -100 46 -143 125 -143c80 0 127 43 127 143v322l-70 3v93h259v-93l-62 -3v-331c0 -155 -93 -244 -258 -244z" />
    <glyph glyph-name="uni01DB" unicode="&#x1db;" horiz-adv-x="688" 
d="M194 1035h107l82 -127v-17h-87l-102 123v21zM181 788c0 36 27 65 68 65c43 0 70 -29 70 -65c0 -34 -27 -65 -70 -65c-41 0 -68 31 -68 65zM370 788c0 36 26 65 67 65c43 0 70 -29 70 -65c0 -34 -27 -65 -70 -65c-41 0 -67 31 -67 65zM340 -11c-167 0 -250 89 -250 244
v331l-61 3v93h261v-93l-71 -3v-322c0 -100 46 -143 125 -143c80 0 127 43 127 143v322l-70 3v93h259v-93l-62 -3v-331c0 -155 -93 -244 -258 -244z" />
    <glyph glyph-name="uni1E7E" unicode="&#x1e7e;" horiz-adv-x="647" 
d="M403 0h-159l-181 564l-52 3v93h259v-93l-70 -3l129 -416l130 416l-65 3v93h242v-93l-52 -3zM250 -134c0 38 27 71 74 71c48 0 75 -33 75 -71c0 -37 -28 -70 -75 -70s-74 34 -74 70z" />
    <glyph glyph-name="uni1E7C" unicode="&#x1e7c;" horiz-adv-x="647" 
d="M403 0h-159l-181 564l-52 3v93h259v-93l-70 -3l129 -416l130 416l-65 3v93h242v-93l-52 -3zM286 755c-15 0 -24 -14 -24 -37v-6h-77v18c0 70 28 112 84 112c23 0 46 -11 66 -21c19 -10 32 -17 46 -17s23 13 23 37v6h77v-20c0 -70 -31 -107 -85 -107c-24 0 -42 6 -63 17
c-20 11 -33 18 -47 18z" />
    <glyph glyph-name="uni00560304" horiz-adv-x="647" 
d="M403 0h-159l-181 564l-52 3v93h259v-93l-70 -3l129 -416l130 416l-65 3v93h242v-93l-52 -3zM194 738v84h269v-84h-269z" />
    <glyph glyph-name="Wacute" unicode="&#x1e82;" horiz-adv-x="911" 
d="M498 858h108v-21l-103 -123h-88v17zM570 0l-115 469l-114 -469h-140l-132 564l-56 3v93h255v-93l-77 -3l89 -385l110 437h136l111 -438l89 387l-72 2v93h244v-93l-55 -3l-132 -564h-141z" />
    <glyph glyph-name="Wcircumflex" unicode="&#x174;" horiz-adv-x="911" 
d="M570 0l-115 469l-114 -469h-140l-132 564l-56 3v93h255v-93l-77 -3l89 -385l110 437h136l111 -438l89 387l-72 2v93h244v-93l-55 -3l-132 -564h-141zM398 714h-87v21l96 123h101l96 -123v-21h-85l-62 74z" />
    <glyph glyph-name="Wdieresis" unicode="&#x1e84;" horiz-adv-x="911" 
d="M295 788c0 36 27 65 68 65c43 0 70 -29 70 -65c0 -34 -27 -65 -70 -65c-41 0 -68 31 -68 65zM484 788c0 36 26 65 67 65c43 0 70 -29 70 -65c0 -34 -27 -65 -70 -65c-41 0 -67 31 -67 65zM570 0l-115 469l-114 -469h-140l-132 564l-56 3v93h255v-93l-77 -3l89 -385
l110 437h136l111 -438l89 387l-72 2v93h244v-93l-55 -3l-132 -564h-141z" />
    <glyph glyph-name="Wgrave" unicode="&#x1e80;" horiz-adv-x="911" 
d="M309 858h107l82 -127v-17h-87l-102 123v21zM570 0l-115 469l-114 -469h-140l-132 564l-56 3v93h255v-93l-77 -3l89 -385l110 437h136l111 -438l89 387l-72 2v93h244v-93l-55 -3l-132 -564h-141z" />
    <glyph glyph-name="uni1E86" unicode="&#x1e86;" horiz-adv-x="911" 
d="M570 0l-115 469l-114 -469h-140l-132 564l-56 3v93h255v-93l-77 -3l89 -385l110 437h136l111 -438l89 387l-72 2v93h244v-93l-55 -3l-132 -564h-141zM382 792c0 38 27 72 74 72s75 -34 75 -72c0 -37 -29 -70 -75 -70c-47 0 -74 35 -74 70z" />
    <glyph glyph-name="uni1E88" unicode="&#x1e88;" horiz-adv-x="911" 
d="M570 0l-115 469l-114 -469h-140l-132 564l-56 3v93h255v-93l-77 -3l89 -385l110 437h136l111 -438l89 387l-72 2v93h244v-93l-55 -3l-132 -564h-141zM383 -134c0 38 27 72 74 72s75 -34 75 -72c0 -37 -29 -70 -75 -70c-47 0 -74 35 -74 70z" />
    <glyph glyph-name="uni1E8A" unicode="&#x1e8a;" horiz-adv-x="628" 
d="M251 93v-93h-239v93l51 2l171 242l-158 228l-54 2v93h261v-93l-53 -2l93 -140l95 140l-51 2v93h238v-93l-50 -3l-159 -222l172 -247l47 -2v-93h-256v93l55 2l-107 161l-109 -161zM245 792c0 38 27 72 74 72s75 -34 75 -72c0 -37 -29 -70 -75 -70c-47 0 -74 35 -74 70z
" />
    <glyph glyph-name="uni00580304" horiz-adv-x="628" 
d="M251 93v-93h-239v93l51 2l171 242l-158 228l-54 2v93h261v-93l-53 -2l93 -140l95 140l-51 2v93h238v-93l-50 -3l-159 -222l172 -247l47 -2v-93h-256v93l55 2l-107 161l-109 -161zM186 738v84h269v-84h-269z" />
    <glyph glyph-name="Ydieresis" unicode="&#x178;" horiz-adv-x="643" 
d="M465 0h-288v93l80 3v157l-193 311l-53 3v93h265v-93l-57 -2l113 -189l114 189l-53 2v93h239v-93l-54 -3l-192 -311v-157l79 -3v-93zM168 788c0 36 27 65 68 65c43 0 70 -29 70 -65c0 -34 -27 -65 -70 -65c-41 0 -68 31 -68 65zM357 788c0 36 26 65 67 65
c43 0 70 -29 70 -65c0 -34 -27 -65 -70 -65c-41 0 -67 31 -67 65z" />
    <glyph glyph-name="Ycircumflex" unicode="&#x176;" horiz-adv-x="643" 
d="M465 0h-288v93l80 3v157l-193 311l-53 3v93h265v-93l-57 -2l113 -189l114 189l-53 2v93h239v-93l-54 -3l-192 -311v-157l79 -3v-93zM272 714h-87v21l96 123h101l96 -123v-21h-85l-62 74z" />
    <glyph glyph-name="Ygrave" unicode="&#x1ef2;" horiz-adv-x="643" 
d="M465 0h-288v93l80 3v157l-193 311l-53 3v93h265v-93l-57 -2l113 -189l114 189l-53 2v93h239v-93l-54 -3l-192 -311v-157l79 -3v-93zM181 858h107l82 -127v-17h-87l-102 123v21z" />
    <glyph glyph-name="Yacute" unicode="&#xdd;" horiz-adv-x="643" 
d="M465 0h-288v93l80 3v157l-193 311l-53 3v93h265v-93l-57 -2l113 -189l114 189l-53 2v93h239v-93l-54 -3l-192 -311v-157l79 -3v-93zM372 858h108v-21l-103 -123h-88v17z" />
    <glyph glyph-name="Ymacron" unicode="&#x232;" horiz-adv-x="643" 
d="M465 0h-288v93l80 3v157l-193 311l-53 3v93h265v-93l-57 -2l113 -189l114 189l-53 2v93h239v-93l-54 -3l-192 -311v-157l79 -3v-93zM197 738v84h269v-84h-269z" />
    <glyph glyph-name="uni1E8E" unicode="&#x1e8e;" horiz-adv-x="643" 
d="M465 0h-288v93l80 3v157l-193 311l-53 3v93h265v-93l-57 -2l113 -189l114 189l-53 2v93h239v-93l-54 -3l-192 -311v-157l79 -3v-93zM256 792c0 38 27 72 74 72s75 -34 75 -72c0 -37 -29 -70 -75 -70c-47 0 -74 35 -74 70z" />
    <glyph glyph-name="uni1EF8" unicode="&#x1ef8;" horiz-adv-x="643" 
d="M465 0h-288v93l80 3v157l-193 311l-53 3v93h265v-93l-57 -2l113 -189l114 189l-53 2v93h239v-93l-54 -3l-192 -311v-157l79 -3v-93zM286 755c-15 0 -24 -14 -24 -37v-6h-77v18c0 70 28 112 84 112c23 0 46 -11 66 -21c19 -10 32 -17 46 -17s23 13 23 37v6h77v-20
c0 -70 -31 -107 -85 -107c-24 0 -42 6 -63 17c-20 11 -33 18 -47 18z" />
    <glyph glyph-name="uni1EF6" unicode="&#x1ef6;" horiz-adv-x="643" 
d="M465 0h-288v93l80 3v157l-193 311l-53 3v93h265v-93l-57 -2l113 -189l114 189l-53 2v93h239v-93l-54 -3l-192 -311v-157l79 -3v-93zM265 744c42 24 68 48 68 72c0 23 -16 38 -41 38c-15 0 -31 -5 -46 -11v68c20 10 39 16 69 16c61 0 105 -40 105 -97
c0 -54 -35 -98 -107 -137z" />
    <glyph glyph-name="uni1EF4" unicode="&#x1ef4;" horiz-adv-x="643" 
d="M465 0h-288v93l80 3v157l-193 311l-53 3v93h265v-93l-57 -2l113 -189l114 189l-53 2v93h239v-93l-54 -3l-192 -311v-157l79 -3v-93zM245 -134c0 38 27 71 74 71c48 0 75 -33 75 -71c0 -37 -28 -70 -75 -70s-74 34 -74 70z" />
    <glyph glyph-name="Zacute" unicode="&#x179;" horiz-adv-x="555" 
d="M518 0h-490v91l329 465h-206l-3 -94h-104v198h476v-91l-330 -465h223l2 91h103v-195zM320 858h108v-21l-103 -123h-88v17z" />
    <glyph glyph-name="Zcaron" unicode="&#x17d;" horiz-adv-x="555" 
d="M338 714h-101l-96 123v21h87l59 -73l62 73h85v-21zM518 0h-490v91l329 465h-206l-3 -94h-104v198h476v-91l-330 -465h223l2 91h103v-195z" />
    <glyph glyph-name="Zdotaccent" unicode="&#x17b;" horiz-adv-x="555" 
d="M209 792c0 38 27 72 74 72s75 -34 75 -72c0 -37 -29 -70 -75 -70c-47 0 -74 35 -74 70zM518 0h-490v91l329 465h-206l-3 -94h-104v198h476v-91l-330 -465h223l2 91h103v-195z" />
    <glyph glyph-name="uni1E94" unicode="&#x1e94;" horiz-adv-x="555" 
d="M518 0h-490v91l329 465h-206l-3 -94h-104v198h476v-91l-330 -465h223l2 91h103v-195zM153 -170v83h259v-83h-259z" />
    <glyph glyph-name="uni1E92" unicode="&#x1e92;" horiz-adv-x="555" 
d="M518 0h-490v91l329 465h-206l-3 -94h-104v198h476v-91l-330 -465h223l2 91h103v-195zM205 -134c0 38 27 71 74 71c48 0 75 -33 75 -71c0 -37 -28 -70 -75 -70s-74 34 -74 70z" />
    <glyph glyph-name="uni005A0324" horiz-adv-x="555" 
d="M518 0h-490v91l329 465h-206l-3 -94h-104v198h476v-91l-330 -465h223l2 91h103v-195zM120 -134c0 36 27 66 68 66c42 0 69 -30 69 -66c0 -34 -27 -65 -69 -65c-41 0 -68 31 -68 65zM306 -134c0 36 26 66 68 66s69 -30 69 -66c0 -34 -27 -65 -69 -65s-68 31 -68 65z" />
    <glyph glyph-name="uni018F" unicode="&#x18f;" horiz-adv-x="601" 
d="M283 -11c-163 0 -250 93 -250 260c0 34 2 67 7 97h392v8c-5 141 -63 206 -203 206c-62 0 -123 -14 -172 -34v109c40 20 108 36 193 36c217 0 315 -110 315 -340c0 -217 -101 -342 -282 -342zM286 86c78 0 130 53 144 166h-272v-13c0 -102 49 -153 128 -153z" />
    <glyph glyph-name="Thorn" unicode="&#xde;" horiz-adv-x="587" 
d="M312 89v-89h-275v89l73 3v476l-73 3v89h198v-98h74c177 0 256 -76 256 -206c0 -133 -87 -215 -254 -215h-76v-49zM298 457h-63v-214h63c93 0 138 36 138 109c0 71 -45 105 -138 105z" />
    <glyph glyph-name="Eth" unicode="&#xd0;" horiz-adv-x="671" 
d="M38 292v83h75v188l-76 3v94h272c221 0 325 -108 325 -324c0 -211 -103 -336 -325 -336h-272v94l76 3v195h-75zM298 556h-56v-181h122v-83h-122v-188h56c153 0 203 77 203 227c0 154 -50 225 -203 225z" />
    <glyph glyph-name="uni01C4" unicode="&#x1c4;" horiz-adv-x="1224" 
d="M308 0h-272v94l76 3v466l-76 3v94h272c221 0 325 -108 325 -324c0 -211 -103 -336 -325 -336zM297 556h-56v-452h56c153 0 203 77 203 227c0 154 -50 225 -203 225zM1007 714h-101l-96 123v21h87l59 -73l62 73h85v-21zM1187 0h-490v91l329 465h-206l-3 -94h-104v198h476
v-91l-330 -465h223l2 91h103v-195z" />
    <glyph glyph-name="uni01C5" unicode="&#x1c5;" horiz-adv-x="1159" 
d="M308 0h-272v94l76 3v466l-76 3v94h272c221 0 325 -108 325 -324c0 -211 -103 -336 -325 -336zM297 556h-56v-452h56c153 0 203 77 203 227c0 154 -50 225 -203 225zM971 564h-105l-98 144v22h89l62 -87l61 87h90v-22zM1124 0h-425v93l260 312h-148l-2 -69h-97v164h408
v-92l-260 -312h165l2 71h97v-167z" />
    <glyph glyph-name="uni01C7" unicode="&#x1c7;" horiz-adv-x="888" 
d="M553 0h-517v94l76 3v466l-76 3v94h291v-94l-85 -3v-459h205l2 115h104v-219zM578 -180c-27 0 -54 4 -75 10v93c13 -3 30 -4 45 -4c80 0 108 29 108 126v518l-77 3v94h282v-94l-76 -3v-530c0 -144 -61 -213 -207 -213z" />
    <glyph glyph-name="uni01CA" unicode="&#x1ca;" horiz-adv-x="1065" 
d="M299 94v-94h-263v94l76 3v466l-76 3v94h224l255 -475v378l-65 3v94h252v-94l-71 -3v-563h-147l-256 479v-382zM756 -180c-27 0 -54 4 -75 10v93c13 -3 30 -4 45 -4c80 0 108 29 108 126v518l-77 3v94h282v-94l-76 -3v-530c0 -144 -61 -213 -207 -213z" />
    <glyph glyph-name="uni01F1" unicode="&#x1f1;" horiz-adv-x="1224" 
d="M308 0h-272v94l76 3v466l-76 3v94h272c221 0 325 -108 325 -324c0 -211 -103 -336 -325 -336zM297 556h-56v-452h56c153 0 203 77 203 227c0 154 -50 225 -203 225zM1187 0h-490v91l329 465h-206l-3 -94h-104v198h476v-91l-330 -465h223l2 91h103v-195z" />
    <glyph glyph-name="uni01F2" unicode="&#x1f2;" horiz-adv-x="1159" 
d="M308 0h-272v94l76 3v466l-76 3v94h272c221 0 325 -108 325 -324c0 -211 -103 -336 -325 -336zM297 556h-56v-452h56c153 0 203 77 203 227c0 154 -50 225 -203 225zM1124 0h-425v93l260 312h-148l-2 -69h-97v164h408v-92l-260 -312h165l2 71h97v-167z" />
    <glyph glyph-name="uni01C8" unicode="&#x1c8;" horiz-adv-x="835" 
d="M553 0h-517v94l76 3v466l-76 3v94h291v-94l-85 -3v-459h205l2 115h104v-219zM628 630c0 42 32 73 80 73c51 0 82 -31 82 -73c0 -43 -31 -72 -82 -72c-48 0 -80 29 -80 72zM583 -235c-25 0 -54 3 -72 9v93c13 -2 29 -4 42 -4c73 0 94 30 94 122v425h-67v32l19 58h189
l-17 -82v-447c0 -138 -54 -206 -188 -206z" />
    <glyph glyph-name="uni01CB" unicode="&#x1cb;" horiz-adv-x="990" 
d="M299 94v-94h-263v94l76 3v466l-76 3v94h224l255 -475v378l-65 3v94h252v-94l-71 -3v-563h-147l-256 479v-382zM783 630c0 42 32 73 80 73c51 0 82 -31 82 -73c0 -43 -31 -72 -82 -72c-48 0 -80 29 -80 72zM738 -235c-25 0 -54 3 -72 9v93c13 -2 29 -4 42 -4
c73 0 94 30 94 122v425h-67v32l19 58h189l-17 -82v-447c0 -138 -54 -206 -188 -206z" />
    <glyph glyph-name="uni021C" unicode="&#x21c;" horiz-adv-x="550" 
d="M228 -11c-74 0 -151 13 -194 36v113c59 -27 122 -40 193 -40c101 0 154 37 154 100c0 57 -39 94 -119 94h-96v96h93c7 0 21 0 31 -1l80 168h-222l-3 -93h-104v198h458v-91l-102 -199c79 -32 117 -93 117 -172c0 -127 -98 -209 -286 -209z" />
    <glyph glyph-name="uni01EE" unicode="&#x1ee;" horiz-adv-x="550" 
d="M313 714h-101l-96 123v21h87l59 -73l62 73h85v-21zM228 -11c-74 0 -151 13 -194 36v113c59 -27 122 -40 193 -40c101 0 154 37 154 100c0 57 -39 94 -119 94h-96v96h93c7 0 21 0 31 -1l80 168h-222l-3 -93h-104v198h458v-91l-102 -199c79 -32 117 -93 117 -172
c0 -127 -98 -209 -286 -209z" />
    <glyph glyph-name="uni018E" unicode="&#x18e;" horiz-adv-x="586" 
d="M40 0v195h104l2 -91h199v181h-187v101h187v170h-195l-3 -94h-105v198h508v-94l-76 -3v-466l76 -3v-94h-510z" />
    <glyph glyph-name="AE" unicode="&#xc6;" horiz-adv-x="891" 
d="M422 549l-136 -264h136v264zM256 0h-250v94l47 2l306 564h489v-198h-104l-3 94h-190v-170h182v-101h-182v-181h194l3 91h103v-195h-493v94l64 2v94h-183l-52 -94l69 -2v-94z" />
    <glyph glyph-name="AEacute" unicode="&#x1fc;" horiz-adv-x="891" 
d="M642 858h108v-21l-103 -123h-88v17zM422 549l-136 -264h136v264zM256 0h-250v94l47 2l306 564h489v-198h-104l-3 94h-190v-170h182v-101h-182v-181h194l3 91h103v-195h-493v94l64 2v94h-183l-52 -94l69 -2v-94z" />
    <glyph glyph-name="AEmacron" unicode="&#x1e2;" horiz-adv-x="891" 
d="M467 738v84h269v-84h-269zM422 549l-136 -264h136v264zM256 0h-250v94l47 2l306 564h489v-198h-104l-3 94h-190v-170h182v-101h-182v-181h194l3 91h103v-195h-493v94l64 2v94h-183l-52 -94l69 -2v-94z" />
    <glyph glyph-name="OE" unicode="&#x152;" horiz-adv-x="896" 
d="M378 104h49v452h-49c-144 0 -210 -78 -210 -227c0 -152 65 -225 210 -225zM856 0h-481c-222 0 -340 107 -340 325c0 205 101 335 339 335h479v-198h-104l-4 94h-190v-170h166v-101h-166v-181h194l3 91h104v-195z" />
    <glyph glyph-name="IJ" unicode="&#x132;" horiz-adv-x="689" 
d="M318 0h-282v94l76 3v466l-76 3v94h282v-94l-76 -3v-466l76 -3v-94zM379 -180c-27 0 -54 4 -75 10v93c13 -3 30 -4 45 -4c80 0 108 29 108 126v518l-77 3v94h282v-94l-76 -3v-530c0 -144 -61 -213 -207 -213z" />
    <glyph glyph-name="IJ.alt" horiz-adv-x="756" 
d="M318 0h-282v94l76 3v466l-76 3v94h282v-94l-76 -3v-466l76 -3v-94zM454 -5c-30 0 -60 4 -76 10v94c9 -2 27 -3 47 -3c81 0 106 21 106 119v348l-82 3v94h282v-94l-71 -3v-363c0 -145 -58 -205 -206 -205z" />
    <glyph glyph-name="Iacute_Jacute" horiz-adv-x="689" 
d="M318 0h-282v94l76 3v466l-76 3v94h282v-94l-76 -3v-466l76 -3v-94zM219 858h108v-21l-103 -123h-88v17zM379 -180c-27 0 -54 4 -75 10v93c13 -3 30 -4 45 -4c80 0 108 29 108 126v518l-77 3v94h282v-94l-76 -3v-530c0 -144 -61 -213 -207 -213zM557 858h108v-21
l-103 -123h-88v17z" />
    <glyph glyph-name="Iacute_Jacute.alt" horiz-adv-x="756" 
d="M219 858h108v-21l-103 -123h-88v17zM318 0h-282v94l76 3v466l-76 3v94h282v-94l-76 -3v-466l76 -3v-94zM454 -5c-30 0 -60 4 -76 10v94c9 -2 27 -3 47 -3c81 0 106 21 106 119v348l-82 3v94h282v-94l-71 -3v-363c0 -145 -58 -205 -206 -205zM637 858h108v-21l-103 -123
h-88v17z" />
    <glyph glyph-name="aacute" unicode="&#xe1;" horiz-adv-x="502" 
d="M253 730h110v-22l-86 -144h-90v16zM416 -11c-49 0 -82 21 -95 55c-25 -34 -70 -55 -128 -55c-95 0 -164 58 -164 153c0 98 62 154 205 154h76v24c0 68 -27 89 -95 89c-17 0 -37 -2 -56 -6l-2 -61h-97v141c42 16 114 28 175 28c135 0 199 -60 199 -180v-205
c0 -29 8 -42 33 -42c11 0 20 2 29 7v-82c-20 -13 -48 -20 -80 -20zM228 80c34 0 63 13 82 34v105h-53c-77 0 -107 -29 -107 -71c0 -44 31 -68 78 -68z" />
    <glyph glyph-name="agrave" unicode="&#xe0;" horiz-adv-x="502" 
d="M104 730h111l66 -150v-16h-91l-86 144v22zM416 -11c-49 0 -82 21 -95 55c-25 -34 -70 -55 -128 -55c-95 0 -164 58 -164 153c0 98 62 154 205 154h76v24c0 68 -27 89 -95 89c-17 0 -37 -2 -56 -6l-2 -61h-97v141c42 16 114 28 175 28c135 0 199 -60 199 -180v-205
c0 -29 8 -42 33 -42c11 0 20 2 29 7v-82c-20 -13 -48 -20 -80 -20zM228 80c34 0 63 13 82 34v105h-53c-77 0 -107 -29 -107 -71c0 -44 31 -68 78 -68z" />
    <glyph glyph-name="acircumflex" unicode="&#xe2;" horiz-adv-x="502" 
d="M178 564h-89v21l98 145h105l99 -145v-21h-90l-61 86zM416 -11c-49 0 -82 21 -95 55c-25 -34 -70 -55 -128 -55c-95 0 -164 58 -164 153c0 98 62 154 205 154h76v24c0 68 -27 89 -95 89c-17 0 -37 -2 -56 -6l-2 -61h-97v141c42 16 114 28 175 28c135 0 199 -60 199 -180
v-205c0 -29 8 -42 33 -42c11 0 20 2 29 7v-82c-20 -13 -48 -20 -80 -20zM228 80c34 0 63 13 82 34v105h-53c-77 0 -107 -29 -107 -71c0 -44 31 -68 78 -68z" />
    <glyph glyph-name="adieresis" unicode="&#xe4;" horiz-adv-x="502" 
d="M73 630c0 36 27 66 68 66c43 0 70 -30 70 -66c0 -34 -27 -65 -70 -65c-41 0 -68 31 -68 65zM259 630c0 36 27 66 68 66c43 0 70 -30 70 -66c0 -34 -27 -65 -70 -65c-41 0 -68 31 -68 65zM416 -11c-49 0 -82 21 -95 55c-25 -34 -70 -55 -128 -55c-95 0 -164 58 -164 153
c0 98 62 154 205 154h76v24c0 68 -27 89 -95 89c-17 0 -37 -2 -56 -6l-2 -61h-97v141c42 16 114 28 175 28c135 0 199 -60 199 -180v-205c0 -29 8 -42 33 -42c11 0 20 2 29 7v-82c-20 -13 -48 -20 -80 -20zM228 80c34 0 63 13 82 34v105h-53c-77 0 -107 -29 -107 -71
c0 -44 31 -68 78 -68z" />
    <glyph glyph-name="atilde" unicode="&#xe3;" horiz-adv-x="502" 
d="M94 563v19c0 70 28 111 84 111c23 0 46 -11 66 -21c19 -10 32 -17 46 -17s23 13 23 37v6h77v-20c0 -70 -31 -107 -85 -107c-24 0 -42 6 -63 17c-20 11 -33 18 -47 18c-15 0 -24 -14 -24 -37v-6h-77zM416 -11c-49 0 -82 21 -95 55c-25 -34 -70 -55 -128 -55
c-95 0 -164 58 -164 153c0 98 62 154 205 154h76v24c0 68 -27 89 -95 89c-17 0 -37 -2 -56 -6l-2 -61h-97v141c42 16 114 28 175 28c135 0 199 -60 199 -180v-205c0 -29 8 -42 33 -42c11 0 20 2 29 7v-82c-20 -13 -48 -20 -80 -20zM228 80c34 0 63 13 82 34v105h-53
c-77 0 -107 -29 -107 -71c0 -44 31 -68 78 -68z" />
    <glyph glyph-name="aring" unicode="&#xe5;" horiz-adv-x="502" 
d="M140 656c0 53 43 96 96 96c54 0 96 -43 96 -96c0 -54 -42 -95 -96 -95c-53 0 -96 40 -96 95zM195 656c0 -26 16 -44 41 -44s41 18 41 44c0 25 -16 44 -41 44s-41 -19 -41 -44zM416 -11c-49 0 -82 21 -95 55c-25 -34 -70 -55 -128 -55c-95 0 -164 58 -164 153
c0 98 62 154 205 154h76v24c0 68 -27 89 -95 89c-17 0 -37 -2 -56 -6l-2 -61h-97v141c42 16 114 28 175 28c135 0 199 -60 199 -180v-205c0 -29 8 -42 33 -42c11 0 20 2 29 7v-82c-20 -13 -48 -20 -80 -20zM228 80c34 0 63 13 82 34v105h-53c-77 0 -107 -29 -107 -71
c0 -44 31 -68 78 -68z" />
    <glyph glyph-name="abreve" unicode="&#x103;" horiz-adv-x="502" 
d="M241 567c-93 0 -146 53 -147 135v5h86c2 -45 26 -66 61 -66s59 21 61 66h86v-5c-1 -80 -53 -135 -147 -135zM416 -11c-49 0 -82 21 -95 55c-25 -34 -70 -55 -128 -55c-95 0 -164 58 -164 153c0 98 62 154 205 154h76v24c0 68 -27 89 -95 89c-17 0 -37 -2 -56 -6l-2 -61
h-97v141c42 16 114 28 175 28c135 0 199 -60 199 -180v-205c0 -29 8 -42 33 -42c11 0 20 2 29 7v-82c-20 -13 -48 -20 -80 -20zM228 80c34 0 63 13 82 34v105h-53c-77 0 -107 -29 -107 -71c0 -44 31 -68 78 -68z" />
    <glyph glyph-name="amacron" unicode="&#x101;" horiz-adv-x="502" 
d="M109 593v82h259v-82h-259zM416 -11c-49 0 -82 21 -95 55c-25 -34 -70 -55 -128 -55c-95 0 -164 58 -164 153c0 98 62 154 205 154h76v24c0 68 -27 89 -95 89c-17 0 -37 -2 -56 -6l-2 -61h-97v141c42 16 114 28 175 28c135 0 199 -60 199 -180v-205c0 -29 8 -42 33 -42
c11 0 20 2 29 7v-82c-20 -13 -48 -20 -80 -20zM228 80c34 0 63 13 82 34v105h-53c-77 0 -107 -29 -107 -71c0 -44 31 -68 78 -68z" />
    <glyph glyph-name="aogonek" unicode="&#x105;" horiz-adv-x="502" 
d="M409 -241c-74 0 -121 35 -121 100c0 48 24 92 93 136c-29 7 -48 24 -60 49c-25 -34 -70 -55 -128 -55c-94 0 -164 58 -164 153c0 98 62 154 205 154h76v24c0 68 -27 89 -95 89c-17 0 -37 -2 -56 -6l-2 -61h-97v141c42 16 114 28 175 28c135 0 199 -60 199 -180v-205
c0 -28 9 -41 33 -41c11 0 20 2 32 8v-76c-13 -8 -26 -17 -36 -24c-61 -38 -84 -72 -84 -106c0 -31 22 -46 54 -46c19 0 35 3 54 12v-77c-20 -13 -52 -17 -78 -17zM228 80c34 0 63 13 82 34v105h-53c-77 0 -107 -29 -107 -71c0 -44 31 -68 78 -68z" />
    <glyph glyph-name="uni01FB" unicode="&#x1fb;" horiz-adv-x="502" 
d="M143 656c0 53 43 96 96 96c54 0 96 -43 96 -96c0 -54 -42 -95 -96 -95c-53 0 -96 40 -96 95zM198 656c0 -26 16 -44 41 -44s41 18 41 44c0 25 -16 44 -41 44s-41 -19 -41 -44zM275 931h108v-21l-103 -123h-88v17zM416 -11c-49 0 -82 21 -95 55c-25 -34 -70 -55 -128 -55
c-95 0 -164 58 -164 153c0 98 62 154 205 154h76v24c0 68 -27 89 -95 89c-17 0 -37 -2 -56 -6l-2 -61h-97v141c42 16 114 28 175 28c135 0 199 -60 199 -180v-205c0 -29 8 -42 33 -42c11 0 20 2 29 7v-82c-20 -13 -48 -20 -80 -20zM228 80c34 0 63 13 82 34v105h-53
c-77 0 -107 -29 -107 -71c0 -44 31 -68 78 -68z" />
    <glyph glyph-name="uni01CE" unicode="&#x1ce;" horiz-adv-x="502" 
d="M287 564h-105l-98 144v22h89l62 -87l61 87h90v-22zM416 -11c-49 0 -82 21 -95 55c-25 -34 -70 -55 -128 -55c-95 0 -164 58 -164 153c0 98 62 154 205 154h76v24c0 68 -27 89 -95 89c-17 0 -37 -2 -56 -6l-2 -61h-97v141c42 16 114 28 175 28c135 0 199 -60 199 -180
v-205c0 -29 8 -42 33 -42c11 0 20 2 29 7v-82c-20 -13 -48 -20 -80 -20zM228 80c34 0 63 13 82 34v105h-53c-77 0 -107 -29 -107 -71c0 -44 31 -68 78 -68z" />
    <glyph glyph-name="uni0227" unicode="&#x227;" horiz-adv-x="502" 
d="M160 631c0 38 27 71 74 71s75 -33 75 -71c0 -37 -29 -70 -75 -70c-47 0 -74 34 -74 70zM416 -11c-49 0 -82 21 -95 55c-25 -34 -70 -55 -128 -55c-95 0 -164 58 -164 153c0 98 62 154 205 154h76v24c0 68 -27 89 -95 89c-17 0 -37 -2 -56 -6l-2 -61h-97v141
c42 16 114 28 175 28c135 0 199 -60 199 -180v-205c0 -29 8 -42 33 -42c11 0 20 2 29 7v-82c-20 -13 -48 -20 -80 -20zM228 80c34 0 63 13 82 34v105h-53c-77 0 -107 -29 -107 -71c0 -44 31 -68 78 -68z" />
    <glyph glyph-name="uni1EA7" unicode="&#x1ea7;" horiz-adv-x="502" 
d="M276 784h100l73 -117v-16h-81l-92 112v21zM180 564h-88v21l100 118h95l100 -118v-21h-88l-61 70zM416 -11c-49 0 -82 21 -95 55c-25 -34 -70 -55 -128 -55c-95 0 -164 58 -164 153c0 98 62 154 205 154h76v24c0 68 -27 89 -95 89c-17 0 -37 -2 -56 -6l-2 -61h-97v141
c42 16 114 28 175 28c135 0 199 -60 199 -180v-205c0 -29 8 -42 33 -42c11 0 20 2 29 7v-82c-20 -13 -48 -20 -80 -20zM228 80c34 0 63 13 82 34v105h-53c-77 0 -107 -29 -107 -71c0 -44 31 -68 78 -68z" />
    <glyph glyph-name="uni1EA5" unicode="&#x1ea5;" horiz-adv-x="502" 
d="M425 784h99v-21l-92 -112h-81v16zM180 564h-88v21l100 118h95l100 -118v-21h-88l-61 70zM416 -11c-49 0 -82 21 -95 55c-25 -34 -70 -55 -128 -55c-95 0 -164 58 -164 153c0 98 62 154 205 154h76v24c0 68 -27 89 -95 89c-17 0 -37 -2 -56 -6l-2 -61h-97v141
c42 16 114 28 175 28c135 0 199 -60 199 -180v-205c0 -29 8 -42 33 -42c11 0 20 2 29 7v-82c-20 -13 -48 -20 -80 -20zM228 80c34 0 63 13 82 34v105h-53c-77 0 -107 -29 -107 -71c0 -44 31 -68 78 -68z" />
    <glyph glyph-name="uni1EAB" unicode="&#x1eab;" horiz-adv-x="502" 
d="M240 753c-19 10 -30 17 -42 17c-16 0 -22 -14 -22 -35v-1h-74v11c0 67 25 103 78 103c20 0 38 -6 56 -16s29 -17 42 -17c15 0 22 12 22 35v1h73v-11c0 -67 -27 -102 -79 -102c-19 0 -36 5 -54 15zM180 564h-88v21l100 118h95l100 -118v-21h-88l-61 70zM416 -11
c-49 0 -82 21 -95 55c-25 -34 -70 -55 -128 -55c-95 0 -164 58 -164 153c0 98 62 154 205 154h76v24c0 68 -27 89 -95 89c-17 0 -37 -2 -56 -6l-2 -61h-97v141c42 16 114 28 175 28c135 0 199 -60 199 -180v-205c0 -29 8 -42 33 -42c11 0 20 2 29 7v-82
c-20 -13 -48 -20 -80 -20zM228 80c34 0 63 13 82 34v105h-53c-77 0 -107 -29 -107 -71c0 -44 31 -68 78 -68z" />
    <glyph glyph-name="uni1EA9" unicode="&#x1ea9;" horiz-adv-x="502" 
d="M334 684c38 21 53 40 53 60c0 19 -12 30 -34 30c-13 0 -26 -3 -38 -9v63c17 8 33 13 60 13c52 0 91 -34 91 -85c0 -45 -30 -86 -92 -120zM180 564h-88v21l100 118h95l100 -118v-21h-88l-61 70zM416 -11c-49 0 -82 21 -95 55c-25 -34 -70 -55 -128 -55
c-95 0 -164 58 -164 153c0 98 62 154 205 154h76v24c0 68 -27 89 -95 89c-17 0 -37 -2 -56 -6l-2 -61h-97v141c42 16 114 28 175 28c135 0 199 -60 199 -180v-205c0 -29 8 -42 33 -42c11 0 20 2 29 7v-82c-20 -13 -48 -20 -80 -20zM228 80c34 0 63 13 82 34v105h-53
c-77 0 -107 -29 -107 -71c0 -44 31 -68 78 -68z" />
    <glyph glyph-name="uni1EAD" unicode="&#x1ead;" horiz-adv-x="502" 
d="M163 -134c0 38 27 71 74 71c48 0 75 -33 75 -71c0 -37 -28 -70 -75 -70s-74 34 -74 70zM177 564h-89v21l98 145h105l99 -145v-21h-90l-61 86zM416 -11c-49 0 -82 21 -95 55c-25 -34 -70 -55 -128 -55c-95 0 -164 58 -164 153c0 98 62 154 205 154h76v24
c0 68 -27 89 -95 89c-17 0 -37 -2 -56 -6l-2 -61h-97v141c42 16 114 28 175 28c135 0 199 -60 199 -180v-205c0 -29 8 -42 33 -42c11 0 20 2 29 7v-82c-20 -13 -48 -20 -80 -20zM228 80c34 0 63 13 82 34v105h-53c-77 0 -107 -29 -107 -71c0 -44 31 -68 78 -68z" />
    <glyph glyph-name="uni1EB1" unicode="&#x1eb1;" horiz-adv-x="502" 
d="M117 822v21h98l65 -122v-17h-80zM238 566c-95 0 -148 51 -151 126v5h86c7 -41 31 -59 65 -59s59 18 65 59h87v-5c-4 -74 -60 -126 -152 -126zM416 -11c-49 0 -82 21 -95 55c-25 -34 -70 -55 -128 -55c-95 0 -164 58 -164 153c0 98 62 154 205 154h76v24
c0 68 -27 89 -95 89c-17 0 -37 -2 -56 -6l-2 -61h-97v141c42 16 114 28 175 28c135 0 199 -60 199 -180v-205c0 -29 8 -42 33 -42c11 0 20 2 29 7v-82c-20 -13 -48 -20 -80 -20zM228 80c34 0 63 13 82 34v105h-53c-77 0 -107 -29 -107 -71c0 -44 31 -68 78 -68z" />
    <glyph glyph-name="uni1EAF" unicode="&#x1eaf;" horiz-adv-x="502" 
d="M262 843h99v-21l-83 -118h-80v17zM239 566c-95 0 -148 51 -151 126v5h86c7 -41 31 -59 65 -59s59 18 65 59h87v-5c-4 -74 -60 -126 -152 -126zM416 -11c-49 0 -82 21 -95 55c-25 -34 -70 -55 -128 -55c-95 0 -164 58 -164 153c0 98 62 154 205 154h76v24
c0 68 -27 89 -95 89c-17 0 -37 -2 -56 -6l-2 -61h-97v141c42 16 114 28 175 28c135 0 199 -60 199 -180v-205c0 -29 8 -42 33 -42c11 0 20 2 29 7v-82c-20 -13 -48 -20 -80 -20zM228 80c34 0 63 13 82 34v105h-53c-77 0 -107 -29 -107 -71c0 -44 31 -68 78 -68z" />
    <glyph glyph-name="uni1EB5" unicode="&#x1eb5;" horiz-adv-x="502" 
d="M111 735v11c0 64 27 99 75 99c19 0 38 -7 56 -15c18 -9 29 -15 41 -15c14 0 20 11 20 32v1h72v-11c0 -64 -28 -98 -75 -98c-18 0 -38 6 -56 15c-17 9 -29 13 -40 13c-14 0 -20 -11 -20 -31v-1h-73zM239 566c-95 0 -147 51 -150 126v5h87c6 -41 30 -59 63 -59s58 18 64 59
h87v-5c-4 -74 -59 -126 -151 -126zM416 -11c-49 0 -82 21 -95 55c-25 -34 -70 -55 -128 -55c-95 0 -164 58 -164 153c0 98 62 154 205 154h76v24c0 68 -27 89 -95 89c-17 0 -37 -2 -56 -6l-2 -61h-97v141c42 16 114 28 175 28c135 0 199 -60 199 -180v-205
c0 -29 8 -42 33 -42c11 0 20 2 29 7v-82c-20 -13 -48 -20 -80 -20zM228 80c34 0 63 13 82 34v105h-53c-77 0 -107 -29 -107 -71c0 -44 31 -68 78 -68z" />
    <glyph glyph-name="uni1EB3" unicode="&#x1eb3;" horiz-adv-x="502" 
d="M239 567c-94 0 -151 50 -151 126v4h87c6 -41 31 -58 64 -58c34 0 59 18 65 59h87v-5c0 -75 -60 -126 -152 -126zM178 812v60c16 9 32 13 58 13c52 0 90 -34 90 -84c0 -44 -29 -83 -90 -117l-44 47c37 20 57 40 57 59s-13 31 -34 31c-12 0 -25 -4 -37 -9zM416 -11
c-49 0 -82 21 -95 55c-25 -34 -70 -55 -128 -55c-95 0 -164 58 -164 153c0 98 62 154 205 154h76v24c0 68 -27 89 -95 89c-17 0 -37 -2 -56 -6l-2 -61h-97v141c42 16 114 28 175 28c135 0 199 -60 199 -180v-205c0 -29 8 -42 33 -42c11 0 20 2 29 7v-82
c-20 -13 -48 -20 -80 -20zM228 80c34 0 63 13 82 34v105h-53c-77 0 -107 -29 -107 -71c0 -44 31 -68 78 -68z" />
    <glyph glyph-name="uni1EB7" unicode="&#x1eb7;" horiz-adv-x="502" 
d="M163 -134c0 38 27 71 74 71c48 0 75 -33 75 -71c0 -37 -28 -70 -75 -70s-74 34 -74 70zM239 567c-93 0 -146 53 -147 135v5h86c2 -45 26 -66 61 -66s59 21 61 66h86v-5c-1 -80 -53 -135 -147 -135zM416 -11c-49 0 -82 21 -95 55c-25 -34 -70 -55 -128 -55
c-95 0 -164 58 -164 153c0 98 62 154 205 154h76v24c0 68 -27 89 -95 89c-17 0 -37 -2 -56 -6l-2 -61h-97v141c42 16 114 28 175 28c135 0 199 -60 199 -180v-205c0 -29 8 -42 33 -42c11 0 20 2 29 7v-82c-20 -13 -48 -20 -80 -20zM228 80c34 0 63 13 82 34v105h-53
c-77 0 -107 -29 -107 -71c0 -44 31 -68 78 -68z" />
    <glyph glyph-name="uni1EA3" unicode="&#x1ea3;" horiz-adv-x="502" 
d="M164 598c42 24 68 48 68 73c0 23 -16 37 -41 37c-15 0 -31 -4 -46 -11v68c20 11 39 16 69 16c61 0 105 -40 105 -97c0 -54 -35 -97 -107 -137zM416 -11c-49 0 -82 21 -95 55c-25 -34 -70 -55 -128 -55c-95 0 -164 58 -164 153c0 98 62 154 205 154h76v24
c0 68 -27 89 -95 89c-17 0 -37 -2 -56 -6l-2 -61h-97v141c42 16 114 28 175 28c135 0 199 -60 199 -180v-205c0 -29 8 -42 33 -42c11 0 20 2 29 7v-82c-20 -13 -48 -20 -80 -20zM228 80c34 0 63 13 82 34v105h-53c-77 0 -107 -29 -107 -71c0 -44 31 -68 78 -68z" />
    <glyph glyph-name="uni1EA1" unicode="&#x1ea1;" horiz-adv-x="502" 
d="M163 -134c0 38 27 71 74 71c48 0 75 -33 75 -71c0 -37 -28 -70 -75 -70s-74 34 -74 70zM416 -11c-49 0 -82 21 -95 55c-25 -34 -70 -55 -128 -55c-95 0 -164 58 -164 153c0 98 62 154 205 154h76v24c0 68 -27 89 -95 89c-17 0 -37 -2 -56 -6l-2 -61h-97v141
c42 16 114 28 175 28c135 0 199 -60 199 -180v-205c0 -29 8 -42 33 -42c11 0 20 2 29 7v-82c-20 -13 -48 -20 -80 -20zM228 80c34 0 63 13 82 34v105h-53c-77 0 -107 -29 -107 -71c0 -44 31 -68 78 -68z" />
    <glyph glyph-name="uni1E05" unicode="&#x1e05;" horiz-adv-x="553" 
d="M268 85c81 0 128 55 128 170c0 104 -38 152 -108 152c-35 0 -68 -17 -95 -43v-258c20 -14 43 -21 75 -21zM285 -11c-54 0 -104 13 -137 40l-23 -33h-83l27 132v512h-63v32l23 58h181l-17 -84v-198c28 36 75 61 132 61c124 0 196 -85 196 -246c0 -170 -88 -274 -236 -274z
M190 -134c0 38 27 71 74 71c48 0 75 -33 75 -71c0 -37 -28 -70 -75 -70s-74 34 -74 70z" />
    <glyph glyph-name="uni1E07" unicode="&#x1e07;" horiz-adv-x="553" 
d="M268 85c81 0 128 55 128 170c0 104 -38 152 -108 152c-35 0 -68 -17 -95 -43v-258c20 -14 43 -21 75 -21zM285 -11c-54 0 -104 13 -137 40l-23 -33h-83l27 132v512h-63v32l23 58h181l-17 -84v-198c28 36 75 61 132 61c124 0 196 -85 196 -246c0 -170 -88 -274 -236 -274z
M141 -170v83h259v-83h-259z" />
    <glyph glyph-name="uni1E03" unicode="&#x1e03;" horiz-adv-x="553" 
d="M268 85c81 0 128 55 128 170c0 104 -38 152 -108 152c-35 0 -68 -17 -95 -43v-258c20 -14 43 -21 75 -21zM285 -11c-54 0 -104 13 -137 40l-23 -33h-83l27 132v512h-63v32l23 58h181l-17 -84v-198c28 36 75 61 132 61c124 0 196 -85 196 -246c0 -170 -88 -274 -236 -274z
M55 859c0 38 27 71 74 71s75 -33 75 -71s-29 -70 -75 -70c-47 0 -74 34 -74 70z" />
    <glyph glyph-name="ccedilla" unicode="&#xe7;" horiz-adv-x="457" 
d="M236 -45c73 -2 112 -39 112 -92c0 -57 -47 -104 -126 -104c-34 0 -66 5 -89 15v66c23 -9 49 -15 76 -15c35 0 53 13 53 37c0 22 -19 36 -50 36c-13 0 -25 -2 -40 -5l-22 41l25 71c-93 32 -144 112 -144 239c0 158 78 267 250 267c54 0 109 -8 140 -25v-153h-96l-2 73
c-12 1 -24 2 -34 2c-88 0 -133 -59 -133 -159c0 -110 55 -158 152 -158c41 0 80 9 115 28v-99c-21 -15 -78 -31 -141 -31c-12 0 -23 1 -34 2l-13 -36h1z" />
    <glyph glyph-name="cacute" unicode="&#x107;" horiz-adv-x="457" 
d="M267 730h110v-22l-86 -144h-90v16zM423 20c-21 -15 -78 -31 -141 -31c-159 0 -251 86 -251 255c0 158 78 267 250 267c54 0 109 -8 140 -25v-153h-96l-2 73c-12 1 -24 2 -34 2c-88 0 -133 -59 -133 -159c0 -110 55 -158 152 -158c41 0 80 9 115 28v-99z" />
    <glyph glyph-name="ccaron" unicode="&#x10d;" horiz-adv-x="457" 
d="M303 564h-105l-98 144v22h89l62 -87l61 87h90v-22zM423 20c-21 -15 -78 -31 -141 -31c-159 0 -251 86 -251 255c0 158 78 267 250 267c54 0 109 -8 140 -25v-153h-96l-2 73c-12 1 -24 2 -34 2c-88 0 -133 -59 -133 -159c0 -110 55 -158 152 -158c41 0 80 9 115 28v-99z
" />
    <glyph glyph-name="ccircumflex" unicode="&#x109;" horiz-adv-x="457" 
d="M182 564h-89v21l98 145h105l99 -145v-21h-90l-61 86zM423 20c-21 -15 -78 -31 -141 -31c-159 0 -251 86 -251 255c0 158 78 267 250 267c54 0 109 -8 140 -25v-153h-96l-2 73c-12 1 -24 2 -34 2c-88 0 -133 -59 -133 -159c0 -110 55 -158 152 -158c41 0 80 9 115 28v-99z
" />
    <glyph glyph-name="cdotaccent" unicode="&#x10b;" horiz-adv-x="457" 
d="M423 20c-21 -15 -78 -31 -141 -31c-159 0 -251 86 -251 255c0 158 78 267 250 267c54 0 109 -8 140 -25v-153h-96l-2 73c-12 1 -24 2 -34 2c-88 0 -133 -59 -133 -159c0 -110 55 -158 152 -158c41 0 80 9 115 28v-99zM174 631c0 38 27 71 74 71s75 -33 75 -71
c0 -37 -29 -70 -75 -70c-47 0 -74 34 -74 70z" />
    <glyph glyph-name="dcaron" unicode="&#x10f;" horiz-adv-x="571" 
d="M544 770h105v-22l-40 -161h-78v17zM465 -10c-49 0 -80 19 -92 55c-30 -36 -80 -56 -136 -56c-119 0 -205 80 -205 255c0 169 77 265 227 265c39 0 74 -7 99 -22v153h-80v32l24 58h197l-18 -79v-526c0 -29 10 -41 33 -41c12 0 23 3 33 8v-82c-19 -13 -50 -20 -82 -20z
M274 88c32 0 64 11 84 29v277c-20 11 -45 16 -73 16c-87 0 -128 -58 -128 -162c0 -116 45 -160 117 -160z" />
    <glyph glyph-name="dcroat" unicode="&#x111;" horiz-adv-x="563" 
d="M227 561v82h131v87h124v-87h65v-82h-65v-436c-1 -28 10 -41 33 -41c12 0 23 3 32 8v-82c-19 -13 -49 -20 -81 -20c-49 0 -80 19 -93 55c-30 -36 -80 -56 -136 -56c-119 0 -205 81 -205 255c0 169 77 266 227 266c39 0 74 -8 99 -23v74h-131zM275 89c31 0 64 10 83 29v276
c-20 11 -45 16 -73 16c-86 0 -128 -57 -128 -162c0 -116 45 -159 118 -159z" />
    <glyph glyph-name="uni1E0F" unicode="&#x1e0f;" horiz-adv-x="563" 
d="M465 -10c-49 0 -80 19 -92 55c-30 -36 -80 -56 -136 -56c-119 0 -205 80 -205 255c0 169 77 265 227 265c39 0 74 -7 99 -22v153h-80v32l24 58h197l-18 -79v-526c0 -29 10 -41 33 -41c12 0 23 3 33 8v-82c-19 -13 -50 -20 -82 -20zM274 88c32 0 64 11 84 29v277
c-20 11 -45 16 -73 16c-87 0 -128 -58 -128 -162c0 -116 45 -160 117 -160zM145 -170v83h259v-83h-259z" />
    <glyph glyph-name="uni1E0D" unicode="&#x1e0d;" horiz-adv-x="563" 
d="M465 -10c-49 0 -80 19 -92 55c-30 -36 -80 -56 -136 -56c-119 0 -205 80 -205 255c0 169 77 265 227 265c39 0 74 -7 99 -22v153h-80v32l24 58h197l-18 -79v-526c0 -29 10 -41 33 -41c12 0 23 3 33 8v-82c-19 -13 -50 -20 -82 -20zM274 88c32 0 64 11 84 29v277
c-20 11 -45 16 -73 16c-87 0 -128 -58 -128 -162c0 -116 45 -160 117 -160zM194 -134c0 38 27 71 74 71c48 0 75 -33 75 -71c0 -37 -28 -70 -75 -70s-74 34 -74 70z" />
    <glyph glyph-name="uni1E0B" unicode="&#x1e0b;" horiz-adv-x="563" 
d="M335 859c0 38 27 71 74 71s75 -33 75 -71s-29 -70 -75 -70c-47 0 -74 34 -74 70zM465 -10c-49 0 -80 19 -92 55c-30 -36 -80 -56 -136 -56c-119 0 -205 80 -205 255c0 169 77 265 227 265c39 0 74 -7 99 -22v153h-80v32l24 58h197l-18 -79v-526c0 -29 10 -41 33 -41
c12 0 23 3 33 8v-82c-19 -13 -50 -20 -82 -20zM274 88c32 0 64 11 84 29v277c-20 11 -45 16 -73 16c-87 0 -128 -58 -128 -162c0 -116 45 -160 117 -160z" />
    <glyph glyph-name="eacute" unicode="&#xe9;" horiz-adv-x="488" 
d="M270 730h110v-22l-86 -144h-90v16zM252 417c-53 0 -85 -42 -93 -121h178c1 4 1 9 1 14c0 69 -30 107 -86 107zM283 -11c-159 0 -251 79 -251 251c0 158 73 271 226 271c125 0 196 -78 196 -208c0 -26 -3 -57 -10 -87h-286c4 -92 57 -125 145 -125c51 0 106 12 141 31v-99
c-29 -19 -98 -34 -161 -34z" />
    <glyph glyph-name="egrave" unicode="&#xe8;" horiz-adv-x="488" 
d="M252 417c-53 0 -85 -42 -93 -121h178c1 4 1 9 1 14c0 69 -30 107 -86 107zM283 -11c-159 0 -251 79 -251 251c0 158 73 271 226 271c125 0 196 -78 196 -208c0 -26 -3 -57 -10 -87h-286c4 -92 57 -125 145 -125c51 0 106 12 141 31v-99c-29 -19 -98 -34 -161 -34z
M123 730h111l66 -150v-16h-91l-86 144v22z" />
    <glyph glyph-name="ecircumflex" unicode="&#xea;" horiz-adv-x="488" 
d="M190 564h-89v21l98 145h105l99 -145v-21h-90l-61 86zM252 417c-53 0 -85 -42 -93 -121h178c1 4 1 9 1 14c0 69 -30 107 -86 107zM283 -11c-159 0 -251 79 -251 251c0 158 73 271 226 271c125 0 196 -78 196 -208c0 -26 -3 -57 -10 -87h-286c4 -92 57 -125 145 -125
c51 0 106 12 141 31v-99c-29 -19 -98 -34 -161 -34z" />
    <glyph glyph-name="edieresis" unicode="&#xeb;" horiz-adv-x="488" 
d="M87 630c0 36 27 66 68 66c43 0 70 -30 70 -66c0 -34 -27 -65 -70 -65c-41 0 -68 31 -68 65zM273 630c0 36 27 66 68 66c43 0 70 -30 70 -66c0 -34 -27 -65 -70 -65c-41 0 -68 31 -68 65zM252 417c-53 0 -85 -42 -93 -121h178c1 4 1 9 1 14c0 69 -30 107 -86 107zM283 -11
c-159 0 -251 79 -251 251c0 158 73 271 226 271c125 0 196 -78 196 -208c0 -26 -3 -57 -10 -87h-286c4 -92 57 -125 145 -125c51 0 106 12 141 31v-99c-29 -19 -98 -34 -161 -34z" />
    <glyph glyph-name="ebreve" unicode="&#x115;" horiz-adv-x="488" 
d="M252 417c-53 0 -85 -42 -93 -121h178c1 4 1 9 1 14c0 69 -30 107 -86 107zM283 -11c-159 0 -251 79 -251 251c0 158 73 271 226 271c125 0 196 -78 196 -208c0 -26 -3 -57 -10 -87h-286c4 -92 57 -125 145 -125c51 0 106 12 141 31v-99c-29 -19 -98 -34 -161 -34z
M251 567c-93 0 -146 53 -147 135v5h86c2 -45 26 -66 61 -66s59 21 61 66h86v-5c-1 -80 -53 -135 -147 -135z" />
    <glyph glyph-name="ecaron" unicode="&#x11b;" horiz-adv-x="488" 
d="M304 564h-105l-98 144v22h89l62 -87l61 87h90v-22zM252 417c-53 0 -85 -42 -93 -121h178c1 4 1 9 1 14c0 69 -30 107 -86 107zM283 -11c-159 0 -251 79 -251 251c0 158 73 271 226 271c125 0 196 -78 196 -208c0 -26 -3 -57 -10 -87h-286c4 -92 57 -125 145 -125
c51 0 106 12 141 31v-99c-29 -19 -98 -34 -161 -34z" />
    <glyph glyph-name="edotaccent" unicode="&#x117;" horiz-adv-x="488" 
d="M252 417c-53 0 -85 -42 -93 -121h178c1 4 1 9 1 14c0 69 -30 107 -86 107zM283 -11c-159 0 -251 79 -251 251c0 158 73 271 226 271c125 0 196 -78 196 -208c0 -26 -3 -57 -10 -87h-286c4 -92 57 -125 145 -125c51 0 106 12 141 31v-99c-29 -19 -98 -34 -161 -34z
M176 631c0 38 27 71 74 71s75 -33 75 -71c0 -37 -29 -70 -75 -70c-47 0 -74 34 -74 70z" />
    <glyph glyph-name="emacron" unicode="&#x113;" horiz-adv-x="488" 
d="M252 417c-53 0 -85 -42 -93 -121h178c1 4 1 9 1 14c0 69 -30 107 -86 107zM283 -11c-159 0 -251 79 -251 251c0 158 73 271 226 271c125 0 196 -78 196 -208c0 -26 -3 -57 -10 -87h-286c4 -92 57 -125 145 -125c51 0 106 12 141 31v-99c-29 -19 -98 -34 -161 -34z
M122 593v82h259v-82h-259z" />
    <glyph glyph-name="uni1EBD" unicode="&#x1ebd;" horiz-adv-x="488" 
d="M283 -11c-159 0 -251 79 -251 251c0 158 73 271 226 271c125 0 196 -78 196 -208c0 -26 -3 -57 -10 -87h-286c4 -92 57 -125 145 -125c51 0 106 12 141 31v-99c-29 -19 -98 -34 -161 -34zM108 563v19c0 70 28 111 84 111c23 0 46 -11 66 -21c19 -10 32 -17 46 -17
s23 13 23 37v6h77v-20c0 -70 -31 -107 -85 -107c-24 0 -42 6 -63 17c-20 11 -33 18 -47 18c-15 0 -24 -14 -24 -37v-6h-77zM252 417c-53 0 -85 -42 -93 -121h178c1 4 1 9 1 14c0 69 -30 107 -86 107z" />
    <glyph glyph-name="eogonek" unicode="&#x119;" horiz-adv-x="488" 
d="M325 -241c-71 0 -120 35 -120 100c0 48 25 90 86 130h-11c-157 0 -248 80 -248 251c0 158 73 271 226 271c125 0 196 -78 196 -208c0 -26 -3 -57 -10 -87h-285c8 -93 61 -125 144 -125c49 0 99 9 141 31v-96c-22 -13 -44 -25 -60 -36c-43 -27 -87 -61 -87 -104
c0 -29 22 -45 54 -45c19 0 34 3 53 12v-77c-19 -13 -52 -17 -79 -17zM253 417c-54 0 -85 -43 -94 -121h179c1 4 1 9 1 14c0 69 -30 107 -86 107z" />
    <glyph glyph-name="uni0229" unicode="&#x229;" horiz-adv-x="488" 
d="M283 -11c-12 0 -23 1 -33 2l-14 -36c73 -2 113 -36 113 -93c0 -58 -49 -103 -128 -103c-33 0 -64 5 -87 15v67c24 -10 49 -16 77 -16c34 0 52 13 52 37c0 22 -19 36 -50 36c-13 0 -25 -2 -40 -5l-22 41l25 70c-93 30 -144 107 -144 236c0 158 73 271 226 271
c125 0 196 -78 196 -208c0 -26 -3 -57 -10 -87h-286c4 -92 57 -125 145 -125c51 0 106 12 141 31v-99c-29 -19 -98 -34 -161 -34zM252 417c-53 0 -85 -42 -93 -121h178c1 4 1 9 1 14c0 69 -30 107 -86 107z" />
    <glyph glyph-name="uni1EC1" unicode="&#x1ec1;" horiz-adv-x="488" 
d="M252 417c-53 0 -85 -42 -93 -121h178c1 4 1 9 1 14c0 69 -30 107 -86 107zM283 -11c-159 0 -251 79 -251 251c0 158 73 271 226 271c125 0 196 -78 196 -208c0 -26 -3 -57 -10 -87h-286c4 -92 57 -125 145 -125c51 0 106 12 141 31v-99c-29 -19 -98 -34 -161 -34z
M290 784h100l73 -117v-16h-81l-92 112v21zM194 564h-88v21l100 118h95l100 -118v-21h-88l-61 70z" />
    <glyph glyph-name="uni1EBF" unicode="&#x1ebf;" horiz-adv-x="488" 
d="M252 417c-53 0 -85 -42 -93 -121h178c1 4 1 9 1 14c0 69 -30 107 -86 107zM283 -11c-159 0 -251 79 -251 251c0 158 73 271 226 271c125 0 196 -78 196 -208c0 -26 -3 -57 -10 -87h-286c4 -92 57 -125 145 -125c51 0 106 12 141 31v-99c-29 -19 -98 -34 -161 -34z
M439 784h99v-21l-92 -112h-81v16zM194 564h-88v21l100 118h95l100 -118v-21h-88l-61 70z" />
    <glyph glyph-name="uni1EC5" unicode="&#x1ec5;" horiz-adv-x="488" 
d="M252 417c-53 0 -85 -42 -93 -121h178c1 4 1 9 1 14c0 69 -30 107 -86 107zM283 -11c-159 0 -251 79 -251 251c0 158 73 271 226 271c125 0 196 -78 196 -208c0 -26 -3 -57 -10 -87h-286c4 -92 57 -125 145 -125c51 0 106 12 141 31v-99c-29 -19 -98 -34 -161 -34z
M254 753c-19 10 -30 17 -42 17c-16 0 -22 -14 -22 -35v-1h-74v11c0 67 25 103 78 103c20 0 38 -6 56 -16s29 -17 42 -17c15 0 22 12 22 35v1h73v-11c0 -67 -27 -102 -79 -102c-19 0 -36 5 -54 15zM194 564h-88v21l100 118h95l100 -118v-21h-88l-61 70z" />
    <glyph glyph-name="uni1EC3" unicode="&#x1ec3;" horiz-adv-x="488" 
d="M252 417c-53 0 -85 -42 -93 -121h178c1 4 1 9 1 14c0 69 -30 107 -86 107zM283 -11c-159 0 -251 79 -251 251c0 158 73 271 226 271c125 0 196 -78 196 -208c0 -26 -3 -57 -10 -87h-286c4 -92 57 -125 145 -125c51 0 106 12 141 31v-99c-29 -19 -98 -34 -161 -34z
M348 684c38 21 53 40 53 60c0 19 -12 30 -34 30c-13 0 -26 -3 -38 -9v63c17 8 33 13 60 13c52 0 91 -34 91 -85c0 -45 -30 -86 -92 -120zM194 564h-88v21l100 118h95l100 -118v-21h-88l-61 70z" />
    <glyph glyph-name="uni1EC7" unicode="&#x1ec7;" horiz-adv-x="488" 
d="M190 564h-89v21l98 145h105l99 -145v-21h-90l-61 86zM252 417c-53 0 -85 -42 -93 -121h178c1 4 1 9 1 14c0 69 -30 107 -86 107zM283 -11c-159 0 -251 79 -251 251c0 158 73 271 226 271c125 0 196 -78 196 -208c0 -26 -3 -57 -10 -87h-286c4 -92 57 -125 145 -125
c51 0 106 12 141 31v-99c-29 -19 -98 -34 -161 -34zM177 -134c0 38 27 71 74 71c48 0 75 -33 75 -71c0 -37 -28 -70 -75 -70s-74 34 -74 70z" />
    <glyph glyph-name="uni1EBB" unicode="&#x1ebb;" horiz-adv-x="488" 
d="M252 417c-53 0 -85 -42 -93 -121h178c1 4 1 9 1 14c0 69 -30 107 -86 107zM283 -11c-159 0 -251 79 -251 251c0 158 73 271 226 271c125 0 196 -78 196 -208c0 -26 -3 -57 -10 -87h-286c4 -92 57 -125 145 -125c51 0 106 12 141 31v-99c-29 -19 -98 -34 -161 -34z
M186 598c42 24 68 48 68 73c0 23 -16 37 -41 37c-15 0 -31 -4 -46 -11v68c20 11 39 16 69 16c61 0 105 -40 105 -97c0 -54 -35 -97 -107 -137z" />
    <glyph glyph-name="uni1EB9" unicode="&#x1eb9;" horiz-adv-x="488" 
d="M179 -134c0 38 27 71 74 71c48 0 75 -33 75 -71c0 -37 -28 -70 -75 -70s-74 34 -74 70zM252 417c-53 0 -85 -42 -93 -121h178c1 4 1 9 1 14c0 69 -30 107 -86 107zM283 -11c-159 0 -251 79 -251 251c0 158 73 271 226 271c125 0 196 -78 196 -208c0 -26 -3 -57 -10 -87
h-286c4 -92 57 -125 145 -125c51 0 106 12 141 31v-99c-29 -19 -98 -34 -161 -34z" />
    <glyph glyph-name="uni0065030A" horiz-adv-x="488" 
d="M252 417c-53 0 -85 -42 -93 -121h178c1 4 1 9 1 14c0 69 -30 107 -86 107zM283 -11c-159 0 -251 79 -251 251c0 158 73 271 226 271c125 0 196 -78 196 -208c0 -26 -3 -57 -10 -87h-286c4 -92 57 -125 145 -125c51 0 106 12 141 31v-99c-29 -19 -98 -34 -161 -34z
M153 656c0 53 43 96 96 96c54 0 96 -43 96 -96c0 -54 -42 -95 -96 -95c-53 0 -96 40 -96 95zM208 656c0 -26 16 -44 41 -44s41 18 41 44c0 25 -16 44 -41 44s-41 -19 -41 -44z" />
    <glyph glyph-name="uni1E1F" unicode="&#x1e1f;" horiz-adv-x="365" 
d="M297 87v-87h-265v87l61 3v320h-72v33l19 57h53v24c0 134 71 217 219 217c35 0 77 -6 99 -17v-95c-23 7 -52 11 -76 11c-82 0 -118 -35 -118 -129v-11h144l-24 -90h-120v-320zM187 859c0 38 27 71 74 71s75 -33 75 -71s-29 -70 -75 -70c-47 0 -74 34 -74 70z" />
    <glyph glyph-name="uni00660304" horiz-adv-x="365" 
d="M297 87v-87h-265v87l61 3v320h-72v33l19 57h53v24c0 134 71 217 219 217c35 0 77 -6 99 -17v-95c-23 7 -52 11 -76 11c-82 0 -118 -35 -118 -129v-11h144l-24 -90h-120v-320zM119 809v82h259v-82h-259z" />
    <glyph glyph-name="gbreve" unicode="&#x11f;" horiz-adv-x="500" 
d="M290 -16l-125 14c-30 -18 -47 -49 -47 -78c0 -46 40 -72 120 -72c82 0 127 33 127 76c0 35 -21 53 -75 60zM156 328c0 -63 30 -94 84 -94c51 0 83 31 83 94c0 59 -28 95 -83 95s-84 -36 -84 -95zM484 -60c0 -95 -86 -178 -257 -178c-143 0 -220 54 -220 138
c-1 47 21 93 87 119c-30 13 -50 37 -50 70c0 36 14 70 64 96c-46 30 -69 81 -69 141c0 109 69 185 202 185c44 0 79 -8 108 -22c14 61 51 90 113 90c11 0 20 -1 32 -3v-92c-3 1 -12 1 -17 1c-33 0 -57 -15 -71 -42c23 -30 35 -68 35 -112c0 -107 -69 -181 -202 -181
c-28 0 -53 3 -75 9c-9 -8 -16 -19 -16 -29c0 -15 12 -22 43 -26l140 -16c107 -11 153 -66 153 -148zM232 567c-93 0 -146 53 -147 135v5h86c2 -45 26 -66 61 -66s59 21 61 66h86v-5c-1 -80 -53 -135 -147 -135z" />
    <glyph glyph-name="gcircumflex" unicode="&#x11d;" horiz-adv-x="500" 
d="M179 569h-93v22l90 139h103l92 -139v-22h-93l-50 74zM290 -16l-125 14c-30 -18 -47 -49 -47 -78c0 -46 40 -72 120 -72c82 0 127 33 127 76c0 35 -21 53 -75 60zM156 328c0 -63 30 -94 84 -94c51 0 83 31 83 94c0 59 -28 95 -83 95s-84 -36 -84 -95zM484 -60
c0 -95 -86 -178 -257 -178c-143 0 -220 54 -220 138c-1 47 21 93 87 119c-30 13 -50 37 -50 70c0 36 14 70 64 96c-46 30 -69 81 -69 141c0 109 69 185 202 185c44 0 79 -8 108 -22c14 61 51 90 113 90c11 0 20 -1 32 -3v-92c-3 1 -12 1 -17 1c-33 0 -57 -15 -71 -42
c23 -30 35 -68 35 -112c0 -107 -69 -181 -202 -181c-28 0 -53 3 -75 9c-9 -8 -16 -19 -16 -29c0 -15 12 -22 43 -26l140 -16c107 -11 153 -66 153 -148z" />
    <glyph glyph-name="gcommaaccent" unicode="&#x123;" horiz-adv-x="500" 
d="M290 -16l-125 14c-30 -18 -47 -49 -47 -78c0 -46 40 -72 120 -72c82 0 127 33 127 76c0 35 -21 53 -75 60zM156 328c0 -63 30 -94 84 -94c51 0 83 31 83 94c0 59 -28 95 -83 95s-84 -36 -84 -95zM484 -60c0 -95 -86 -178 -257 -178c-143 0 -220 54 -220 138
c-1 47 21 93 87 119c-30 13 -50 37 -50 70c0 36 14 70 64 96c-46 30 -69 81 -69 141c0 109 69 185 202 185c44 0 79 -8 108 -22c14 61 51 90 113 90c11 0 20 -1 32 -3v-92c-3 1 -12 1 -17 1c-33 0 -57 -15 -71 -42c23 -30 35 -68 35 -112c0 -107 -69 -181 -202 -181
c-28 0 -53 3 -75 9c-9 -8 -16 -19 -16 -29c0 -15 12 -22 43 -26l140 -16c107 -11 153 -66 153 -148zM277 564h-90c-6 18 -8 37 -8 59c0 50 14 98 57 148l78 -33c-29 -40 -43 -83 -43 -118c0 -20 3 -38 6 -56z" />
    <glyph glyph-name="gdotaccent" unicode="&#x121;" horiz-adv-x="500" 
d="M290 -16l-125 14c-30 -18 -47 -49 -47 -78c0 -46 40 -72 120 -72c82 0 127 33 127 76c0 35 -21 53 -75 60zM156 328c0 -63 30 -94 84 -94c51 0 83 31 83 94c0 59 -28 95 -83 95s-84 -36 -84 -95zM484 -60c0 -95 -86 -178 -257 -178c-143 0 -220 54 -220 138
c-1 47 21 93 87 119c-30 13 -50 37 -50 70c0 36 14 70 64 96c-46 30 -69 81 -69 141c0 109 69 185 202 185c44 0 79 -8 108 -22c14 61 51 90 113 90c11 0 20 -1 32 -3v-92c-3 1 -12 1 -17 1c-33 0 -57 -15 -71 -42c23 -30 35 -68 35 -112c0 -107 -69 -181 -202 -181
c-28 0 -53 3 -75 9c-9 -8 -16 -19 -16 -29c0 -15 12 -22 43 -26l140 -16c107 -11 153 -66 153 -148zM159 631c0 38 27 71 74 71s75 -33 75 -71c0 -37 -29 -70 -75 -70c-47 0 -74 34 -74 70z" />
    <glyph glyph-name="uni01E7" unicode="&#x1e7;" horiz-adv-x="500" 
d="M287 564h-105l-98 144v22h89l62 -87l61 87h90v-22zM290 -16l-125 14c-30 -18 -47 -49 -47 -78c0 -46 40 -72 120 -72c82 0 127 33 127 76c0 35 -21 53 -75 60zM156 328c0 -63 30 -94 84 -94c51 0 83 31 83 94c0 59 -28 95 -83 95s-84 -36 -84 -95zM484 -60
c0 -95 -86 -178 -257 -178c-143 0 -220 54 -220 138c-1 47 21 93 87 119c-30 13 -50 37 -50 70c0 36 14 70 64 96c-46 30 -69 81 -69 141c0 109 69 185 202 185c44 0 79 -8 108 -22c14 61 51 90 113 90c11 0 20 -1 32 -3v-92c-3 1 -12 1 -17 1c-33 0 -57 -15 -71 -42
c23 -30 35 -68 35 -112c0 -107 -69 -181 -202 -181c-28 0 -53 3 -75 9c-9 -8 -16 -19 -16 -29c0 -15 12 -22 43 -26l140 -16c107 -11 153 -66 153 -148z" />
    <glyph glyph-name="uni01F5" unicode="&#x1f5;" horiz-adv-x="500" 
d="M290 -16l-125 14c-30 -18 -47 -49 -47 -78c0 -46 40 -72 120 -72c82 0 127 33 127 76c0 35 -21 53 -75 60zM156 328c0 -63 30 -94 84 -94c51 0 83 31 83 94c0 59 -28 95 -83 95s-84 -36 -84 -95zM484 -60c0 -95 -86 -178 -257 -178c-143 0 -220 54 -220 138
c-1 47 21 93 87 119c-30 13 -50 37 -50 70c0 36 14 70 64 96c-46 30 -69 81 -69 141c0 109 69 185 202 185c44 0 79 -8 108 -22c14 61 51 90 113 90c11 0 20 -1 32 -3v-92c-3 1 -12 1 -17 1c-33 0 -57 -15 -71 -42c23 -30 35 -68 35 -112c0 -107 -69 -181 -202 -181
c-28 0 -53 3 -75 9c-9 -8 -16 -19 -16 -29c0 -15 12 -22 43 -26l140 -16c107 -11 153 -66 153 -148zM263 730h110v-22l-86 -144h-90v16z" />
    <glyph glyph-name="uni1E21" unicode="&#x1e21;" horiz-adv-x="500" 
d="M290 -16l-125 14c-30 -18 -47 -49 -47 -78c0 -46 40 -72 120 -72c82 0 127 33 127 76c0 35 -21 53 -75 60zM156 328c0 -63 30 -94 84 -94c51 0 83 31 83 94c0 59 -28 95 -83 95s-84 -36 -84 -95zM484 -60c0 -95 -86 -178 -257 -178c-143 0 -220 54 -220 138
c-1 47 21 93 87 119c-30 13 -50 37 -50 70c0 36 14 70 64 96c-46 30 -69 81 -69 141c0 109 69 185 202 185c44 0 79 -8 108 -22c14 61 51 90 113 90c11 0 20 -1 32 -3v-92c-3 1 -12 1 -17 1c-33 0 -57 -15 -71 -42c23 -30 35 -68 35 -112c0 -107 -69 -181 -202 -181
c-28 0 -53 3 -75 9c-9 -8 -16 -19 -16 -29c0 -15 12 -22 43 -26l140 -16c107 -11 153 -66 153 -148zM103 593v82h259v-82h-259z" />
    <glyph glyph-name="hbar" unicode="&#x127;" horiz-adv-x="583" 
d="M328 556h-126v-120c33 48 87 75 147 75c101 0 160 -67 160 -176v-245l60 -2v-88h-247v88l63 2v210c0 70 -24 103 -80 103c-34 0 -76 -19 -103 -50v-263l65 -2v-88h-247v88l58 2v466h-64v82h64v92h124v-92h126v-82z" />
    <glyph glyph-name="hcircumflex" unicode="&#x125;" horiz-adv-x="583" 
d="M267 87v-87h-237v87l49 3v550h-68v32l25 58h183l-17 -84v-210c33 48 88 75 147 75c101 0 160 -67 160 -176v-245l60 -3v-87h-247v87l63 3v210c0 70 -24 102 -80 102c-34 0 -76 -18 -103 -49v-263zM76 790h-87v21l96 123h101l96 -123v-21h-85l-62 74z" />
    <glyph glyph-name="uni021F" unicode="&#x21f;" horiz-adv-x="583" 
d="M267 87v-87h-237v87l49 3v550h-68v32l25 58h183l-17 -84v-210c33 48 88 75 147 75c101 0 160 -67 160 -176v-245l60 -3v-87h-247v87l63 3v210c0 70 -24 102 -80 102c-34 0 -76 -18 -103 -49v-263zM189 790h-101l-96 123v21h87l59 -73l62 73h85v-21z" />
    <glyph glyph-name="uni1E25" unicode="&#x1e25;" horiz-adv-x="583" 
d="M267 87v-87h-237v87l49 3v550h-68v32l25 58h183l-17 -84v-210c33 48 88 75 147 75c101 0 160 -67 160 -176v-245l60 -3v-87h-247v87l63 3v210c0 70 -24 102 -80 102c-34 0 -76 -18 -103 -49v-263zM218 -134c0 38 27 71 74 71c48 0 75 -33 75 -71c0 -37 -28 -70 -75 -70
s-74 34 -74 70z" />
    <glyph glyph-name="uni1E96" unicode="&#x1e96;" horiz-adv-x="583" 
d="M267 87v-87h-237v87l49 3v550h-68v32l25 58h183l-17 -84v-210c33 48 88 75 147 75c101 0 160 -67 160 -176v-245l60 -3v-87h-247v87l63 3v210c0 70 -24 102 -80 102c-34 0 -76 -18 -103 -49v-263zM161 -170v83h259v-83h-259z" />
    <glyph glyph-name="uni1E2B" unicode="&#x1e2b;" horiz-adv-x="583" 
d="M267 87v-87h-237v87l49 3v550h-68v32l25 58h183l-17 -84v-210c33 48 88 75 147 75c101 0 160 -67 160 -176v-245l60 -3v-87h-247v87l63 3v210c0 70 -24 102 -80 102c-34 0 -76 -18 -103 -49v-263zM291 -193c-94 0 -147 54 -147 135v5h86c2 -45 26 -66 61 -66s59 21 61 66
h86v-5c-1 -80 -54 -135 -147 -135z" />
    <glyph glyph-name="uni1E23" unicode="&#x1e23;" horiz-adv-x="583" 
d="M267 87v-87h-237v87l49 3v550h-68v32l25 58h183l-17 -84v-210c33 48 88 75 147 75c101 0 160 -67 160 -176v-245l60 -3v-87h-247v87l63 3v210c0 70 -24 102 -80 102c-34 0 -76 -18 -103 -49v-263zM64 859c0 38 27 71 74 71s75 -33 75 -71s-29 -70 -75 -70
c-47 0 -74 34 -74 70z" />
    <glyph glyph-name="iacute" unicode="&#xed;" horiz-adv-x="297" 
d="M175 730h110v-22l-86 -144h-90v16zM282 0h-252v87l61 3v320h-67v32l19 58h189l-17 -82v-328l67 -3v-87z" />
    <glyph glyph-name="igrave" unicode="&#xec;" horiz-adv-x="297" 
d="M282 0h-252v87l61 3v320h-67v32l19 58h189l-17 -82v-328l67 -3v-87zM20 730h111l66 -150v-16h-91l-86 144v22z" />
    <glyph glyph-name="icircumflex" unicode="&#xee;" horiz-adv-x="297" 
d="M87 564h-89v21l98 145h105l99 -145v-21h-90l-61 86zM282 0h-252v87l61 3v320h-67v32l19 58h189l-17 -82v-328l67 -3v-87z" />
    <glyph glyph-name="idieresis" unicode="&#xef;" horiz-adv-x="297" 
d="M-10 631c0 34 28 65 68 65c42 0 69 -31 69 -65c0 -35 -27 -65 -69 -65c-40 0 -68 30 -68 65zM167 631c0 34 26 65 67 65c42 0 69 -31 69 -65c0 -35 -27 -65 -69 -65c-41 0 -67 30 -67 65zM282 0h-252v87l61 3v320h-67v32l19 58h189l-17 -82v-328l67 -3v-87z" />
    <glyph glyph-name="ibreve" unicode="&#x12d;" horiz-adv-x="297" 
d="M282 0h-252v87l61 3v320h-67v32l19 58h189l-17 -82v-328l67 -3v-87zM149 567c-93 0 -146 53 -147 135v5h86c2 -45 26 -66 61 -66s59 21 61 66h86v-5c-1 -80 -53 -135 -147 -135z" />
    <glyph glyph-name="dotlessi" unicode="&#x131;" horiz-adv-x="297" 
d="M282 0h-252v87l61 3v320h-67v32l19 58h189l-17 -82v-328l67 -3v-87z" />
    <glyph glyph-name="imacron" unicode="&#x12b;" horiz-adv-x="297" 
d="M21 593v88h254v-88h-254zM282 0h-252v87l61 3v320h-67v32l19 58h189l-17 -82v-328l67 -3v-87z" />
    <glyph glyph-name="iogonek" unicode="&#x12f;" horiz-adv-x="299" 
d="M284 0h-86c-54 -41 -76 -82 -76 -112c0 -31 20 -47 52 -47c20 0 38 4 54 12v-77c-17 -11 -49 -17 -78 -17c-72 0 -121 33 -121 100c0 50 27 98 82 141h-81v87l61 3v320h-67v32l19 58h189l-17 -82v-328l69 -3v-87zM72 630c0 42 32 73 80 73c51 0 82 -31 82 -73
c0 -43 -31 -72 -82 -72c-48 0 -80 29 -80 72z" />
    <glyph glyph-name="itilde" unicode="&#x129;" horiz-adv-x="297" 
d="M282 0h-252v87l61 3v320h-67v32l19 58h189l-17 -82v-328l67 -3v-87zM-1 563v19c0 70 28 111 84 111c23 0 46 -11 66 -21c19 -10 32 -17 46 -17s23 13 23 37v6h77v-20c0 -70 -31 -107 -85 -107c-24 0 -42 6 -63 17c-20 11 -33 18 -47 18c-15 0 -24 -14 -24 -37v-6h-77z
" />
    <glyph glyph-name="uni01D0" unicode="&#x1d0;" horiz-adv-x="297" 
d="M282 0h-252v87l61 3v320h-67v32l19 58h189l-17 -82v-328l67 -3v-87zM193 564h-94l-100 135v21h85l61 -84l65 84h84v-21z" />
    <glyph glyph-name="uni1EC9" unicode="&#x1ec9;" horiz-adv-x="297" 
d="M282 0h-252v87l61 3v320h-67v32l19 58h189l-17 -82v-328l67 -3v-87zM84 593c42 24 68 48 68 73c0 23 -16 37 -41 37c-15 0 -31 -4 -46 -11v68c20 11 39 16 69 16c61 0 105 -40 105 -97c0 -54 -35 -97 -107 -137z" />
    <glyph glyph-name="uni1ECB" unicode="&#x1ecb;" horiz-adv-x="299" 
d="M72 630c0 42 32 73 80 73c51 0 82 -31 82 -73c0 -43 -31 -72 -82 -72c-48 0 -80 29 -80 72zM284 0h-254v87l61 3v320h-67v32l19 58h189l-17 -82v-328l69 -3v-87zM76 -134c0 38 27 71 74 71c48 0 75 -33 75 -71c0 -37 -28 -70 -75 -70s-74 34 -74 70z" />
    <glyph glyph-name="jcircumflex" unicode="&#x135;" horiz-adv-x="271" 
d="M74 564h-89v21l98 145h105l99 -145v-21h-90l-61 86zM18 -235c-25 0 -54 3 -72 9v93c13 -2 29 -4 42 -4c73 0 94 30 94 122v425h-67v32l19 58h189l-17 -82v-447c0 -138 -54 -206 -188 -206z" />
    <glyph glyph-name="uni006A0301" horiz-adv-x="271" 
d="M168 730h110v-22l-86 -144h-90v16zM18 -235c-25 0 -54 3 -72 9v93c13 -2 29 -4 42 -4c73 0 94 30 94 122v425h-67v32l19 58h189l-17 -82v-447c0 -138 -54 -206 -188 -206z" />
    <glyph glyph-name="uni0237" unicode="&#x237;" horiz-adv-x="270" 
d="M18 -235c-25 0 -54 3 -72 9v93c13 -2 29 -4 42 -4c73 0 94 30 94 122v425h-67v32l19 58h189l-17 -82v-447c0 -138 -54 -206 -188 -206z" />
    <glyph glyph-name="kcommaaccent" unicode="&#x137;" horiz-adv-x="552" 
d="M216 -52h90c6 -18 8 -37 8 -59c0 -50 -14 -98 -57 -148l-78 33c29 40 43 83 43 118c0 20 -3 38 -6 56zM267 87v-87h-237v87l49 3v550h-68v32l25 58h183l-17 -84v-348h73l81 112h-54v90h233v-90h-50l-114 -156l112 -164l55 -3v-87h-143l-132 205h-61v-115z" />
    <glyph glyph-name="uni01E9" unicode="&#x1e9;" horiz-adv-x="552" 
d="M267 87v-87h-237v87l49 3v550h-68v32l25 58h183l-17 -84v-348h73l81 112h-54v90h233v-90h-50l-114 -156l112 -164l55 -3v-87h-143l-132 205h-61v-115zM186 790h-101l-96 123v21h87l59 -73l62 73h85v-21z" />
    <glyph glyph-name="uni1E35" unicode="&#x1e35;" horiz-adv-x="552" 
d="M267 87v-87h-237v87l49 3v550h-68v32l25 58h183l-17 -84v-348h73l81 112h-54v90h233v-90h-50l-114 -156l112 -164l55 -3v-87h-143l-132 205h-61v-115zM152 -170v83h259v-83h-259z" />
    <glyph glyph-name="uni1E33" unicode="&#x1e33;" horiz-adv-x="552" 
d="M267 87v-87h-237v87l49 3v550h-68v32l25 58h183l-17 -84v-348h73l81 112h-54v90h233v-90h-50l-114 -156l112 -164l55 -3v-87h-143l-132 205h-61v-115zM195 -134c0 38 27 71 74 71c48 0 75 -33 75 -71c0 -37 -28 -70 -75 -70s-74 34 -74 70z" />
    <glyph glyph-name="lacute" unicode="&#x13a;" horiz-adv-x="270" 
d="M167 934h108v-21l-103 -123h-88v17zM263 8c-15 -10 -53 -17 -81 -17c-75 0 -118 33 -118 118v531h-66v32l24 58h182l-17 -84v-515c0 -37 11 -47 42 -47c11 0 24 2 34 6v-82z" />
    <glyph glyph-name="lcaron" unicode="&#x13e;" horiz-adv-x="278" 
d="M242 770h105v-22l-40 -161h-78v17zM263 8c-15 -10 -53 -17 -81 -17c-75 0 -118 33 -118 118v531h-66v32l24 58h182l-17 -84v-515c0 -37 11 -47 42 -47c11 0 24 2 34 6v-82z" />
    <glyph glyph-name="lcommaaccent" unicode="&#x13c;" horiz-adv-x="270" 
d="M108 -52h90c6 -18 8 -37 8 -59c0 -50 -14 -98 -57 -148l-78 33c29 40 43 83 43 118c0 20 -3 38 -6 56zM263 8c-15 -10 -53 -17 -81 -17c-75 0 -118 33 -118 118v531h-66v32l24 58h182l-17 -84v-515c0 -37 11 -47 42 -47c11 0 24 2 34 6v-82z" />
    <glyph glyph-name="ldot" unicode="&#x140;" horiz-adv-x="362" 
d="M235 379c0 36 26 68 71 68s72 -32 72 -68s-28 -66 -72 -66c-45 0 -71 31 -71 66zM263 8c-15 -10 -53 -17 -81 -17c-75 0 -118 33 -118 118v531h-66v32l24 58h182l-17 -84v-515c0 -37 11 -47 42 -47c11 0 24 2 34 6v-82z" />
    <glyph glyph-name="lslash" unicode="&#x142;" horiz-adv-x="327" 
d="M25 288v89l76 30v233h-66v32l24 58h182l-17 -84v-189l102 41v-90l-102 -41v-236c0 -37 11 -47 42 -47c11 0 24 2 34 6v-82c-15 -10 -53 -17 -81 -17c-75 0 -118 33 -118 118v209z" />
    <glyph glyph-name="uni1E3B" unicode="&#x1e3b;" horiz-adv-x="270" 
d="M263 8c-15 -10 -53 -17 -81 -17c-75 0 -118 33 -118 118v531h-66v32l24 58h182l-17 -84v-515c0 -37 11 -47 42 -47c11 0 24 2 34 6v-82zM27 -170v83h259v-83h-259z" />
    <glyph glyph-name="uni1E37" unicode="&#x1e37;" horiz-adv-x="270" 
d="M263 8c-15 -10 -53 -17 -81 -17c-75 0 -118 33 -118 118v531h-66v32l24 58h182l-17 -84v-515c0 -37 11 -47 42 -47c11 0 24 2 34 6v-82zM78 -134c0 38 27 71 74 71c48 0 75 -33 75 -71c0 -37 -28 -70 -75 -70s-74 34 -74 70z" />
    <glyph glyph-name="uni1E39" unicode="&#x1e39;" horiz-adv-x="270" 
d="M78 -134c0 38 27 71 74 71c48 0 75 -33 75 -71c0 -37 -28 -70 -75 -70s-74 34 -74 70zM1 809v82h259v-82h-259zM263 8c-15 -10 -53 -17 -81 -17c-75 0 -118 33 -118 118v531h-66v32l24 58h182l-17 -84v-515c0 -37 11 -47 42 -47c11 0 24 2 34 6v-82z" />
    <glyph glyph-name="uni1E43" unicode="&#x1e43;" horiz-adv-x="871" 
d="M271 87v-87h-241v87l61 3v320h-67v32l19 58h162l3 -69c33 51 84 80 145 80c66 0 113 -30 137 -84c31 51 85 84 150 84c101 0 156 -66 156 -175v-246l61 -3v-87h-239v87l54 3v214c0 68 -23 98 -77 98c-34 0 -66 -18 -90 -49c1 -9 1 -22 1 -25v-238l57 -3v-87h-237v87l56 3
v214c0 68 -25 98 -76 98c-34 0 -66 -17 -91 -46v-266zM368 -134c0 38 27 71 74 71c48 0 75 -33 75 -71c0 -37 -28 -70 -75 -70s-74 34 -74 70z" />
    <glyph glyph-name="uni006D0310" horiz-adv-x="871" 
d="M377 760c0 32 24 60 62 60c39 0 64 -28 64 -60c0 -31 -25 -59 -64 -59c-38 0 -62 28 -62 59zM439 567c-95 0 -152 49 -152 124v5h87c6 -39 30 -56 65 -56s59 17 65 56h88v-5c-4 -73 -61 -124 -153 -124zM271 87v-87h-241v87l61 3v320h-67v32l19 58h162l3 -69
c33 51 84 80 145 80c66 0 113 -30 137 -84c31 51 85 84 150 84c101 0 156 -66 156 -175v-246l61 -3v-87h-239v87l54 3v214c0 68 -23 98 -77 98c-34 0 -66 -18 -90 -49c1 -9 1 -22 1 -25v-238l57 -3v-87h-237v87l56 3v214c0 68 -25 98 -76 98c-34 0 -66 -17 -91 -46v-266z
" />
    <glyph glyph-name="uni1E41" unicode="&#x1e41;" horiz-adv-x="871" 
d="M271 87v-87h-241v87l61 3v320h-67v32l19 58h162l3 -69c33 51 84 80 145 80c66 0 113 -30 137 -84c31 51 85 84 150 84c101 0 156 -66 156 -175v-246l61 -3v-87h-239v87l54 3v214c0 68 -23 98 -77 98c-34 0 -66 -18 -90 -49c1 -9 1 -22 1 -25v-238l57 -3v-87h-237v87l56 3
v214c0 68 -25 98 -76 98c-34 0 -66 -17 -91 -46v-266zM365 632c0 38 27 71 74 71s75 -33 75 -71s-29 -70 -75 -70c-47 0 -74 34 -74 70z" />
    <glyph glyph-name="uni1E3F" unicode="&#x1e3f;" horiz-adv-x="871" 
d="M271 87v-87h-241v87l61 3v320h-67v32l19 58h162l3 -69c33 51 84 80 145 80c66 0 113 -30 137 -84c31 51 85 84 150 84c101 0 156 -66 156 -175v-246l61 -3v-87h-239v87l54 3v214c0 68 -23 98 -77 98c-34 0 -66 -18 -90 -49c1 -9 1 -22 1 -25v-238l57 -3v-87h-237v87l56 3
v214c0 68 -25 98 -76 98c-34 0 -66 -17 -91 -46v-266zM467 730h110v-22l-86 -144h-90v16z" />
    <glyph glyph-name="ntilde" unicode="&#xf1;" horiz-adv-x="596" 
d="M280 87v-87h-250v87l61 3v320h-67v32l19 58h162l3 -69c34 50 90 80 154 80c102 0 160 -68 160 -177v-244l60 -3v-87h-248v87l64 3v210c0 70 -24 102 -81 102c-38 0 -74 -18 -102 -48v-264zM159 563v19c0 70 28 111 84 111c23 0 46 -11 66 -21c19 -10 32 -17 46 -17
s23 13 23 37v6h77v-20c0 -70 -31 -107 -85 -107c-24 0 -42 6 -63 17c-20 11 -33 18 -47 18c-15 0 -24 -14 -24 -37v-6h-77z" />
    <glyph glyph-name="nacute" unicode="&#x144;" horiz-adv-x="596" 
d="M324 730h110v-22l-86 -144h-90v16zM280 87v-87h-250v87l61 3v320h-67v32l19 58h162l3 -69c34 50 90 80 154 80c102 0 160 -68 160 -177v-244l60 -3v-87h-248v87l64 3v210c0 70 -24 102 -81 102c-38 0 -74 -18 -102 -48v-264z" />
    <glyph glyph-name="napostrophe" unicode="&#x149;" horiz-adv-x="596" 
d="M111 740h90c6 -18 8 -37 8 -59c0 -50 -14 -98 -57 -148l-78 33c29 40 43 83 43 118c0 20 -3 38 -6 56zM280 87v-87h-250v87l61 3v320h-67v32l19 58h162l3 -69c34 50 90 80 154 80c102 0 160 -68 160 -177v-244l60 -3v-87h-248v87l64 3v210c0 70 -24 102 -81 102
c-38 0 -74 -18 -102 -48v-264z" />
    <glyph glyph-name="ncaron" unicode="&#x148;" horiz-adv-x="596" 
d="M351 564h-105l-98 144v22h89l62 -87l61 87h90v-22zM280 87v-87h-250v87l61 3v320h-67v32l19 58h162l3 -69c34 50 90 80 154 80c102 0 160 -68 160 -177v-244l60 -3v-87h-248v87l64 3v210c0 70 -24 102 -81 102c-38 0 -74 -18 -102 -48v-264z" />
    <glyph glyph-name="ncommaaccent" unicode="&#x146;" horiz-adv-x="596" 
d="M255 -52h90c6 -18 8 -37 8 -59c0 -50 -14 -98 -57 -148l-78 33c29 40 43 83 43 118c0 20 -3 38 -6 56zM280 87v-87h-250v87l61 3v320h-67v32l19 58h162l3 -69c34 50 90 80 154 80c102 0 160 -68 160 -177v-244l60 -3v-87h-248v87l64 3v210c0 70 -24 102 -81 102
c-38 0 -74 -18 -102 -48v-264z" />
    <glyph glyph-name="uni01F9" unicode="&#x1f9;" horiz-adv-x="596" 
d="M280 87v-87h-250v87l61 3v320h-67v32l19 58h162l3 -69c34 50 90 80 154 80c102 0 160 -68 160 -177v-244l60 -3v-87h-248v87l64 3v210c0 70 -24 102 -81 102c-38 0 -74 -18 -102 -48v-264zM162 730h111l66 -150v-16h-91l-86 144v22z" />
    <glyph glyph-name="uni1E49" unicode="&#x1e49;" horiz-adv-x="596" 
d="M280 87v-87h-250v87l61 3v320h-67v32l19 58h162l3 -69c34 50 90 80 154 80c102 0 160 -68 160 -177v-244l60 -3v-87h-248v87l64 3v210c0 70 -24 102 -81 102c-38 0 -74 -18 -102 -48v-264zM174 -170v83h259v-83h-259z" />
    <glyph glyph-name="uni1E45" unicode="&#x1e45;" horiz-adv-x="596" 
d="M280 87v-87h-250v87l61 3v320h-67v32l19 58h162l3 -69c34 50 90 80 154 80c102 0 160 -68 160 -177v-244l60 -3v-87h-248v87l64 3v210c0 70 -24 102 -81 102c-38 0 -74 -18 -102 -48v-264zM227 632c0 38 27 71 74 71s75 -33 75 -71s-29 -70 -75 -70c-47 0 -74 34 -74 70z
" />
    <glyph glyph-name="uni1E47" unicode="&#x1e47;" horiz-adv-x="596" 
d="M225 -134c0 38 27 71 74 71s75 -33 75 -71c0 -37 -29 -70 -75 -70c-47 0 -74 34 -74 70zM280 87v-87h-250v87l61 3v320h-67v32l19 58h162l3 -69c34 50 90 80 154 80c102 0 160 -68 160 -177v-244l60 -3v-87h-248v87l64 3v210c0 70 -24 102 -81 102
c-38 0 -74 -18 -102 -48v-264z" />
    <glyph glyph-name="uni006E0304" horiz-adv-x="596" 
d="M280 87v-87h-250v87l61 3v320h-67v32l19 58h162l3 -69c34 50 90 80 154 80c102 0 160 -68 160 -177v-244l60 -3v-87h-248v87l64 3v210c0 70 -24 102 -81 102c-38 0 -74 -18 -102 -48v-264zM174 593v82h259v-82h-259z" />
    <glyph glyph-name="eng" unicode="&#x14b;" horiz-adv-x="572" 
d="M398 -10v310c0 70 -24 102 -81 102c-38 0 -74 -18 -102 -48v-264l65 -3v-87h-249v87l60 3v320h-67v32l19 58h162l3 -69c34 50 90 80 154 80c102 0 160 -68 160 -177v-358c0 -146 -64 -211 -197 -211c-28 0 -55 3 -72 9v93c13 -2 31 -4 44 -4c78 0 101 33 101 127z" />
    <glyph glyph-name="oacute" unicode="&#xf3;" horiz-adv-x="533" 
d="M294 730h110v-22l-86 -144h-90v16zM263 -11c-149 0 -231 90 -231 258c0 162 79 264 239 264c151 0 230 -94 230 -257c0 -161 -79 -265 -238 -265zM266 83c71 0 108 52 108 166c0 115 -35 166 -108 166c-72 0 -107 -55 -107 -166c0 -116 34 -166 107 -166z" />
    <glyph glyph-name="ograve" unicode="&#xf2;" horiz-adv-x="533" 
d="M263 -11c-149 0 -231 90 -231 258c0 162 79 264 239 264c151 0 230 -94 230 -257c0 -161 -79 -265 -238 -265zM266 83c71 0 108 52 108 166c0 115 -35 166 -108 166c-72 0 -107 -55 -107 -166c0 -116 34 -166 107 -166zM137 730h111l66 -150v-16h-91l-86 144v22z" />
    <glyph glyph-name="ocircumflex" unicode="&#xf4;" horiz-adv-x="533" 
d="M205 564h-89v21l98 145h105l99 -145v-21h-90l-61 86zM263 -11c-149 0 -231 90 -231 258c0 162 79 264 239 264c151 0 230 -94 230 -257c0 -161 -79 -265 -238 -265zM266 83c71 0 108 52 108 166c0 115 -35 166 -108 166c-72 0 -107 -55 -107 -166
c0 -116 34 -166 107 -166z" />
    <glyph glyph-name="odieresis" unicode="&#xf6;" horiz-adv-x="533" 
d="M105 630c0 36 27 66 68 66c43 0 70 -30 70 -66c0 -34 -27 -65 -70 -65c-41 0 -68 31 -68 65zM291 630c0 36 27 66 68 66c43 0 70 -30 70 -66c0 -34 -27 -65 -70 -65c-41 0 -68 31 -68 65zM263 -11c-149 0 -231 90 -231 258c0 162 79 264 239 264c151 0 230 -94 230 -257
c0 -161 -79 -265 -238 -265zM266 83c71 0 108 52 108 166c0 115 -35 166 -108 166c-72 0 -107 -55 -107 -166c0 -116 34 -166 107 -166z" />
    <glyph glyph-name="otilde" unicode="&#xf5;" horiz-adv-x="533" 
d="M263 -11c-149 0 -231 90 -231 258c0 162 79 264 239 264c151 0 230 -94 230 -257c0 -161 -79 -265 -238 -265zM266 83c71 0 108 52 108 166c0 115 -35 166 -108 166c-72 0 -107 -55 -107 -166c0 -116 34 -166 107 -166zM121 563v19c0 70 28 111 84 111
c23 0 46 -11 66 -21c19 -10 32 -17 46 -17s23 13 23 37v6h77v-20c0 -70 -31 -107 -85 -107c-24 0 -42 6 -63 17c-20 11 -33 18 -47 18c-15 0 -24 -14 -24 -37v-6h-77z" />
    <glyph glyph-name="obreve" unicode="&#x14f;" horiz-adv-x="533" 
d="M263 -11c-149 0 -231 90 -231 258c0 162 79 264 239 264c151 0 230 -94 230 -257c0 -161 -79 -265 -238 -265zM266 83c71 0 108 52 108 166c0 115 -35 166 -108 166c-72 0 -107 -55 -107 -166c0 -116 34 -166 107 -166zM267 567c-93 0 -146 53 -147 135v5h86
c2 -45 26 -66 61 -66s59 21 61 66h86v-5c-1 -80 -53 -135 -147 -135z" />
    <glyph glyph-name="ohungarumlaut" unicode="&#x151;" horiz-adv-x="533" 
d="M351 730h94v-22l-77 -144h-79v16zM197 730h96v-22l-55 -144h-77v16zM263 -11c-149 0 -231 90 -231 258c0 162 79 264 239 264c151 0 230 -94 230 -257c0 -161 -79 -265 -238 -265zM266 83c71 0 108 52 108 166c0 115 -35 166 -108 166c-72 0 -107 -55 -107 -166
c0 -116 34 -166 107 -166z" />
    <glyph glyph-name="omacron" unicode="&#x14d;" horiz-adv-x="533" 
d="M137 593v82h259v-82h-259zM263 -11c-149 0 -231 90 -231 258c0 162 79 264 239 264c151 0 230 -94 230 -257c0 -161 -79 -265 -238 -265zM266 83c71 0 108 52 108 166c0 115 -35 166 -108 166c-72 0 -107 -55 -107 -166c0 -116 34 -166 107 -166z" />
    <glyph glyph-name="oslash" unicode="&#xf8;" horiz-adv-x="534" 
d="M158 249c0 -36 5 -67 13 -89l154 241c-15 10 -34 15 -58 15c-74 0 -109 -56 -109 -167zM267 81c71 0 109 54 109 168c0 38 -6 68 -14 92l-156 -243c16 -11 36 -17 61 -17zM264 -11c-45 0 -82 8 -115 23l-37 -57h-68v12l53 82c-43 43 -65 110 -65 198
c0 162 79 264 239 264c44 0 81 -7 113 -23l38 57h67v-12l-53 -81c43 -44 66 -112 66 -198c0 -161 -80 -265 -238 -265z" />
    <glyph glyph-name="oslashacute" unicode="&#x1ff;" horiz-adv-x="534" 
d="M292 730h110v-22l-86 -144h-90v16zM158 249c0 -36 5 -67 13 -89l154 241c-15 10 -34 15 -58 15c-74 0 -109 -56 -109 -167zM267 81c71 0 109 54 109 168c0 38 -6 68 -14 92l-156 -243c16 -11 36 -17 61 -17zM264 -11c-45 0 -82 8 -115 23l-37 -57h-68v12l53 82
c-43 43 -65 110 -65 198c0 162 79 264 239 264c44 0 81 -7 113 -23l38 57h67v-12l-53 -81c43 -44 66 -112 66 -198c0 -161 -80 -265 -238 -265z" />
    <glyph glyph-name="uni01D2" unicode="&#x1d2;" horiz-adv-x="533" 
d="M263 -11c-149 0 -231 90 -231 258c0 162 79 264 239 264c151 0 230 -94 230 -257c0 -161 -79 -265 -238 -265zM266 83c71 0 108 52 108 166c0 115 -35 166 -108 166c-72 0 -107 -55 -107 -166c0 -116 34 -166 107 -166zM313 564h-94l-100 135v21h85l61 -84l65 84h84v-21z
" />
    <glyph glyph-name="uni01EB" unicode="&#x1eb;" horiz-adv-x="533" 
d="M296 -241c-73 0 -121 35 -121 99c0 47 21 95 78 133c-144 3 -221 90 -221 255c0 163 79 265 239 265c150 0 230 -94 230 -257c0 -109 -36 -182 -116 -236c-85 -58 -117 -95 -117 -132c0 -31 22 -45 52 -45c20 0 38 4 54 12v-77c-17 -11 -48 -17 -78 -17zM159 249
c0 -116 34 -166 107 -166c71 0 108 52 108 166c0 115 -35 166 -108 166c-72 0 -107 -55 -107 -166z" />
    <glyph glyph-name="uni01ED" unicode="&#x1ed;" horiz-adv-x="533" 
d="M296 -241c-73 0 -121 35 -121 99c0 47 21 95 78 133c-144 3 -221 90 -221 255c0 163 79 265 239 265c150 0 230 -94 230 -257c0 -109 -36 -182 -116 -236c-85 -58 -117 -95 -117 -132c0 -31 22 -45 52 -45c20 0 38 4 54 12v-77c-17 -11 -48 -17 -78 -17zM159 249
c0 -116 34 -166 107 -166c71 0 108 52 108 166c0 115 -35 166 -108 166c-72 0 -107 -55 -107 -166zM136 593v82h259v-82h-259z" />
    <glyph glyph-name="uni022F" unicode="&#x22f;" horiz-adv-x="533" 
d="M192 631c0 38 27 71 74 71s75 -33 75 -71c0 -37 -29 -70 -75 -70c-47 0 -74 34 -74 70zM263 -11c-149 0 -231 90 -231 258c0 162 79 264 239 264c151 0 230 -94 230 -257c0 -161 -79 -265 -238 -265zM266 83c71 0 108 52 108 166c0 115 -35 166 -108 166
c-72 0 -107 -55 -107 -166c0 -116 34 -166 107 -166z" />
    <glyph glyph-name="ohorn" unicode="&#x1a1;" horiz-adv-x="558" 
d="M263 -11c-149 0 -231 90 -231 258c0 162 79 264 239 264c58 0 106 -14 142 -41c24 10 35 31 35 65c0 18 -3 40 -7 56h92c8 -17 13 -51 13 -77c0 -63 -26 -100 -75 -115c21 -39 30 -87 30 -145c0 -161 -79 -265 -238 -265zM266 83c71 0 108 52 108 166
c0 115 -35 166 -108 166c-72 0 -107 -55 -107 -166c0 -116 34 -166 107 -166z" />
    <glyph glyph-name="uni1ED3" unicode="&#x1ed3;" horiz-adv-x="533" 
d="M304 784h100l73 -117v-16h-81l-92 112v21zM208 564h-88v21l100 118h95l100 -118v-21h-88l-61 70zM263 -11c-149 0 -231 90 -231 258c0 162 79 264 239 264c151 0 230 -94 230 -257c0 -161 -79 -265 -238 -265zM266 83c71 0 108 52 108 166c0 115 -35 166 -108 166
c-72 0 -107 -55 -107 -166c0 -116 34 -166 107 -166z" />
    <glyph glyph-name="uni1ED1" unicode="&#x1ed1;" horiz-adv-x="533" 
d="M263 -11c-149 0 -231 90 -231 258c0 162 79 264 239 264c151 0 230 -94 230 -257c0 -161 -79 -265 -238 -265zM266 83c71 0 108 52 108 166c0 115 -35 166 -108 166c-72 0 -107 -55 -107 -166c0 -116 34 -166 107 -166zM453 784h99v-21l-92 -112h-81v16zM208 564h-88v21
l100 118h95l100 -118v-21h-88l-61 70z" />
    <glyph glyph-name="uni1ED7" unicode="&#x1ed7;" horiz-adv-x="533" 
d="M263 -11c-149 0 -231 90 -231 258c0 162 79 264 239 264c151 0 230 -94 230 -257c0 -161 -79 -265 -238 -265zM266 83c71 0 108 52 108 166c0 115 -35 166 -108 166c-72 0 -107 -55 -107 -166c0 -116 34 -166 107 -166zM268 753c-19 10 -30 17 -42 17
c-16 0 -22 -14 -22 -35v-1h-74v11c0 67 25 103 78 103c20 0 38 -6 56 -16s29 -17 42 -17c15 0 22 12 22 35v1h73v-11c0 -67 -27 -102 -79 -102c-19 0 -36 5 -54 15zM208 564h-88v21l100 118h95l100 -118v-21h-88l-61 70z" />
    <glyph glyph-name="uni1ED5" unicode="&#x1ed5;" horiz-adv-x="533" 
d="M263 -11c-149 0 -231 90 -231 258c0 162 79 264 239 264c151 0 230 -94 230 -257c0 -161 -79 -265 -238 -265zM266 83c71 0 108 52 108 166c0 115 -35 166 -108 166c-72 0 -107 -55 -107 -166c0 -116 34 -166 107 -166zM362 684c38 21 53 40 53 60c0 19 -12 30 -34 30
c-13 0 -26 -3 -38 -9v63c17 8 33 13 60 13c52 0 91 -34 91 -85c0 -45 -30 -86 -92 -120zM208 564h-88v21l100 118h95l100 -118v-21h-88l-61 70z" />
    <glyph glyph-name="uni1ED9" unicode="&#x1ed9;" horiz-adv-x="533" 
d="M205 564h-89v21l98 145h105l99 -145v-21h-90l-61 86zM263 -11c-149 0 -231 90 -231 258c0 162 79 264 239 264c151 0 230 -94 230 -257c0 -161 -79 -265 -238 -265zM266 83c71 0 108 52 108 166c0 115 -35 166 -108 166c-72 0 -107 -55 -107 -166
c0 -116 34 -166 107 -166zM191 -134c0 38 27 71 74 71s75 -33 75 -71c0 -37 -29 -70 -75 -70c-47 0 -74 34 -74 70z" />
    <glyph glyph-name="uni1ECF" unicode="&#x1ecf;" horiz-adv-x="533" 
d="M263 -11c-149 0 -231 90 -231 258c0 162 79 264 239 264c151 0 230 -94 230 -257c0 -161 -79 -265 -238 -265zM266 83c71 0 108 52 108 166c0 115 -35 166 -108 166c-72 0 -107 -55 -107 -166c0 -116 34 -166 107 -166zM197 598c42 24 68 48 68 73c0 23 -16 37 -41 37
c-15 0 -31 -4 -46 -11v68c20 11 39 16 69 16c61 0 105 -40 105 -97c0 -54 -35 -97 -107 -137z" />
    <glyph glyph-name="uni1ECD" unicode="&#x1ecd;" horiz-adv-x="533" 
d="M263 -11c-149 0 -231 90 -231 258c0 162 79 264 239 264c151 0 230 -94 230 -257c0 -161 -79 -265 -238 -265zM266 83c71 0 108 52 108 166c0 115 -35 166 -108 166c-72 0 -107 -55 -107 -166c0 -116 34 -166 107 -166zM192 -134c0 38 27 71 74 71s75 -33 75 -71
c0 -37 -29 -70 -75 -70c-47 0 -74 34 -74 70z" />
    <glyph glyph-name="uni1EDD" unicode="&#x1edd;" horiz-adv-x="558" 
d="M263 -11c-149 0 -231 90 -231 258c0 162 79 264 239 264c58 0 106 -14 142 -41c24 10 35 31 35 65c0 18 -3 40 -7 56h92c8 -17 13 -51 13 -77c0 -63 -26 -100 -75 -115c21 -39 30 -87 30 -145c0 -161 -79 -265 -238 -265zM266 83c71 0 108 52 108 166
c0 115 -35 166 -108 166c-72 0 -107 -55 -107 -166c0 -116 34 -166 107 -166zM129 730h111l66 -150v-16h-91l-86 144v22z" />
    <glyph glyph-name="uni1EDB" unicode="&#x1edb;" horiz-adv-x="558" 
d="M263 -11c-149 0 -231 90 -231 258c0 162 79 264 239 264c58 0 106 -14 142 -41c24 10 35 31 35 65c0 18 -3 40 -7 56h92c8 -17 13 -51 13 -77c0 -63 -26 -100 -75 -115c21 -39 30 -87 30 -145c0 -161 -79 -265 -238 -265zM266 83c71 0 108 52 108 166
c0 115 -35 166 -108 166c-72 0 -107 -55 -107 -166c0 -116 34 -166 107 -166zM294 730h110v-22l-86 -144h-90v16z" />
    <glyph glyph-name="uni1EE1" unicode="&#x1ee1;" horiz-adv-x="558" 
d="M263 -11c-149 0 -231 90 -231 258c0 162 79 264 239 264c58 0 106 -14 142 -41c24 10 35 31 35 65c0 18 -3 40 -7 56h92c8 -17 13 -51 13 -77c0 -63 -26 -100 -75 -115c21 -39 30 -87 30 -145c0 -161 -79 -265 -238 -265zM266 83c71 0 108 52 108 166
c0 115 -35 166 -108 166c-72 0 -107 -55 -107 -166c0 -116 34 -166 107 -166zM121 563v19c0 70 28 111 84 111c23 0 46 -11 66 -21c19 -10 32 -17 46 -17s23 13 23 37v6h77v-20c0 -70 -31 -107 -85 -107c-24 0 -42 6 -63 17c-20 11 -33 18 -47 18c-15 0 -24 -14 -24 -37v-6
h-77z" />
    <glyph glyph-name="uni1EDF" unicode="&#x1edf;" horiz-adv-x="558" 
d="M263 -11c-149 0 -231 90 -231 258c0 162 79 264 239 264c58 0 106 -14 142 -41c24 10 35 31 35 65c0 18 -3 40 -7 56h92c8 -17 13 -51 13 -77c0 -63 -26 -100 -75 -115c21 -39 30 -87 30 -145c0 -161 -79 -265 -238 -265zM266 83c71 0 108 52 108 166
c0 115 -35 166 -108 166c-72 0 -107 -55 -107 -166c0 -116 34 -166 107 -166zM197 598c42 24 68 48 68 73c0 23 -16 37 -41 37c-15 0 -31 -4 -46 -11v68c20 11 39 16 69 16c61 0 105 -40 105 -97c0 -54 -35 -97 -107 -137z" />
    <glyph glyph-name="uni1EE3" unicode="&#x1ee3;" horiz-adv-x="558" 
d="M263 -11c-149 0 -231 90 -231 258c0 162 79 264 239 264c58 0 106 -14 142 -41c24 10 35 31 35 65c0 18 -3 40 -7 56h92c8 -17 13 -51 13 -77c0 -63 -26 -100 -75 -115c21 -39 30 -87 30 -145c0 -161 -79 -265 -238 -265zM266 83c71 0 108 52 108 166
c0 115 -35 166 -108 166c-72 0 -107 -55 -107 -166c0 -116 34 -166 107 -166zM192 -134c0 38 27 71 74 71s75 -33 75 -71c0 -37 -29 -70 -75 -70c-47 0 -74 34 -74 70z" />
    <glyph glyph-name="uni007000AF" horiz-adv-x="566" 
d="M271 83c91 0 137 53 137 169c0 105 -36 152 -107 152c-34 0 -70 -18 -96 -46v-262c19 -10 42 -13 66 -13zM300 -143v-87h-279v87l61 3v550h-67v32l19 58h162l2 -63c31 46 81 74 142 74c122 0 193 -81 193 -247c0 -177 -88 -274 -241 -274c-31 0 -61 5 -87 13v-143z
M161 593v82h259v-82h-259z" />
    <glyph glyph-name="uni1E57" unicode="&#x1e57;" horiz-adv-x="566" 
d="M271 83c91 0 137 53 137 169c0 105 -36 152 -107 152c-34 0 -70 -18 -96 -46v-262c19 -10 42 -13 66 -13zM300 -143v-87h-279v87l61 3v550h-67v32l19 58h162l2 -63c31 46 81 74 142 74c122 0 193 -81 193 -247c0 -177 -88 -274 -241 -274c-31 0 -61 5 -87 13v-143z
M215 632c0 38 27 71 74 71s75 -33 75 -71s-29 -70 -75 -70c-47 0 -74 34 -74 70z" />
    <glyph glyph-name="racute" unicode="&#x155;" horiz-adv-x="394" 
d="M236 730h110v-22l-86 -144h-90v16zM30 0v87l61 3v320h-67v32l19 58h160l4 -78c23 58 55 88 117 88c19 0 39 -3 54 -9v-115h-33c-57 -1 -91 -9 -130 -45v-251l86 -3v-87h-271z" />
    <glyph glyph-name="rcaron" unicode="&#x159;" horiz-adv-x="394" 
d="M267 564h-105l-98 144v22h89l62 -87l61 87h90v-22zM30 0v87l61 3v320h-67v32l19 58h160l4 -78c23 58 55 88 117 88c19 0 39 -3 54 -9v-115h-33c-57 -1 -91 -9 -130 -45v-251l86 -3v-87h-271z" />
    <glyph glyph-name="rcommaaccent" unicode="&#x157;" horiz-adv-x="394" 
d="M112 -52h90c6 -18 8 -37 8 -59c0 -50 -14 -98 -57 -148l-78 33c29 40 43 83 43 118c0 20 -3 38 -6 56zM30 0v87l61 3v320h-67v32l19 58h160l4 -78c23 58 55 88 117 88c19 0 39 -3 54 -9v-115h-33c-57 -1 -91 -9 -130 -45v-251l86 -3v-87h-271z" />
    <glyph glyph-name="uni1E5F" unicode="&#x1e5f;" horiz-adv-x="394" 
d="M30 0v87l61 3v320h-67v32l19 58h160l4 -78c23 58 55 88 117 88c19 0 39 -3 54 -9v-115h-33c-57 -1 -91 -9 -130 -45v-251l86 -3v-87h-271zM37 -170v83h259v-83h-259z" />
    <glyph glyph-name="uni1E5B" unicode="&#x1e5b;" horiz-adv-x="394" 
d="M30 0v87l61 3v320h-67v32l19 58h160l4 -78c23 58 55 88 117 88c19 0 39 -3 54 -9v-115h-33c-57 -1 -91 -9 -130 -45v-251l86 -3v-87h-271zM86 -134c0 38 27 71 74 71s75 -33 75 -71c0 -37 -29 -70 -75 -70c-47 0 -74 34 -74 70z" />
    <glyph glyph-name="uni1E5D" unicode="&#x1e5d;" horiz-adv-x="394" 
d="M86 -134c0 38 27 71 74 71s75 -33 75 -71c0 -37 -29 -70 -75 -70c-47 0 -74 34 -74 70zM30 0v87l61 3v320h-67v32l19 58h160l4 -78c23 58 55 88 117 88c19 0 39 -3 54 -9v-115h-33c-57 -1 -91 -9 -130 -45v-251l86 -3v-87h-271zM85 593v82h259v-82h-259z" />
    <glyph glyph-name="uni00720325" horiz-adv-x="394" 
d="M30 0v87l61 3v320h-67v32l19 58h160l4 -78c23 58 55 88 117 88c19 0 39 -3 54 -9v-115h-33c-57 -1 -91 -9 -130 -45v-251l86 -3v-87h-271zM70 -136c0 50 41 91 91 91s91 -41 91 -91c0 -51 -41 -91 -91 -91s-91 40 -91 91zM120 -136c0 -23 18 -43 41 -43s41 18 41 43
c0 24 -17 42 -41 42c-25 0 -41 -19 -41 -42z" />
    <glyph glyph-name="uni007203250304" horiz-adv-x="394" 
d="M30 0v87l61 3v320h-67v32l19 58h160l4 -78c23 58 55 88 117 88c19 0 39 -3 54 -9v-115h-33c-57 -1 -91 -9 -130 -45v-251l86 -3v-87h-271zM85 593v82h259v-82h-259zM70 -136c0 50 41 91 91 91s91 -41 91 -91c0 -51 -41 -91 -91 -91s-91 40 -91 91zM120 -136
c0 -23 18 -43 41 -43s41 18 41 43c0 24 -17 42 -41 42c-25 0 -41 -19 -41 -42z" />
    <glyph glyph-name="uni1E59" unicode="&#x1e59;" horiz-adv-x="394" 
d="M30 0v87l61 3v320h-67v32l19 58h160l4 -78c23 58 55 88 117 88c19 0 39 -3 54 -9v-115h-33c-57 -1 -91 -9 -130 -45v-251l86 -3v-87h-271zM141 632c0 38 27 71 74 71s75 -33 75 -71s-29 -70 -75 -70c-47 0 -74 34 -74 70z" />
    <glyph glyph-name="uni00720300" horiz-adv-x="394" 
d="M30 0v87l61 3v320h-67v32l19 58h160l4 -78c23 58 55 88 117 88c19 0 39 -3 54 -9v-115h-33c-57 -1 -91 -9 -130 -45v-251l86 -3v-87h-271zM75 730h111l66 -150v-16h-91l-86 144v22z" />
    <glyph glyph-name="sacute" unicode="&#x15b;" horiz-adv-x="467" 
d="M254 730h110v-22l-86 -144h-90v16zM209 -11c-65 0 -137 12 -171 29v147h95l2 -74c20 -5 48 -7 74 -7c73 0 103 22 103 58c0 47 -64 54 -129 71c-79 23 -145 55 -145 147c0 83 61 151 214 151c61 0 128 -10 163 -28v-141h-92l-1 69c-17 4 -45 7 -71 7
c-69 0 -92 -22 -92 -50c0 -42 63 -47 127 -63c80 -21 150 -52 150 -150c0 -100 -76 -166 -227 -166z" />
    <glyph glyph-name="scedilla" unicode="&#x15f;" horiz-adv-x="468" 
d="M230 -46c73 -2 112 -39 112 -92c0 -57 -47 -104 -126 -104c-34 0 -66 5 -89 15v66c23 -9 49 -15 76 -15c35 0 53 13 53 37c0 22 -19 36 -50 36c-13 0 -25 -2 -40 -5l-22 41l20 58c-50 4 -99 14 -125 27v147h95l2 -74c20 -5 48 -7 74 -7c73 0 103 22 103 58
c0 47 -64 54 -129 71c-79 23 -145 55 -145 147c0 83 61 151 214 151c61 0 128 -10 163 -28v-141h-92l-1 69c-17 4 -45 7 -71 7c-69 0 -92 -22 -92 -50c0 -42 63 -47 127 -63c80 -21 150 -52 150 -150c0 -93 -65 -156 -195 -165l-13 -36h1z" />
    <glyph glyph-name="scaron" unicode="&#x161;" horiz-adv-x="467" 
d="M284 564h-105l-98 144v22h89l62 -87l61 87h90v-22zM209 -11c-65 0 -137 12 -171 29v147h95l2 -74c20 -5 48 -7 74 -7c73 0 103 22 103 58c0 47 -64 54 -129 71c-79 23 -145 55 -145 147c0 83 61 151 214 151c61 0 128 -10 163 -28v-141h-92l-1 69c-17 4 -45 7 -71 7
c-69 0 -92 -22 -92 -50c0 -42 63 -47 127 -63c80 -21 150 -52 150 -150c0 -100 -76 -166 -227 -166z" />
    <glyph glyph-name="scircumflex" unicode="&#x15d;" horiz-adv-x="467" 
d="M169 564h-89v21l98 145h105l99 -145v-21h-90l-61 86zM209 -11c-65 0 -137 12 -171 29v147h95l2 -74c20 -5 48 -7 74 -7c73 0 103 22 103 58c0 47 -64 54 -129 71c-79 23 -145 55 -145 147c0 83 61 151 214 151c61 0 128 -10 163 -28v-141h-92l-1 69c-17 4 -45 7 -71 7
c-69 0 -92 -22 -92 -50c0 -42 63 -47 127 -63c80 -21 150 -52 150 -150c0 -100 -76 -166 -227 -166z" />
    <glyph glyph-name="uni00730331" horiz-adv-x="467" 
d="M209 -11c-65 0 -137 12 -171 29v147h95l2 -74c20 -5 48 -7 74 -7c73 0 103 22 103 58c0 47 -64 54 -129 71c-79 23 -145 55 -145 147c0 83 61 151 214 151c61 0 128 -10 163 -28v-141h-92l-1 69c-17 4 -45 7 -71 7c-69 0 -92 -22 -92 -50c0 -42 63 -47 127 -63
c80 -21 150 -52 150 -150c0 -100 -76 -166 -227 -166zM98 -170v83h259v-83h-259z" />
    <glyph glyph-name="uni00730300" horiz-adv-x="467" 
d="M209 -11c-65 0 -137 12 -171 29v147h95l2 -74c20 -5 48 -7 74 -7c73 0 103 22 103 58c0 47 -64 54 -129 71c-79 23 -145 55 -145 147c0 83 61 151 214 151c61 0 128 -10 163 -28v-141h-92l-1 69c-17 4 -45 7 -71 7c-69 0 -92 -22 -92 -50c0 -42 63 -47 127 -63
c80 -21 150 -52 150 -150c0 -100 -76 -166 -227 -166zM98 730h111l66 -150v-16h-91l-86 144v22z" />
    <glyph glyph-name="uni1E61" unicode="&#x1e61;" horiz-adv-x="467" 
d="M209 -11c-65 0 -137 12 -171 29v147h95l2 -74c20 -5 48 -7 74 -7c73 0 103 22 103 58c0 47 -64 54 -129 71c-79 23 -145 55 -145 147c0 83 61 151 214 151c61 0 128 -10 163 -28v-141h-92l-1 69c-17 4 -45 7 -71 7c-69 0 -92 -22 -92 -50c0 -42 63 -47 127 -63
c80 -21 150 -52 150 -150c0 -100 -76 -166 -227 -166zM154 632c0 38 27 71 74 71s75 -33 75 -71s-29 -70 -75 -70c-47 0 -74 34 -74 70z" />
    <glyph glyph-name="uni00730306" horiz-adv-x="467" 
d="M209 -11c-65 0 -137 12 -171 29v147h95l2 -74c20 -5 48 -7 74 -7c73 0 103 22 103 58c0 47 -64 54 -129 71c-79 23 -145 55 -145 147c0 83 61 151 214 151c61 0 128 -10 163 -28v-141h-92l-1 69c-17 4 -45 7 -71 7c-69 0 -92 -22 -92 -50c0 -42 63 -47 127 -63
c80 -21 150 -52 150 -150c0 -100 -76 -166 -227 -166zM231 567c-93 0 -146 53 -147 135v5h86c2 -45 26 -66 61 -66s59 21 61 66h86v-5c-1 -80 -53 -135 -147 -135z" />
    <glyph glyph-name="uni1E63" unicode="&#x1e63;" horiz-adv-x="467" 
d="M209 -11c-65 0 -137 12 -171 29v147h95l2 -74c20 -5 48 -7 74 -7c73 0 103 22 103 58c0 47 -64 54 -129 71c-79 23 -145 55 -145 147c0 83 61 151 214 151c61 0 128 -10 163 -28v-141h-92l-1 69c-17 4 -45 7 -71 7c-69 0 -92 -22 -92 -50c0 -42 63 -47 127 -63
c80 -21 150 -52 150 -150c0 -100 -76 -166 -227 -166zM152 -134c0 38 27 71 74 71s75 -33 75 -71c0 -37 -29 -70 -75 -70c-47 0 -74 34 -74 70z" />
    <glyph glyph-name="scommaaccent" unicode="&#x219;" horiz-adv-x="467" 
d="M179 -52h90c6 -18 8 -37 8 -59c0 -50 -14 -98 -57 -148l-78 33c29 40 43 83 43 118c0 20 -3 38 -6 56zM209 -11c-65 0 -137 12 -171 29v147h95l2 -74c20 -5 48 -7 74 -7c73 0 103 22 103 58c0 47 -64 54 -129 71c-79 23 -145 55 -145 147c0 83 61 151 214 151
c61 0 128 -10 163 -28v-141h-92l-1 69c-17 4 -45 7 -71 7c-69 0 -92 -22 -92 -50c0 -42 63 -47 127 -63c80 -21 150 -52 150 -150c0 -100 -76 -166 -227 -166z" />
    <glyph glyph-name="germandbls" unicode="&#xdf;" horiz-adv-x="641" 
d="M423 -11c-59 0 -107 9 -141 25v150h95l2 -75c11 -4 28 -6 45 -6c54 0 77 21 77 55c0 38 -46 59 -95 83c-58 29 -117 68 -117 147c0 69 48 121 157 136c1 10 1 18 1 30c0 65 -38 113 -112 113c-75 0 -119 -54 -119 -142v-505h-184v88l61 2v318h-72v35l19 57h53v10
c0 136 93 231 243 231c152 0 226 -95 226 -204c0 -42 -5 -79 -13 -111c-100 0 -129 -22 -129 -57c0 -33 37 -50 81 -73c62 -32 121 -69 121 -153c0 -93 -71 -154 -199 -154z" />
    <glyph glyph-name="tbar" unicode="&#x167;" horiz-adv-x="384" 
d="M15 242v82h70v86h-70v32l19 58h58l20 135h111l-12 -135h165l-24 -90h-144v-86h138v-82h-138v-65c0 -60 21 -85 81 -85c30 0 61 8 86 21v-96c-24 -15 -72 -28 -121 -28c-117 0 -169 56 -169 168v85h-70z" />
    <glyph glyph-name="tcaron" unicode="&#x165;" horiz-adv-x="379" 
d="M277 785h101v-21l-40 -153h-74v17zM371 17c-24 -15 -72 -28 -121 -28c-117 0 -169 56 -169 168v253h-70v32l19 58h58l20 135h111l-12 -135h165l-24 -90h-144v-233c0 -60 21 -85 81 -85c30 0 61 8 86 21v-96z" />
    <glyph glyph-name="uni021B" unicode="&#x21b;" horiz-adv-x="379" 
d="M176 -52h90c6 -18 8 -37 8 -59c0 -50 -14 -98 -57 -148l-78 33c29 40 43 83 43 118c0 20 -3 38 -6 56zM371 17c-24 -15 -72 -28 -121 -28c-117 0 -169 56 -169 168v253h-70v32l19 58h58l20 135h111l-12 -135h165l-24 -90h-144v-233c0 -60 21 -85 81 -85c30 0 61 8 86 21
v-96z" />
    <glyph glyph-name="tcommaaccent" unicode="&#x163;" horiz-adv-x="379" 
d="M176 -52h90c6 -18 8 -37 8 -59c0 -50 -14 -98 -57 -148l-78 33c29 40 43 83 43 118c0 20 -3 38 -6 56zM371 17c-24 -15 -72 -28 -121 -28c-117 0 -169 56 -169 168v253h-70v32l19 58h58l20 135h111l-12 -135h165l-24 -90h-144v-233c0 -60 21 -85 81 -85c30 0 61 8 86 21
v-96z" />
    <glyph glyph-name="uni1E6F" unicode="&#x1e6f;" horiz-adv-x="379" 
d="M371 17c-24 -15 -72 -28 -121 -28c-117 0 -169 56 -169 168v253h-70v32l19 58h58l20 135h111l-12 -135h165l-24 -90h-144v-233c0 -60 21 -85 81 -85c30 0 61 8 86 21v-96zM98 -170v83h259v-83h-259z" />
    <glyph glyph-name="uni1E6D" unicode="&#x1e6d;" horiz-adv-x="379" 
d="M371 17c-24 -15 -72 -28 -121 -28c-117 0 -169 56 -169 168v253h-70v32l19 58h58l20 135h111l-12 -135h165l-24 -90h-144v-233c0 -60 21 -85 81 -85c30 0 61 8 86 21v-96zM140 -134c0 38 27 71 74 71c48 0 75 -33 75 -71c0 -37 -28 -70 -75 -70s-74 34 -74 70z" />
    <glyph glyph-name="uni1E97" unicode="&#x1e97;" horiz-adv-x="379" 
d="M371 17c-24 -15 -72 -28 -121 -28c-117 0 -169 56 -169 168v253h-70v32l19 58h58l20 135h111l-12 -135h165l-24 -90h-144v-233c0 -60 21 -85 81 -85c30 0 61 8 86 21v-96zM28 748c0 36 27 66 68 66c43 0 70 -30 70 -66c0 -34 -27 -65 -70 -65c-41 0 -68 31 -68 65z
M214 748c0 36 27 66 68 66c43 0 70 -30 70 -66c0 -34 -27 -65 -70 -65c-41 0 -68 31 -68 65z" />
    <glyph glyph-name="uni1E6B" unicode="&#x1e6b;" horiz-adv-x="379" 
d="M371 17c-24 -15 -72 -28 -121 -28c-117 0 -169 56 -169 168v253h-70v32l19 58h58l20 135h111l-12 -135h165l-24 -90h-144v-233c0 -60 21 -85 81 -85c30 0 61 8 86 21v-96zM92 754c0 38 27 71 74 71s75 -33 75 -71s-29 -70 -75 -70c-47 0 -74 34 -74 70z" />
    <glyph glyph-name="uacute" unicode="&#xfa;" horiz-adv-x="567" 
d="M293 730h110v-22l-86 -144h-90v16zM469 -10c-49 0 -82 19 -96 59c-30 -37 -76 -60 -138 -60c-106 0 -163 62 -163 171v250h-54v32l20 58h175l-17 -83v-237c0 -62 26 -86 81 -86c32 0 64 12 85 34v282h-60v32l20 58h181l-18 -82v-292c0 -31 10 -42 33 -42c12 0 22 2 32 8
v-83c-22 -13 -49 -19 -81 -19z" />
    <glyph glyph-name="ugrave" unicode="&#xf9;" horiz-adv-x="567" 
d="M469 -10c-49 0 -82 19 -96 59c-30 -37 -76 -60 -138 -60c-106 0 -163 62 -163 171v250h-54v32l20 58h175l-17 -83v-237c0 -62 26 -86 81 -86c32 0 64 12 85 34v282h-60v32l20 58h181l-18 -82v-292c0 -31 10 -42 33 -42c12 0 22 2 32 8v-83c-22 -13 -49 -19 -81 -19z
M133 730h111l66 -150v-16h-91l-86 144v22z" />
    <glyph glyph-name="ucircumflex" unicode="&#xfb;" horiz-adv-x="567" 
d="M212 564h-89v21l98 145h105l99 -145v-21h-90l-61 86zM469 -10c-49 0 -82 19 -96 59c-30 -37 -76 -60 -138 -60c-106 0 -163 62 -163 171v250h-54v32l20 58h175l-17 -83v-237c0 -62 26 -86 81 -86c32 0 64 12 85 34v282h-60v32l20 58h181l-18 -82v-292
c0 -31 10 -42 33 -42c12 0 22 2 32 8v-83c-22 -13 -49 -19 -81 -19z" />
    <glyph glyph-name="udieresis" unicode="&#xfc;" horiz-adv-x="567" 
d="M109 630c0 36 27 66 68 66c43 0 70 -30 70 -66c0 -34 -27 -65 -70 -65c-41 0 -68 31 -68 65zM295 630c0 36 27 66 68 66c43 0 70 -30 70 -66c0 -34 -27 -65 -70 -65c-41 0 -68 31 -68 65zM469 -10c-49 0 -82 19 -96 59c-30 -37 -76 -60 -138 -60c-106 0 -163 62 -163 171
v250h-54v32l20 58h175l-17 -83v-237c0 -62 26 -86 81 -86c32 0 64 12 85 34v282h-60v32l20 58h181l-18 -82v-292c0 -31 10 -42 33 -42c12 0 22 2 32 8v-83c-22 -13 -49 -19 -81 -19z" />
    <glyph glyph-name="ubreve" unicode="&#x16d;" horiz-adv-x="567" 
d="M469 -10c-49 0 -82 19 -96 59c-30 -37 -76 -60 -138 -60c-106 0 -163 62 -163 171v250h-54v32l20 58h175l-17 -83v-237c0 -62 26 -86 81 -86c32 0 64 12 85 34v282h-60v32l20 58h181l-18 -82v-292c0 -31 10 -42 33 -42c12 0 22 2 32 8v-83c-22 -13 -49 -19 -81 -19z
M273 567c-93 0 -146 53 -147 135v5h86c2 -45 26 -66 61 -66s59 21 61 66h86v-5c-1 -80 -53 -135 -147 -135z" />
    <glyph glyph-name="uhungarumlaut" unicode="&#x171;" horiz-adv-x="567" 
d="M469 -10c-49 0 -82 19 -96 59c-30 -37 -76 -60 -138 -60c-106 0 -163 62 -163 171v250h-54v32l20 58h175l-17 -83v-237c0 -62 26 -86 81 -86c32 0 64 12 85 34v282h-60v32l20 58h181l-18 -82v-292c0 -31 10 -42 33 -42c12 0 22 2 32 8v-83c-22 -13 -49 -19 -81 -19z
M358 730h94v-22l-77 -144h-79v16zM204 730h96v-22l-55 -144h-77v16z" />
    <glyph glyph-name="umacron" unicode="&#x16b;" horiz-adv-x="567" 
d="M469 -10c-49 0 -82 19 -96 59c-30 -37 -76 -60 -138 -60c-106 0 -163 62 -163 171v250h-54v32l20 58h175l-17 -83v-237c0 -62 26 -86 81 -86c32 0 64 12 85 34v282h-60v32l20 58h181l-18 -82v-292c0 -31 10 -42 33 -42c12 0 22 2 32 8v-83c-22 -13 -49 -19 -81 -19z
M149 593v82h259v-82h-259z" />
    <glyph glyph-name="uogonek" unicode="&#x173;" horiz-adv-x="567" 
d="M461 -241c-75 0 -120 37 -120 102c0 44 22 90 90 135c-28 8 -47 25 -58 53c-30 -37 -76 -60 -138 -60c-106 0 -163 62 -163 171v250h-54v32l20 58h175l-17 -83v-237c0 -62 26 -86 81 -86c32 0 64 12 85 34v282h-60v32l20 58h181l-18 -82v-292c0 -31 10 -42 33 -42
c12 0 22 2 32 8v-73c-61 -29 -117 -93 -117 -131c0 -32 23 -47 52 -47c20 0 33 2 55 12v-77c-17 -11 -49 -17 -79 -17z" />
    <glyph glyph-name="uring" unicode="&#x16f;" horiz-adv-x="567" 
d="M177 656c0 53 43 96 96 96c54 0 96 -43 96 -96c0 -54 -42 -95 -96 -95c-53 0 -96 40 -96 95zM232 656c0 -26 16 -44 41 -44s41 18 41 44c0 25 -16 44 -41 44s-41 -19 -41 -44zM469 -10c-49 0 -82 19 -96 59c-30 -37 -76 -60 -138 -60c-106 0 -163 62 -163 171v250h-54v32
l20 58h175l-17 -83v-237c0 -62 26 -86 81 -86c32 0 64 12 85 34v282h-60v32l20 58h181l-18 -82v-292c0 -31 10 -42 33 -42c12 0 22 2 32 8v-83c-22 -13 -49 -19 -81 -19z" />
    <glyph glyph-name="utilde" unicode="&#x169;" horiz-adv-x="567" 
d="M469 -10c-49 0 -82 19 -96 59c-30 -37 -76 -60 -138 -60c-106 0 -163 62 -163 171v250h-54v32l20 58h175l-17 -83v-237c0 -62 26 -86 81 -86c32 0 64 12 85 34v282h-60v32l20 58h181l-18 -82v-292c0 -31 10 -42 33 -42c12 0 22 2 32 8v-83c-22 -13 -49 -19 -81 -19z
M133 563v19c0 70 28 111 84 111c23 0 46 -11 66 -21c19 -10 32 -17 46 -17s23 13 23 37v6h77v-20c0 -70 -31 -107 -85 -107c-24 0 -42 6 -63 17c-20 11 -33 18 -47 18c-15 0 -24 -14 -24 -37v-6h-77z" />
    <glyph glyph-name="uhorn" unicode="&#x1b0;" horiz-adv-x="587" 
d="M235 -11c-106 0 -163 62 -163 171v250h-54v32l20 58h175l-17 -83v-237c0 -62 26 -86 81 -86c32 0 64 12 85 34v282h-60v32l20 58h100c58 0 77 21 77 71c0 18 -3 40 -7 56h92c8 -17 13 -51 13 -76c0 -76 -39 -121 -112 -134v-291c0 -31 10 -42 33 -42c12 0 22 2 32 8v-83
c-22 -13 -49 -19 -81 -19c-49 0 -82 19 -96 59c-30 -37 -76 -60 -138 -60z" />
    <glyph glyph-name="uni1EE7" unicode="&#x1ee7;" horiz-adv-x="567" 
d="M469 -10c-49 0 -82 19 -96 59c-30 -37 -76 -60 -138 -60c-106 0 -163 62 -163 171v250h-54v32l20 58h175l-17 -83v-237c0 -62 26 -86 81 -86c32 0 64 12 85 34v282h-60v32l20 58h181l-18 -82v-292c0 -31 10 -42 33 -42c12 0 22 2 32 8v-83c-22 -13 -49 -19 -81 -19z
M216 598c42 24 68 48 68 73c0 23 -16 37 -41 37c-15 0 -31 -4 -46 -11v68c20 11 39 16 69 16c61 0 105 -40 105 -97c0 -54 -35 -97 -107 -137z" />
    <glyph glyph-name="uni1EE5" unicode="&#x1ee5;" horiz-adv-x="567" 
d="M469 -10c-49 0 -82 19 -96 59c-30 -37 -76 -60 -138 -60c-106 0 -163 62 -163 171v250h-54v32l20 58h175l-17 -83v-237c0 -62 26 -86 81 -86c32 0 64 12 85 34v282h-60v32l20 58h181l-18 -82v-292c0 -31 10 -42 33 -42c12 0 22 2 32 8v-83c-22 -13 -49 -19 -81 -19z
M203 -134c0 38 27 71 74 71s75 -33 75 -71c0 -37 -29 -70 -75 -70c-47 0 -74 34 -74 70z" />
    <glyph glyph-name="uni1EEB" unicode="&#x1eeb;" horiz-adv-x="586" 
d="M469 -10c-49 0 -82 19 -96 59c-30 -37 -76 -60 -138 -60c-106 0 -163 62 -163 171v250h-54v32l20 58h175l-17 -83v-237c0 -62 26 -86 81 -86c32 0 64 12 85 34v282h-60v32l20 58h108c52 2 69 23 69 71c0 17 -3 40 -7 56h92c8 -17 13 -52 13 -76c0 -76 -39 -122 -112 -135
v-290c0 -31 10 -42 33 -42c12 0 22 2 32 8v-83c-22 -13 -49 -19 -81 -19zM135 730h111l66 -150v-16h-91l-86 144v22z" />
    <glyph glyph-name="uni1EE9" unicode="&#x1ee9;" horiz-adv-x="586" 
d="M469 -10c-49 0 -82 19 -96 59c-30 -37 -76 -60 -138 -60c-106 0 -163 62 -163 171v250h-54v32l20 58h175l-17 -83v-237c0 -62 26 -86 81 -86c32 0 64 12 85 34v282h-60v32l20 58h108c52 2 69 23 69 71c0 17 -3 40 -7 56h92c8 -17 13 -52 13 -76c0 -76 -39 -122 -112 -135
v-290c0 -31 10 -42 33 -42c12 0 22 2 32 8v-83c-22 -13 -49 -19 -81 -19zM299 730h110v-22l-86 -144h-90v16z" />
    <glyph glyph-name="uni1EEF" unicode="&#x1eef;" horiz-adv-x="586" 
d="M469 -10c-49 0 -82 19 -96 59c-30 -37 -76 -60 -138 -60c-106 0 -163 62 -163 171v250h-54v32l20 58h175l-17 -83v-237c0 -62 26 -86 81 -86c32 0 64 12 85 34v282h-60v32l20 58h100c58 0 77 21 77 71c0 17 -3 40 -7 56h92c8 -17 13 -52 13 -76c0 -76 -39 -122 -112 -135
v-290c0 -31 10 -42 33 -42c12 0 22 2 32 8v-83c-22 -13 -49 -19 -81 -19zM132 563v19c0 70 28 111 84 111c23 0 46 -11 66 -21c19 -10 32 -17 46 -17s23 13 23 37v6h77v-20c0 -70 -31 -107 -85 -107c-24 0 -42 6 -63 17c-20 11 -33 18 -47 18c-15 0 -24 -14 -24 -37v-6h-77z
" />
    <glyph glyph-name="uni1EED" unicode="&#x1eed;" horiz-adv-x="586" 
d="M469 -10c-49 0 -82 19 -96 59c-30 -37 -76 -60 -138 -60c-106 0 -163 62 -163 171v250h-54v32l20 58h175l-17 -83v-237c0 -62 26 -86 81 -86c32 0 64 12 85 34v282h-60v32l20 58h108c52 2 69 23 69 71c0 17 -3 40 -7 56h92c8 -17 13 -52 13 -76c0 -76 -39 -122 -112 -135
v-290c0 -31 10 -42 33 -42c12 0 22 2 32 8v-83c-22 -13 -49 -19 -81 -19zM216 598c42 24 68 48 68 73c0 23 -16 37 -41 37c-15 0 -31 -4 -46 -11v68c20 11 39 16 69 16c61 0 105 -40 105 -97c0 -54 -35 -97 -107 -137z" />
    <glyph glyph-name="uni1EF1" unicode="&#x1ef1;" horiz-adv-x="586" 
d="M469 -10c-49 0 -82 19 -96 59c-30 -37 -76 -60 -138 -60c-106 0 -163 62 -163 171v250h-54v32l20 58h175l-17 -83v-237c0 -62 26 -86 81 -86c32 0 64 12 85 34v282h-60v32l20 58h100c58 0 77 21 77 71c0 17 -3 40 -7 56h92c8 -17 13 -52 13 -76c0 -76 -39 -122 -112 -135
v-290c0 -31 10 -42 33 -42c12 0 22 2 32 8v-83c-22 -13 -49 -19 -81 -19zM203 -134c0 38 27 71 74 71s75 -33 75 -71c0 -37 -29 -70 -75 -70c-47 0 -74 34 -74 70z" />
    <glyph glyph-name="uni01D4" unicode="&#x1d4;" horiz-adv-x="567" 
d="M327 564h-105l-98 144v22h89l62 -87l61 87h90v-22zM469 -10c-49 0 -82 19 -96 59c-30 -37 -76 -60 -138 -60c-106 0 -163 62 -163 171v250h-54v32l20 58h175l-17 -83v-237c0 -62 26 -86 81 -86c32 0 64 12 85 34v282h-60v32l20 58h181l-18 -82v-292c0 -31 10 -42 33 -42
c12 0 22 2 32 8v-83c-22 -13 -49 -19 -81 -19z" />
    <glyph glyph-name="uni01D6" unicode="&#x1d6;" horiz-adv-x="567" 
d="M469 -10c-49 0 -82 19 -96 59c-30 -37 -76 -60 -138 -60c-106 0 -163 62 -163 171v250h-54v32l20 58h175l-17 -83v-237c0 -62 26 -86 81 -86c32 0 64 12 85 34v282h-60v32l20 58h181l-18 -82v-292c0 -31 10 -42 33 -42c12 0 22 2 32 8v-83c-22 -13 -49 -19 -81 -19z
M135 751v84h269v-84h-269zM108 630c0 36 27 66 68 66c43 0 70 -30 70 -66c0 -34 -27 -65 -70 -65c-41 0 -68 31 -68 65zM294 630c0 36 27 66 68 66c43 0 70 -30 70 -66c0 -34 -27 -65 -70 -65c-41 0 -68 31 -68 65z" />
    <glyph glyph-name="uni01D8" unicode="&#x1d8;" horiz-adv-x="567" 
d="M307 886h108v-21l-103 -123h-88v17zM108 630c0 36 27 66 68 66c43 0 70 -30 70 -66c0 -34 -27 -65 -70 -65c-41 0 -68 31 -68 65zM294 630c0 36 27 66 68 66c43 0 70 -30 70 -66c0 -34 -27 -65 -70 -65c-41 0 -68 31 -68 65zM469 -10c-49 0 -82 19 -96 59
c-30 -37 -76 -60 -138 -60c-106 0 -163 62 -163 171v250h-54v32l20 58h175l-17 -83v-237c0 -62 26 -86 81 -86c32 0 64 12 85 34v282h-60v32l20 58h181l-18 -82v-292c0 -31 10 -42 33 -42c12 0 22 2 32 8v-83c-22 -13 -49 -19 -81 -19z" />
    <glyph glyph-name="uni01DA" unicode="&#x1da;" horiz-adv-x="567" 
d="M469 -10c-49 0 -82 19 -96 59c-30 -37 -76 -60 -138 -60c-106 0 -163 62 -163 171v250h-54v32l20 58h175l-17 -83v-237c0 -62 26 -86 81 -86c32 0 64 12 85 34v282h-60v32l20 58h181l-18 -82v-292c0 -31 10 -42 33 -42c12 0 22 2 32 8v-83c-22 -13 -49 -19 -81 -19z
M319 742h-101l-96 123v21h87l59 -73l62 73h85v-21zM108 630c0 36 27 66 68 66c43 0 70 -30 70 -66c0 -34 -27 -65 -70 -65c-41 0 -68 31 -68 65zM294 630c0 36 27 66 68 66c43 0 70 -30 70 -66c0 -34 -27 -65 -70 -65c-41 0 -68 31 -68 65z" />
    <glyph glyph-name="uni01DC" unicode="&#x1dc;" horiz-adv-x="567" 
d="M469 -10c-49 0 -82 19 -96 59c-30 -37 -76 -60 -138 -60c-106 0 -163 62 -163 171v250h-54v32l20 58h175l-17 -83v-237c0 -62 26 -86 81 -86c32 0 64 12 85 34v282h-60v32l20 58h181l-18 -82v-292c0 -31 10 -42 33 -42c12 0 22 2 32 8v-83c-22 -13 -49 -19 -81 -19z
M122 886h107l82 -127v-17h-87l-102 123v21zM108 630c0 36 27 66 68 66c43 0 70 -30 70 -66c0 -34 -27 -65 -70 -65c-41 0 -68 31 -68 65zM294 630c0 36 27 66 68 66c43 0 70 -30 70 -66c0 -34 -27 -65 -70 -65c-41 0 -68 31 -68 65z" />
    <glyph glyph-name="uni00760304" horiz-adv-x="560" 
d="M361 0h-162l-144 410h-42v90h238v-90h-59l98 -290l97 290h-54v90h213v-90h-41zM151 593v82h259v-82h-259z" />
    <glyph glyph-name="uni1E7F" unicode="&#x1e7f;" horiz-adv-x="560" 
d="M361 0h-162l-144 410h-42v90h238v-90h-59l98 -290l97 290h-54v90h213v-90h-41zM205 -134c0 38 27 71 74 71c48 0 75 -33 75 -71c0 -37 -28 -70 -75 -70s-74 34 -74 70z" />
    <glyph glyph-name="uni1E7D" unicode="&#x1e7d;" horiz-adv-x="560" 
d="M361 0h-162l-144 410h-42v90h238v-90h-59l98 -290l97 290h-54v90h213v-90h-41zM136 563v19c0 70 28 111 84 111c23 0 46 -11 66 -21c19 -10 32 -17 46 -17s23 13 23 37v6h77v-20c0 -70 -31 -107 -85 -107c-24 0 -42 6 -63 17c-20 11 -33 18 -47 18c-15 0 -24 -14 -24 -37
v-6h-77z" />
    <glyph glyph-name="wacute" unicode="&#x1e83;" horiz-adv-x="757" 
d="M408 730h110v-22l-86 -144h-90v16zM459 0l-80 315l-80 -315h-129l-111 410h-45v90h219v-90h-57l67 -258l80 304h119l81 -307l67 261h-58v90h210v-90h-44l-110 -410h-129z" />
    <glyph glyph-name="wcircumflex" unicode="&#x175;" horiz-adv-x="757" 
d="M318 564h-89v21l98 145h105l99 -145v-21h-90l-61 86zM459 0l-80 315l-80 -315h-129l-111 410h-45v90h219v-90h-57l67 -258l80 304h119l81 -307l67 261h-58v90h210v-90h-44l-110 -410h-129z" />
    <glyph glyph-name="wdieresis" unicode="&#x1e85;" horiz-adv-x="757" 
d="M218 630c0 36 27 66 68 66c43 0 70 -30 70 -66c0 -34 -27 -65 -70 -65c-41 0 -68 31 -68 65zM404 630c0 36 27 66 68 66c43 0 70 -30 70 -66c0 -34 -27 -65 -70 -65c-41 0 -68 31 -68 65zM459 0l-80 315l-80 -315h-129l-111 410h-45v90h219v-90h-57l67 -258l80 304h119
l81 -307l67 261h-58v90h210v-90h-44l-110 -410h-129z" />
    <glyph glyph-name="wgrave" unicode="&#x1e81;" horiz-adv-x="757" 
d="M459 0l-80 315l-80 -315h-129l-111 410h-45v90h219v-90h-57l67 -258l80 304h119l81 -307l67 261h-58v90h210v-90h-44l-110 -410h-129zM248 730h111l66 -150v-16h-91l-86 144v22z" />
    <glyph glyph-name="uni1E87" unicode="&#x1e87;" horiz-adv-x="757" 
d="M459 0l-80 315l-80 -315h-129l-111 410h-45v90h219v-90h-57l67 -258l80 304h119l81 -307l67 261h-58v90h210v-90h-44l-110 -410h-129zM307 631c0 38 27 71 74 71s75 -33 75 -71c0 -37 -29 -70 -75 -70c-47 0 -74 34 -74 70z" />
    <glyph glyph-name="uni1E89" unicode="&#x1e89;" horiz-adv-x="757" 
d="M459 0l-80 315l-80 -315h-129l-111 410h-45v90h219v-90h-57l67 -258l80 304h119l81 -307l67 261h-58v90h210v-90h-44l-110 -410h-129zM305 -134c0 38 27 71 74 71s75 -33 75 -71c0 -37 -29 -70 -75 -70c-47 0 -74 34 -74 70z" />
    <glyph glyph-name="uni00780304" horiz-adv-x="552" 
d="M226 0h-201v87l32 1l136 169l-120 153h-36v90h231v-90h-45l69 -91l71 91h-45v90l207 1v-91h-45l-124 -152l136 -169l46 -2v-87h-247v87l51 2l-85 108l-82 -107l51 -3v-87zM150 593v82h259v-82h-259z" />
    <glyph glyph-name="uni1E8B" unicode="&#x1e8b;" horiz-adv-x="552" 
d="M226 0h-201v87l32 1l136 169l-120 153h-36v90h231v-90h-45l69 -91l71 91h-45v90l207 1v-91h-45l-124 -152l136 -169l46 -2v-87h-247v87l51 2l-85 108l-82 -107l51 -3v-87zM205 631c0 38 27 71 74 71s75 -33 75 -71c0 -37 -29 -70 -75 -70c-47 0 -74 34 -74 70z" />
    <glyph glyph-name="ydieresis" unicode="&#xff;" horiz-adv-x="559" 
d="M116 -242c-29 0 -61 5 -80 13v99c19 -6 40 -8 63 -8c79 0 116 22 149 120l6 18h-51l-147 410h-43v90h237v-90h-60l102 -298l95 298h-55v90h214v-90h-41l-151 -455c-48 -143 -116 -197 -238 -197zM127 630c0 36 27 66 68 66c43 0 70 -30 70 -66c0 -34 -27 -65 -70 -65
c-41 0 -68 31 -68 65zM313 630c0 36 27 66 68 66c43 0 70 -30 70 -66c0 -34 -27 -65 -70 -65c-41 0 -68 31 -68 65z" />
    <glyph glyph-name="ycircumflex" unicode="&#x177;" horiz-adv-x="559" 
d="M116 -242c-29 0 -61 5 -80 13v99c19 -6 40 -8 63 -8c79 0 116 22 149 120l6 18h-51l-147 410h-43v90h237v-90h-60l102 -298l95 298h-55v90h214v-90h-41l-151 -455c-48 -143 -116 -197 -238 -197zM223 564h-89v21l98 145h105l99 -145v-21h-90l-61 86z" />
    <glyph glyph-name="ymacron" unicode="&#x233;" horiz-adv-x="559" 
d="M116 -242c-29 0 -61 5 -80 13v99c19 -6 40 -8 63 -8c79 0 116 22 149 120l6 18h-51l-147 410h-43v90h237v-90h-60l102 -298l95 298h-55v90h214v-90h-41l-151 -455c-48 -143 -116 -197 -238 -197zM151 593v82h259v-82h-259z" />
    <glyph glyph-name="ygrave" unicode="&#x1ef3;" horiz-adv-x="559" 
d="M116 -242c-29 0 -61 5 -80 13v99c19 -6 40 -8 63 -8c79 0 116 22 149 120l6 18h-51l-147 410h-43v90h237v-90h-60l102 -298l95 298h-55v90h214v-90h-41l-151 -455c-48 -143 -116 -197 -238 -197zM147 730h111l66 -150v-16h-91l-86 144v22z" />
    <glyph glyph-name="yacute" unicode="&#xfd;" horiz-adv-x="559" 
d="M116 -242c-29 0 -61 5 -80 13v99c19 -6 40 -8 63 -8c79 0 116 22 149 120l6 18h-51l-147 410h-43v90h237v-90h-60l102 -298l95 298h-55v90h214v-90h-41l-151 -455c-48 -143 -116 -197 -238 -197zM310 730h110v-22l-86 -144h-90v16z" />
    <glyph glyph-name="uni1E8F" unicode="&#x1e8f;" horiz-adv-x="559" 
d="M116 -242c-29 0 -61 5 -80 13v99c19 -6 40 -8 63 -8c79 0 116 22 149 120l6 18h-51l-147 410h-43v90h237v-90h-60l102 -298l95 298h-55v90h214v-90h-41l-151 -455c-48 -143 -116 -197 -238 -197zM211 631c0 38 27 71 74 71s75 -33 75 -71c0 -37 -29 -70 -75 -70
c-47 0 -74 34 -74 70z" />
    <glyph glyph-name="uni1EF9" unicode="&#x1ef9;" horiz-adv-x="559" 
d="M116 -242c-29 0 -61 5 -80 13v99c19 -6 40 -8 63 -8c79 0 116 22 149 120l6 18h-51l-147 410h-43v90h237v-90h-60l102 -298l95 298h-55v90h214v-90h-41l-151 -455c-48 -143 -116 -197 -238 -197zM141 563v19c0 70 28 111 84 111c23 0 46 -11 66 -21c19 -10 32 -17 46 -17
s23 13 23 37v6h77v-20c0 -70 -31 -107 -85 -107c-24 0 -42 6 -63 17c-20 11 -33 18 -47 18c-15 0 -24 -14 -24 -37v-6h-77z" />
    <glyph glyph-name="uni1EF7" unicode="&#x1ef7;" horiz-adv-x="559" 
d="M116 -242c-29 0 -61 5 -80 13v99c19 -6 40 -8 63 -8c79 0 116 22 149 120l6 18h-51l-147 410h-43v90h237v-90h-60l102 -298l95 298h-55v90h214v-90h-41l-151 -455c-48 -143 -116 -197 -238 -197zM221 598c42 24 68 48 68 73c0 23 -16 37 -41 37c-15 0 -31 -4 -46 -11v68
c20 11 39 16 69 16c61 0 105 -40 105 -97c0 -54 -35 -97 -107 -137z" />
    <glyph glyph-name="uni1EF5" unicode="&#x1ef5;" horiz-adv-x="559" 
d="M116 -242c-29 0 -61 5 -80 13v99c19 -6 40 -8 63 -8c79 0 116 22 149 120l6 18h-51l-147 410h-43v90h237v-90h-60l102 -298l95 298h-55v90h214v-90h-41l-151 -455c-48 -143 -116 -197 -238 -197zM377 -134c0 38 27 71 74 71s75 -33 75 -71c0 -37 -29 -70 -75 -70
c-47 0 -74 34 -74 70z" />
    <glyph glyph-name="zacute" unicode="&#x17a;" horiz-adv-x="490" 
d="M271 730h110v-22l-86 -144h-90v16zM455 0h-425v93l260 312h-148l-2 -69h-97v164h408v-92l-260 -312h165l2 71h97v-167z" />
    <glyph glyph-name="zcaron" unicode="&#x17e;" horiz-adv-x="490" 
d="M302 564h-105l-98 144v22h89l62 -87l61 87h90v-22zM455 0h-425v93l260 312h-148l-2 -69h-97v164h408v-92l-260 -312h165l2 71h97v-167z" />
    <glyph glyph-name="zdotaccent" unicode="&#x17c;" horiz-adv-x="490" 
d="M455 0h-425v93l260 312h-148l-2 -69h-97v164h408v-92l-260 -312h165l2 71h97v-167zM174 631c0 38 27 71 74 71s75 -33 75 -71c0 -37 -29 -70 -75 -70c-47 0 -74 34 -74 70z" />
    <glyph glyph-name="uni1E95" unicode="&#x1e95;" horiz-adv-x="490" 
d="M455 0h-425v93l260 312h-148l-2 -69h-97v164h408v-92l-260 -312h165l2 71h97v-167zM111 -170v83h259v-83h-259z" />
    <glyph glyph-name="uni1E93" unicode="&#x1e93;" horiz-adv-x="490" 
d="M455 0h-425v93l260 312h-148l-2 -69h-97v164h408v-92l-260 -312h165l2 71h97v-167zM161 -134c0 38 27 71 74 71s75 -33 75 -71c0 -37 -29 -70 -75 -70c-47 0 -74 34 -74 70z" />
    <glyph glyph-name="uni007A0324" horiz-adv-x="490" 
d="M455 0h-425v93l260 312h-148l-2 -69h-97v164h408v-92l-260 -312h165l2 71h97v-167zM77 -134c0 36 27 66 68 66c42 0 69 -30 69 -66c0 -34 -27 -65 -69 -65c-41 0 -68 31 -68 65zM263 -134c0 36 26 66 68 66s69 -30 69 -66c0 -34 -27 -65 -69 -65s-68 31 -68 65z" />
    <glyph glyph-name="thorn" unicode="&#xfe;" horiz-adv-x="546" 
d="M251 83c91 0 137 53 137 169c0 105 -36 152 -107 152c-34 0 -70 -18 -96 -46v-262c18 -10 42 -13 66 -13zM280 -143v-87h-279v87l61 3v780h-67v32l24 58h183l-17 -84v-152c0 -15 1 -34 -1 -50c32 42 80 67 138 67c119 0 191 -81 191 -247c0 -177 -88 -274 -241 -274
c-31 0 -61 5 -87 13v-143z" />
    <glyph glyph-name="eth" unicode="&#xf0;" horiz-adv-x="538" 
d="M259 -11c-135 0 -228 82 -228 238c0 150 73 242 215 242c37 0 74 -8 101 -26c-14 46 -37 85 -68 118l-107 -68l-47 68l87 56c-29 19 -61 35 -98 50l41 82c57 -19 109 -43 152 -73l122 77l47 -67l-101 -65c83 -82 126 -192 126 -328c0 -206 -90 -304 -242 -304zM267 84
c67 0 103 52 103 197c0 27 -2 53 -6 79c-25 10 -55 15 -83 15c-86 0 -124 -54 -124 -145c0 -98 42 -146 110 -146z" />
    <glyph glyph-name="uni01C6" unicode="&#x1c6;" horiz-adv-x="1053" 
d="M465 -10c-49 0 -80 19 -92 55c-30 -36 -80 -56 -136 -56c-119 0 -205 80 -205 255c0 169 77 265 227 265c39 0 74 -7 99 -22v153h-80v32l24 58h197l-18 -79v-526c0 -29 10 -41 33 -41c12 0 23 3 33 8v-82c-19 -13 -50 -20 -82 -20zM274 88c32 0 64 11 84 29v277
c-20 11 -45 16 -73 16c-87 0 -128 -58 -128 -162c0 -116 45 -160 117 -160zM865 564h-105l-98 144v22h89l62 -87l61 87h90v-22zM1018 0h-425v93l260 312h-148l-2 -69h-97v164h408v-92l-260 -312h165l2 71h97v-167z" />
    <glyph glyph-name="uni01C9" unicode="&#x1c9;" horiz-adv-x="540" 
d="M263 8c-15 -10 -53 -17 -81 -17c-75 0 -118 33 -118 118v531h-66v32l24 58h182l-17 -84v-515c0 -37 11 -47 42 -47c11 0 24 2 34 6v-82zM333 630c0 42 32 73 80 73c51 0 82 -31 82 -73c0 -43 -31 -72 -82 -72c-48 0 -80 29 -80 72zM288 -235c-25 0 -54 3 -72 9v93
c13 -2 29 -4 42 -4c73 0 94 30 94 122v425h-67v32l19 58h189l-17 -82v-447c0 -138 -54 -206 -188 -206z" />
    <glyph glyph-name="uni01CC" unicode="&#x1cc;" horiz-adv-x="866" 
d="M280 87v-87h-250v87l61 3v320h-67v32l19 58h162l3 -69c34 50 90 80 154 80c102 0 160 -68 160 -177v-244l60 -3v-87h-248v87l64 3v210c0 70 -24 102 -81 102c-38 0 -74 -18 -102 -48v-264zM659 630c0 42 32 73 80 73c51 0 82 -31 82 -73c0 -43 -31 -72 -82 -72
c-48 0 -80 29 -80 72zM614 -235c-25 0 -54 3 -72 9v93c13 -2 29 -4 42 -4c73 0 94 30 94 122v425h-67v32l19 58h189l-17 -82v-447c0 -138 -54 -206 -188 -206z" />
    <glyph glyph-name="uni01F3" unicode="&#x1f3;" horiz-adv-x="1053" 
d="M465 -10c-49 0 -80 19 -92 55c-30 -36 -80 -56 -136 -56c-119 0 -205 80 -205 255c0 169 77 265 227 265c39 0 74 -7 99 -22v153h-80v32l24 58h197l-18 -79v-526c0 -29 10 -41 33 -41c12 0 23 3 33 8v-82c-19 -13 -50 -20 -82 -20zM274 88c32 0 64 11 84 29v277
c-20 11 -45 16 -73 16c-87 0 -128 -58 -128 -162c0 -116 45 -160 117 -160zM1018 0h-425v93l260 312h-148l-2 -69h-97v164h408v-92l-260 -312h165l2 71h97v-167z" />
    <glyph glyph-name="uni021D" unicode="&#x21d;" horiz-adv-x="479" 
d="M122 399l-2 -78h-97v179h421v-92l-126 -238c81 -28 128 -90 128 -184c0 -131 -100 -224 -266 -224c-69 0 -131 12 -162 31v101c41 -20 92 -30 159 -30c94 0 149 44 149 120c0 71 -50 108 -136 108h-83v94h44c11 0 39 0 53 -1l111 214h-193z" />
    <glyph glyph-name="uni01EF" unicode="&#x1ef;" horiz-adv-x="479" 
d="M282 564h-105l-98 144v22h89l62 -87l61 87h90v-22zM122 399l-2 -78h-97v179h421v-92l-126 -238c81 -28 128 -90 128 -184c0 -131 -100 -224 -266 -224c-69 0 -131 12 -162 31v101c41 -20 92 -30 159 -30c94 0 149 44 149 120c0 71 -50 108 -136 108h-83v94h44
c11 0 39 0 53 -1l111 214h-193z" />
    <glyph glyph-name="uni0138" unicode="&#x138;" horiz-adv-x="564" 
d="M279 87v-87h-247v87l58 3v320h-67v32l19 58h172v-202h72l82 112h-55v90h233v-90h-50l-113 -156l111 -164l55 -3v-87h-142l-133 205h-60v-115z" />
    <glyph glyph-name="uni01DD" unicode="&#x1dd;" horiz-adv-x="488" 
d="M236 83c53 0 85 42 93 121h-178c-1 -4 -1 -9 -1 -14c0 -69 30 -107 86 -107zM205 511c159 0 251 -79 251 -251c0 -158 -73 -271 -226 -271c-125 0 -196 78 -196 208c0 26 3 57 10 87h286c-4 92 -57 125 -145 125c-51 0 -106 -12 -141 -31v99c29 19 98 34 161 34z" />
    <glyph glyph-name="schwa" unicode="&#x259;" horiz-adv-x="488" 
d="M236 83c53 0 85 42 93 121h-178c-1 -4 -1 -9 -1 -14c0 -69 30 -107 86 -107zM205 511c159 0 251 -79 251 -251c0 -158 -73 -271 -226 -271c-125 0 -196 78 -196 208c0 26 3 57 10 87h286c-4 92 -57 125 -145 125c-51 0 -106 -12 -141 -31v99c29 19 98 34 161 34z" />
    <glyph glyph-name="i.TRK" horiz-adv-x="299" 
d="M72 630c0 42 32 73 80 73c51 0 82 -31 82 -73c0 -43 -31 -72 -82 -72c-48 0 -80 29 -80 72zM284 0h-254v87l61 3v320h-67v32l19 58h189l-17 -82v-328l69 -3v-87z" />
    <glyph glyph-name="ae" unicode="&#xe6;" horiz-adv-x="759" 
d="M715 23c-29 -19 -98 -34 -161 -34c-89 0 -154 24 -194 76c-30 -46 -88 -76 -160 -76c-100 0 -171 56 -171 153c0 96 61 154 205 154h79v24c0 68 -33 90 -97 90c-18 0 -40 -3 -58 -7l-2 -61h-97v141c42 16 104 28 165 28c73 0 124 -22 157 -68c36 42 86 68 149 68
c124 0 196 -78 196 -208c0 -26 -4 -54 -10 -84h-284c5 -95 54 -128 142 -128c51 0 106 12 141 31v-99zM229 80c41 0 77 17 98 48c-9 25 -14 55 -15 91h-55c-78 0 -107 -29 -107 -71c0 -44 31 -68 79 -68zM524 417c-54 0 -84 -42 -92 -121h176v14c0 69 -28 107 -84 107z" />
    <glyph glyph-name="aeacute" unicode="&#x1fd;" horiz-adv-x="759" 
d="M715 23c-29 -19 -98 -34 -161 -34c-89 0 -154 24 -194 76c-30 -46 -88 -76 -160 -76c-100 0 -171 56 -171 153c0 96 61 154 205 154h79v24c0 68 -33 90 -97 90c-18 0 -40 -3 -58 -7l-2 -61h-97v141c42 16 104 28 165 28c73 0 124 -22 157 -68c36 42 86 68 149 68
c124 0 196 -78 196 -208c0 -26 -4 -54 -10 -84h-284c5 -95 54 -128 142 -128c51 0 106 12 141 31v-99zM229 80c41 0 77 17 98 48c-9 25 -14 55 -15 91h-55c-78 0 -107 -29 -107 -71c0 -44 31 -68 79 -68zM411 730h110v-22l-86 -144h-90v16zM524 417c-54 0 -84 -42 -92 -121
h176v14c0 69 -28 107 -84 107z" />
    <glyph glyph-name="aemacron" unicode="&#x1e3;" horiz-adv-x="759" 
d="M715 23c-29 -19 -98 -34 -161 -34c-89 0 -154 24 -194 76c-30 -46 -88 -76 -160 -76c-100 0 -171 56 -171 153c0 96 61 154 205 154h79v24c0 68 -33 90 -97 90c-18 0 -40 -3 -58 -7l-2 -61h-97v141c42 16 104 28 165 28c73 0 124 -22 157 -68c36 42 86 68 149 68
c124 0 196 -78 196 -208c0 -26 -4 -54 -10 -84h-284c5 -95 54 -128 142 -128c51 0 106 12 141 31v-99zM259 593v82h259v-82h-259zM229 80c41 0 77 17 98 48c-9 25 -14 55 -15 91h-55c-78 0 -107 -29 -107 -71c0 -44 31 -68 79 -68zM524 417c-54 0 -84 -42 -92 -121h176v14
c0 69 -28 107 -84 107z" />
    <glyph glyph-name="oe" unicode="&#x153;" horiz-adv-x="835" 
d="M628 -11c-96 0 -161 27 -199 85c-35 -55 -92 -85 -168 -85c-147 0 -229 88 -229 258c0 165 80 264 236 264c78 0 134 -31 167 -89c36 56 92 89 169 89c124 0 198 -78 198 -208c0 -26 -4 -57 -10 -87h-291c5 -92 60 -125 148 -125c51 0 108 12 142 31v-99
c-28 -19 -99 -34 -163 -34zM598 417c-57 0 -88 -42 -97 -121h183c1 4 1 9 1 14c0 69 -31 107 -87 107zM159 251c0 -115 31 -168 106 -168c71 0 102 53 102 168c0 112 -29 164 -102 164c-72 0 -106 -54 -106 -164z" />
    <glyph glyph-name="ij" unicode="&#x133;" horiz-adv-x="569" 
d="M72 630c0 42 32 73 80 73c51 0 82 -31 82 -73c0 -43 -31 -72 -82 -72c-48 0 -80 29 -80 72zM284 0h-254v87l61 3v320h-67v32l19 58h189l-17 -82v-328l69 -3v-87zM362 630c0 42 32 73 80 73c51 0 82 -31 82 -73c0 -43 -31 -72 -82 -72c-48 0 -80 29 -80 72zM317 -235
c-25 0 -54 3 -72 9v93c13 -2 29 -4 42 -4c73 0 94 30 94 122v425h-67v32l19 58h189l-17 -82v-447c0 -138 -54 -206 -188 -206z" />
    <glyph glyph-name="iacute_jacute" horiz-adv-x="568" 
d="M175 730h110v-22l-86 -144h-90v16zM282 0h-252v87l61 3v320h-67v32l19 58h189l-17 -82v-328l67 -3v-87zM465 730h110v-22l-86 -144h-90v16zM315 -235c-25 0 -54 3 -72 9v93c13 -2 29 -4 42 -4c73 0 94 30 94 122v425h-67v32l19 58h189l-17 -82v-447
c0 -138 -54 -206 -188 -206z" />
    <glyph glyph-name="comma" unicode="," horiz-adv-x="219" 
d="M48 100h109c10 -27 14 -52 14 -80c0 -59 -26 -115 -84 -166l-82 51c35 40 56 78 56 123c0 24 -5 48 -13 72z" />
    <glyph glyph-name="period" unicode="." horiz-adv-x="242" 
d="M40 66c0 40 31 77 81 77s81 -37 81 -77c0 -41 -31 -76 -81 -76s-81 35 -81 76z" />
    <glyph glyph-name="ellipsis" unicode="&#x2026;" horiz-adv-x="696" 
d="M40 68c0 41 32 79 83 79c52 0 84 -38 84 -79c0 -42 -32 -78 -84 -78c-51 0 -83 36 -83 78zM264 68c0 41 32 79 83 79c52 0 84 -38 84 -79c0 -42 -32 -78 -84 -78c-51 0 -83 36 -83 78zM488 68c0 41 32 79 83 79c52 0 84 -38 84 -79c0 -42 -32 -78 -84 -78
c-51 0 -83 36 -83 78z" />
    <glyph glyph-name="colon" unicode=":" horiz-adv-x="265" 
d="M52 66c0 40 31 77 80 77c51 0 82 -37 82 -77c0 -41 -31 -76 -82 -76c-49 0 -80 35 -80 76zM52 430c0 40 31 77 80 77c51 0 82 -37 82 -77c0 -41 -31 -76 -82 -76c-49 0 -80 35 -80 76z" />
    <glyph glyph-name="semicolon" unicode=";" horiz-adv-x="264" 
d="M71 100h108c10 -27 15 -52 15 -80c0 -59 -27 -115 -85 -166l-82 51c36 40 56 78 56 123c0 24 -4 48 -12 72zM53 430c0 40 31 77 80 77c51 0 82 -37 82 -77c0 -41 -31 -76 -82 -76c-49 0 -80 35 -80 76z" />
    <glyph glyph-name="question" unicode="?" horiz-adv-x="450" 
d="M242 209h-98l-7 171c119 22 161 60 161 112c0 41 -35 72 -117 72c-53 0 -107 -11 -154 -32v103c44 24 112 36 169 36c162 0 229 -77 229 -167c0 -84 -59 -155 -179 -190zM114 64c0 42 34 75 78 75c45 0 79 -33 79 -75c0 -41 -34 -74 -79 -74c-44 0 -78 33 -78 74z" />
    <glyph glyph-name="questiondown" unicode="&#xbf;" horiz-adv-x="445" 
d="M206 221h98l7 -171c-119 -22 -161 -60 -161 -112c0 -41 35 -72 117 -72c53 0 107 11 154 32v-103c-44 -24 -112 -36 -169 -36c-162 0 -229 77 -229 167c0 84 59 155 179 190zM334 366c0 -42 -34 -75 -78 -75c-45 0 -79 33 -79 75c0 41 34 74 79 74c44 0 78 -33 78 -74z
" />
    <glyph glyph-name="questiondown.cap" horiz-adv-x="451" 
d="M208 451h98l7 -171c-119 -22 -161 -60 -161 -112c0 -41 35 -72 117 -72c53 0 107 11 154 32v-103c-44 -24 -112 -36 -169 -36c-162 0 -229 77 -229 167c0 84 59 155 179 190zM336 596c0 -42 -34 -75 -78 -75c-45 0 -79 33 -79 75c0 41 34 74 79 74c44 0 78 -33 78 -74z
" />
    <glyph glyph-name="question.smcp" horiz-adv-x="439" 
d="M144 182l-6 114c104 20 144 53 144 92c0 33 -30 58 -99 58c-47 0 -105 -11 -146 -28v90c40 22 110 34 162 34c145 0 207 -64 207 -141c0 -71 -52 -127 -171 -158l-2 -61h-89zM111 62c0 39 31 73 78 73s77 -34 77 -73s-30 -72 -77 -72s-78 33 -78 72z" />
    </font>
</defs>
</svg>
